<ttFont>
<head>
    <!-- Most of this table will be recalculated by the compiler -->
    <tableVersion value="1.0"/>
    <fontRevision value="1.301"/>
    <checkSumAdjustment value="0x49e5f3db"/>
    <magicNumber value="0x5f0f3cf5"/>
    <flags value="00000000 00001011"/>
    <unitsPerEm value="1000"/>
    <created value="Tue Jul  1 21:12:00 2008"/>
    <modified value="Thu Mar  6 18:34:16 2014"/>
    <xMin value="-232"/>
    <yMin value="-237"/>
    <xMax value="1320"/>
    <yMax value="1079"/>
    <macStyle value="00000000 00000000"/>
    <lowestRecPPEM value="9"/>
    <fontDirectionHint value="2"/>
    <indexToLocFormat value="0"/>
    <glyphDataFormat value="0"/>
  </head>
    <TTGlyph name="A" xMin="38" yMin="0" xMax="672" yMax="744">
      <contour>
        <pt x="637" y="0" on="1"/>
        <pt x="535" y="245" on="1"/>
        <pt x="175" y="245" on="1"/>
        <pt x="73" y="0" on="1"/>
        <pt x="38" y="0" on="1"/>
        <pt x="351" y="744" on="1"/>
        <pt x="359" y="744" on="1"/>
        <pt x="672" y="0" on="1"/>
      </contour>
      <contour>
        <pt x="355" y="676" on="1"/>
        <pt x="187" y="274" on="1"/>
        <pt x="522" y="274" on="1"/>
      </contour>
    </TTGlyph>
    <TTGlyph name="AE" xMin="38" yMin="0" xMax="961" yMax="733">
      <contour>
        <pt x="562" y="0" on="1"/>
        <pt x="562" y="245" on="1"/>
        <pt x="252" y="245" on="1"/>
        <pt x="78" y="0" on="1"/>
        <pt x="38" y="0" on="1"/>
        <pt x="565" y="733" on="1"/>
        <pt x="961" y="733" on="1"/>
        <pt x="961" y="704" on="1"/>
        <pt x="595" y="704" on="1"/>
        <pt x="595" y="386" on="1"/>
        <pt x="926" y="386" on="1"/>
        <pt x="926" y="358" on="1"/>
        <pt x="595" y="358" on="1"/>
        <pt x="595" y="29" on="1"/>
        <pt x="961" y="29" on="1"/>
        <pt x="961" y="0" on="1"/>
      </contour>
      <contour>
        <pt x="562" y="679" on="1"/>
        <pt x="273" y="274" on="1"/>
        <pt x="562" y="274" on="1"/>
      </contour>
    </TTGlyph>
    <TTGlyph name="AEacute" xMin="38" yMin="0" xMax="961" yMax="935">
      <component glyphName="AE" x="0" y="0" flags="0x204"/>
      <component glyphName="acute" x="492" y="320" flags="0x4"/>
    </TTGlyph>
    <TTGlyph name="Aacute" xMin="38" yMin="0" xMax="672" yMax="935">
      <component glyphName="A" x="0" y="0" flags="0x204"/>
      <component glyphName="acute" x="208" y="320" flags="0x4"/>
    </TTGlyph>
    <TTGlyph name="Abreve" xMin="38" yMin="0" xMax="672" yMax="935">
      <component glyphName="A" x="0" y="0" flags="0x204"/>
      <component glyphName="breve" x="136" y="320" flags="0x4"/>
    </TTGlyph>
    <TTGlyph name="Acircumflex" xMin="38" yMin="0" xMax="672" yMax="942">
      <component glyphName="A" x="0" y="0" flags="0x204"/>
      <component glyphName="circumflex" x="135" y="320" flags="0x4"/>
    </TTGlyph>
    <TTGlyph name="Adieresis" xMin="38" yMin="0" xMax="672" yMax="896">
      <component glyphName="A" x="0" y="0" flags="0x204"/>
      <component glyphName="dieresis" x="135" y="320" flags="0x4"/>
    </TTGlyph>
    <TTGlyph name="Agrave" xMin="38" yMin="0" xMax="672" yMax="935">
      <component glyphName="A" x="0" y="0" flags="0x204"/>
      <component glyphName="grave" x="56" y="320" flags="0x4"/>
    </TTGlyph>
    <TTGlyph name="Amacron" xMin="38" yMin="0" xMax="672" yMax="872">
      <component glyphName="A" x="0" y="0" flags="0x204"/>
      <component glyphName="macron" x="136" y="320" flags="0x4"/>
    </TTGlyph>
    <TTGlyph name="Aogonek" xMin="38" yMin="-219" xMax="704" yMax="744">
      <contour>
        <pt x="704" y="-169" on="1"/>
        <pt x="689" y="-191" on="0"/>
        <pt x="649" y="-219" on="0"/>
        <pt x="619" y="-219" on="1"/>
        <pt x="587" y="-219" on="0"/>
        <pt x="546" y="-182" on="0"/>
        <pt x="546" y="-147" on="1"/>
        <pt x="546" y="-109" on="0"/>
        <pt x="595" y="-38" on="0"/>
        <pt x="636" y="2" on="1"/>
        <pt x="535" y="245" on="1"/>
        <pt x="175" y="245" on="1"/>
        <pt x="73" y="0" on="1"/>
        <pt x="38" y="0" on="1"/>
        <pt x="351" y="744" on="1"/>
        <pt x="359" y="744" on="1"/>
        <pt x="672" y="0" on="1"/>
        <pt x="654" y="-17" on="0"/>
        <pt x="619" y="-53" on="0"/>
        <pt x="592" y="-90" on="0"/>
        <pt x="576" y="-127" on="0"/>
        <pt x="576" y="-145" on="1"/>
        <pt x="576" y="-168" on="0"/>
        <pt x="602" y="-192" on="0"/>
        <pt x="621" y="-192" on="1"/>
        <pt x="642" y="-192" on="0"/>
        <pt x="673" y="-169" on="0"/>
        <pt x="685" y="-152" on="1"/>
      </contour>
      <contour>
        <pt x="355" y="676" on="1"/>
        <pt x="187" y="274" on="1"/>
        <pt x="522" y="274" on="1"/>
      </contour>
    </TTGlyph>
    <TTGlyph name="Aring" xMin="38" yMin="0" xMax="672" yMax="912">
      <contour>
        <pt x="455" y="813" on="1"/>
        <pt x="455" y="776" on="0"/>
        <pt x="408" y="720" on="0"/>
        <pt x="371" y="714" on="1"/>
        <pt x="672" y="0" on="1"/>
        <pt x="637" y="0" on="1"/>
        <pt x="535" y="245" on="1"/>
        <pt x="175" y="245" on="1"/>
        <pt x="73" y="0" on="1"/>
        <pt x="38" y="0" on="1"/>
        <pt x="339" y="714" on="1"/>
        <pt x="302" y="720" on="0"/>
        <pt x="255" y="776" on="0"/>
        <pt x="255" y="813" on="1"/>
        <pt x="255" y="833" on="0"/>
        <pt x="270" y="869" on="0"/>
        <pt x="297" y="896" on="0"/>
        <pt x="334" y="912" on="0"/>
        <pt x="355" y="912" on="1"/>
        <pt x="376" y="912" on="0"/>
        <pt x="413" y="896" on="0"/>
        <pt x="440" y="869" on="0"/>
        <pt x="455" y="833" on="0"/>
      </contour>
      <contour>
        <pt x="355" y="676" on="1"/>
        <pt x="187" y="274" on="1"/>
        <pt x="522" y="274" on="1"/>
      </contour>
      <contour>
        <pt x="427" y="813" on="1"/>
        <pt x="427" y="845" on="0"/>
        <pt x="387" y="887" on="0"/>
        <pt x="355" y="887" on="1"/>
        <pt x="323" y="887" on="0"/>
        <pt x="283" y="845" on="0"/>
        <pt x="283" y="813" on="1"/>
        <pt x="283" y="781" on="0"/>
        <pt x="323" y="738" on="0"/>
        <pt x="355" y="738" on="1"/>
        <pt x="387" y="738" on="0"/>
        <pt x="427" y="781" on="0"/>
      </contour>
    </TTGlyph>
    <TTGlyph name="Aringacute" xMin="38" yMin="0" xMax="672" yMax="1079">
      <component glyphName="acute" x="189" y="464" flags="0x4"/>
      <component glyphName="Aring" x="0" y="0" flags="0x4"/>
    </TTGlyph>
    <TTGlyph name="Atilde" xMin="38" yMin="0" xMax="672" yMax="905">
      <component glyphName="A" x="0" y="0" flags="0x204"/>
      <component glyphName="tilde" x="136" y="320" flags="0x4"/>
    </TTGlyph>
    <TTGlyph name="B" xMin="93" yMin="-8" xMax="526" yMax="742">
      <contour>
        <pt x="526" y="199" on="1"/>
        <pt x="526" y="158" on="0"/>
        <pt x="493" y="83" on="0"/>
        <pt x="426" y="26" on="0"/>
        <pt x="326" y="-8" on="0"/>
        <pt x="259" y="-8" on="1"/>
        <pt x="214" y="-8" on="0"/>
        <pt x="134" y="-1" on="0"/>
        <pt x="93" y="4" on="1"/>
        <pt x="93" y="730" on="1"/>
        <pt x="134" y="735" on="0"/>
        <pt x="207" y="742" on="0"/>
        <pt x="252" y="742" on="1"/>
        <pt x="318" y="742" on="0"/>
        <pt x="414" y="713" on="0"/>
        <pt x="478" y="664" on="0"/>
        <pt x="509" y="597" on="0"/>
        <pt x="509" y="558" on="1"/>
        <pt x="509" y="521" on="0"/>
        <pt x="482" y="462" on="0"/>
        <pt x="435" y="418" on="0"/>
        <pt x="371" y="388" on="0"/>
        <pt x="334" y="381" on="1"/>
        <pt x="423" y="370" on="0"/>
        <pt x="526" y="272" on="0"/>
      </contour>
      <contour>
        <pt x="477" y="556" on="1"/>
        <pt x="477" y="590" on="0"/>
        <pt x="450" y="647" on="0"/>
        <pt x="395" y="689" on="0"/>
        <pt x="310" y="713" on="0"/>
        <pt x="252" y="713" on="1"/>
        <pt x="216" y="713" on="0"/>
        <pt x="159" y="709" on="0"/>
        <pt x="126" y="704" on="1"/>
        <pt x="126" y="394" on="1"/>
        <pt x="158" y="393" on="0"/>
        <pt x="198" y="393" on="0"/>
        <pt x="221" y="393" on="1"/>
        <pt x="285" y="393" on="0"/>
        <pt x="381" y="417" on="0"/>
        <pt x="445" y="461" on="0"/>
        <pt x="477" y="521" on="0"/>
      </contour>
      <contour>
        <pt x="494" y="197" on="1"/>
        <pt x="494" y="278" on="0"/>
        <pt x="362" y="366" on="0"/>
        <pt x="228" y="366" on="1"/>
        <pt x="208" y="366" on="0"/>
        <pt x="160" y="366" on="0"/>
        <pt x="126" y="365" on="1"/>
        <pt x="126" y="30" on="1"/>
        <pt x="160" y="26" on="0"/>
        <pt x="223" y="21" on="0"/>
        <pt x="259" y="21" on="1"/>
        <pt x="316" y="21" on="0"/>
        <pt x="404" y="48" on="0"/>
        <pt x="464" y="96" on="0"/>
        <pt x="494" y="160" on="0"/>
      </contour>
    </TTGlyph>
    <TTGlyph name="C" xMin="61" yMin="-8" xMax="708" yMax="745">
      <contour>
        <pt x="704" y="81" on="1"/>
        <pt x="676" y="61" on="0"/>
        <pt x="619" y="29" on="0"/>
        <pt x="554" y="5" on="0"/>
        <pt x="482" y="-8" on="0"/>
        <pt x="439" y="-8" on="1"/>
        <pt x="365" y="-8" on="0"/>
        <pt x="229" y="41" on="0"/>
        <pt x="124" y="136" on="0"/>
        <pt x="61" y="275" on="0"/>
        <pt x="61" y="364" on="1"/>
        <pt x="61" y="454" on="0"/>
        <pt x="124" y="596" on="0"/>
        <pt x="230" y="694" on="0"/>
        <pt x="366" y="745" on="0"/>
        <pt x="440" y="745" on="1"/>
        <pt x="525" y="745" on="0"/>
        <pt x="652" y="694" on="0"/>
        <pt x="708" y="654" on="1"/>
        <pt x="691" y="628" on="1"/>
        <pt x="637" y="667" on="0"/>
        <pt x="519" y="715" on="0"/>
        <pt x="440" y="716" on="1"/>
        <pt x="375" y="716" on="0"/>
        <pt x="251" y="669" on="0"/>
        <pt x="154" y="580" on="0"/>
        <pt x="95" y="449" on="0"/>
        <pt x="95" y="365" on="1"/>
        <pt x="95" y="281" on="0"/>
        <pt x="154" y="153" on="0"/>
        <pt x="250" y="66" on="0"/>
        <pt x="374" y="21" on="0"/>
        <pt x="440" y="21" on="1"/>
        <pt x="517" y="21" on="0"/>
        <pt x="635" y="68" on="0"/>
        <pt x="689" y="105" on="1"/>
      </contour>
    </TTGlyph>
    <TTGlyph name="Cacute" xMin="61" yMin="-8" xMax="708" yMax="935">
      <component glyphName="C" x="0" y="0" flags="0x204"/>
      <component glyphName="acute" x="284" y="320" flags="0x4"/>
    </TTGlyph>
    <TTGlyph name="Ccaron" xMin="61" yMin="-8" xMax="708" yMax="943">
      <component glyphName="C" x="0" y="0" flags="0x204"/>
      <component glyphName="caron" x="211" y="320" flags="0x4"/>
    </TTGlyph>
    <TTGlyph name="Ccedilla" xMin="61" yMin="-237" xMax="708" yMax="745">
      <contour>
        <pt x="531" y="-154" on="1"/>
        <pt x="531" y="-187" on="0"/>
        <pt x="478" y="-237" on="0"/>
        <pt x="427" y="-237" on="1"/>
        <pt x="402" y="-237" on="0"/>
        <pt x="351" y="-219" on="0"/>
        <pt x="323" y="-205" on="1"/>
        <pt x="336" y="-179" on="1"/>
        <pt x="363" y="-193" on="0"/>
        <pt x="407" y="-209" on="0"/>
        <pt x="427" y="-209" on="1"/>
        <pt x="462" y="-209" on="0"/>
        <pt x="498" y="-180" on="0"/>
        <pt x="498" y="-155" on="1"/>
        <pt x="498" y="-129" on="0"/>
        <pt x="449" y="-89" on="0"/>
        <pt x="389" y="-82" on="1"/>
        <pt x="387" y="-78" on="1"/>
        <pt x="405" y="-6" on="1"/>
        <pt x="336" y="-1" on="0"/>
        <pt x="212" y="53" on="0"/>
        <pt x="117" y="147" on="0"/>
        <pt x="61" y="280" on="0"/>
        <pt x="61" y="364" on="1"/>
        <pt x="61" y="454" on="0"/>
        <pt x="124" y="596" on="0"/>
        <pt x="230" y="694" on="0"/>
        <pt x="366" y="745" on="0"/>
        <pt x="440" y="745" on="1"/>
        <pt x="525" y="745" on="0"/>
        <pt x="652" y="694" on="0"/>
        <pt x="708" y="654" on="1"/>
        <pt x="691" y="628" on="1"/>
        <pt x="637" y="667" on="0"/>
        <pt x="519" y="715" on="0"/>
        <pt x="440" y="716" on="1"/>
        <pt x="375" y="716" on="0"/>
        <pt x="251" y="669" on="0"/>
        <pt x="154" y="580" on="0"/>
        <pt x="95" y="449" on="0"/>
        <pt x="95" y="365" on="1"/>
        <pt x="95" y="281" on="0"/>
        <pt x="154" y="153" on="0"/>
        <pt x="250" y="66" on="0"/>
        <pt x="374" y="21" on="0"/>
        <pt x="440" y="21" on="1"/>
        <pt x="517" y="21" on="0"/>
        <pt x="635" y="68" on="0"/>
        <pt x="689" y="105" on="1"/>
        <pt x="704" y="81" on="1"/>
        <pt x="676" y="61" on="0"/>
        <pt x="619" y="29" on="0"/>
        <pt x="554" y="5" on="0"/>
        <pt x="482" y="-8" on="0"/>
        <pt x="439" y="-8" on="1"/>
        <pt x="434" y="-8" on="1"/>
        <pt x="421" y="-59" on="1"/>
        <pt x="475" y="-68" on="0"/>
        <pt x="531" y="-119" on="0"/>
      </contour>
    </TTGlyph>
    <TTGlyph name="Cdotaccent" xMin="61" yMin="-8" xMax="708" yMax="896">
      <component glyphName="C" x="0" y="0" flags="0x204"/>
      <component glyphName="dotaccent" x="211" y="320" flags="0x4"/>
    </TTGlyph>
    <TTGlyph name="D" xMin="93" yMin="-8" xMax="674" yMax="741">
      <contour>
        <pt x="674" y="373" on="1"/>
        <pt x="674" y="295" on="0"/>
        <pt x="620" y="157" on="0"/>
        <pt x="515" y="53" on="0"/>
        <pt x="360" y="-8" on="0"/>
        <pt x="259" y="-8" on="1"/>
        <pt x="210" y="-8" on="0"/>
        <pt x="119" y="-1" on="0"/>
        <pt x="93" y="3" on="1"/>
        <pt x="93" y="730" on="1"/>
        <pt x="119" y="734" on="0"/>
        <pt x="210" y="741" on="0"/>
        <pt x="259" y="741" on="1"/>
        <pt x="360" y="741" on="0"/>
        <pt x="515" y="679" on="0"/>
        <pt x="620" y="576" on="0"/>
        <pt x="674" y="443" on="0"/>
      </contour>
      <contour>
        <pt x="640" y="373" on="1"/>
        <pt x="640" y="440" on="0"/>
        <pt x="589" y="563" on="0"/>
        <pt x="491" y="656" on="0"/>
        <pt x="347" y="712" on="0"/>
        <pt x="254" y="712" on="1"/>
        <pt x="216" y="712" on="0"/>
        <pt x="149" y="707" on="0"/>
        <pt x="126" y="704" on="1"/>
        <pt x="126" y="29" on="1"/>
        <pt x="149" y="26" on="0"/>
        <pt x="216" y="21" on="0"/>
        <pt x="254" y="21" on="1"/>
        <pt x="348" y="21" on="0"/>
        <pt x="492" y="75" on="0"/>
        <pt x="590" y="170" on="0"/>
        <pt x="640" y="299" on="0"/>
      </contour>
    </TTGlyph>
    <TTGlyph name="Dcaron" xMin="93" yMin="-8" xMax="674" yMax="943">
      <component glyphName="D" x="0" y="0" flags="0x204"/>
      <component glyphName="caron" x="123" y="320" flags="0x4"/>
    </TTGlyph>
    <TTGlyph name="Dcroat" xMin="50" yMin="-8" xMax="714" yMax="741">
      <component glyphName="Eth" x="0" y="0" flags="0x204"/>
    </TTGlyph>
    <TTGlyph name="E" xMin="93" yMin="0" xMax="492" yMax="733">
      <contour>
        <pt x="93" y="0" on="1"/>
        <pt x="93" y="733" on="1"/>
        <pt x="492" y="733" on="1"/>
        <pt x="492" y="704" on="1"/>
        <pt x="126" y="704" on="1"/>
        <pt x="126" y="386" on="1"/>
        <pt x="457" y="386" on="1"/>
        <pt x="457" y="358" on="1"/>
        <pt x="126" y="358" on="1"/>
        <pt x="126" y="29" on="1"/>
        <pt x="492" y="29" on="1"/>
        <pt x="492" y="0" on="1"/>
      </contour>
    </TTGlyph>
    <TTGlyph name="Eacute" xMin="93" yMin="0" xMax="492" yMax="935">
      <component glyphName="E" x="0" y="0" flags="0x204"/>
      <component glyphName="acute" x="145" y="320" flags="0x4"/>
    </TTGlyph>
    <TTGlyph name="Ebreve" xMin="93" yMin="0" xMax="492" yMax="935">
      <component glyphName="E" x="0" y="0" flags="0x204"/>
      <component glyphName="breve" x="73" y="320" flags="0x4"/>
    </TTGlyph>
    <TTGlyph name="Ecaron" xMin="93" yMin="0" xMax="492" yMax="943">
      <component glyphName="E" x="0" y="0" flags="0x204"/>
      <component glyphName="caron" x="72" y="320" flags="0x4"/>
    </TTGlyph>
    <TTGlyph name="Ecircumflex" xMin="93" yMin="0" xMax="492" yMax="942">
      <component glyphName="E" x="0" y="0" flags="0x204"/>
      <component glyphName="circumflex" x="72" y="320" flags="0x4"/>
    </TTGlyph>
    <TTGlyph name="Edieresis" xMin="93" yMin="0" xMax="492" yMax="896">
      <component glyphName="E" x="0" y="0" flags="0x204"/>
      <component glyphName="dieresis" x="72" y="320" flags="0x4"/>
    </TTGlyph>
    <TTGlyph name="Edotaccent" xMin="93" yMin="0" xMax="492" yMax="896">
      <component glyphName="E" x="0" y="0" flags="0x204"/>
      <component glyphName="dotaccent" x="72" y="320" flags="0x4"/>
    </TTGlyph>
    <TTGlyph name="Egrave" xMin="93" yMin="0" xMax="492" yMax="935">
      <component glyphName="E" x="0" y="0" flags="0x204"/>
      <component glyphName="grave" x="-6" y="320" flags="0x4"/>
    </TTGlyph>
    <TTGlyph name="Emacron" xMin="93" yMin="0" xMax="492" yMax="872">
      <component glyphName="E" x="0" y="0" flags="0x204"/>
      <component glyphName="macron" x="73" y="320" flags="0x4"/>
    </TTGlyph>
    <TTGlyph name="Eogonek" xMin="93" yMin="-219" xMax="492" yMax="733">
      <contour>
        <pt x="487" y="-169" on="1"/>
        <pt x="472" y="-191" on="0"/>
        <pt x="432" y="-219" on="0"/>
        <pt x="402" y="-219" on="1"/>
        <pt x="370" y="-219" on="0"/>
        <pt x="329" y="-182" on="0"/>
        <pt x="329" y="-147" on="1"/>
        <pt x="329" y="-109" on="0"/>
        <pt x="377" y="-39" on="0"/>
        <pt x="416" y="0" on="1"/>
        <pt x="93" y="0" on="1"/>
        <pt x="93" y="733" on="1"/>
        <pt x="492" y="733" on="1"/>
        <pt x="492" y="704" on="1"/>
        <pt x="126" y="704" on="1"/>
        <pt x="126" y="386" on="1"/>
        <pt x="457" y="386" on="1"/>
        <pt x="457" y="358" on="1"/>
        <pt x="126" y="358" on="1"/>
        <pt x="126" y="29" on="1"/>
        <pt x="492" y="29" on="1"/>
        <pt x="492" y="0" on="1"/>
        <pt x="455" y="0" on="1"/>
        <pt x="437" y="-17" on="0"/>
        <pt x="402" y="-53" on="0"/>
        <pt x="375" y="-90" on="0"/>
        <pt x="359" y="-127" on="0"/>
        <pt x="359" y="-145" on="1"/>
        <pt x="359" y="-168" on="0"/>
        <pt x="385" y="-192" on="0"/>
        <pt x="404" y="-192" on="1"/>
        <pt x="425" y="-192" on="0"/>
        <pt x="456" y="-169" on="0"/>
        <pt x="468" y="-152" on="1"/>
      </contour>
    </TTGlyph>
    <TTGlyph name="Eth" xMin="50" yMin="-8" xMax="714" yMax="741">
      <contour>
        <pt x="714" y="373" on="1"/>
        <pt x="714" y="295" on="0"/>
        <pt x="660" y="157" on="0"/>
        <pt x="555" y="53" on="0"/>
        <pt x="400" y="-8" on="0"/>
        <pt x="299" y="-8" on="1"/>
        <pt x="250" y="-8" on="0"/>
        <pt x="159" y="-1" on="0"/>
        <pt x="133" y="3" on="1"/>
        <pt x="133" y="359" on="1"/>
        <pt x="50" y="359" on="1"/>
        <pt x="50" y="388" on="1"/>
        <pt x="133" y="388" on="1"/>
        <pt x="133" y="730" on="1"/>
        <pt x="159" y="734" on="0"/>
        <pt x="250" y="741" on="0"/>
        <pt x="299" y="741" on="1"/>
        <pt x="400" y="741" on="0"/>
        <pt x="555" y="679" on="0"/>
        <pt x="660" y="576" on="0"/>
        <pt x="714" y="443" on="0"/>
      </contour>
      <contour>
        <pt x="680" y="373" on="1"/>
        <pt x="680" y="440" on="0"/>
        <pt x="629" y="563" on="0"/>
        <pt x="531" y="656" on="0"/>
        <pt x="387" y="712" on="0"/>
        <pt x="294" y="712" on="1"/>
        <pt x="256" y="712" on="0"/>
        <pt x="189" y="707" on="0"/>
        <pt x="166" y="704" on="1"/>
        <pt x="166" y="388" on="1"/>
        <pt x="329" y="388" on="1"/>
        <pt x="329" y="359" on="1"/>
        <pt x="166" y="359" on="1"/>
        <pt x="166" y="29" on="1"/>
        <pt x="189" y="26" on="0"/>
        <pt x="256" y="21" on="0"/>
        <pt x="294" y="21" on="1"/>
        <pt x="388" y="21" on="0"/>
        <pt x="532" y="75" on="0"/>
        <pt x="630" y="170" on="0"/>
        <pt x="680" y="299" on="0"/>
      </contour>
    </TTGlyph>
    <TTGlyph name="Euro" xMin="28" yMin="-7" xMax="580" yMax="585">
      <contour>
        <pt x="28" y="337" on="1"/>
        <pt x="28" y="366" on="1"/>
        <pt x="104" y="366" on="1"/>
        <pt x="117" y="418" on="0"/>
        <pt x="173" y="500" on="0"/>
        <pt x="251" y="556" on="0"/>
        <pt x="344" y="585" on="0"/>
        <pt x="394" y="585" on="1"/>
        <pt x="451" y="585" on="0"/>
        <pt x="542" y="556" on="0"/>
        <pt x="580" y="531" on="1"/>
        <pt x="566" y="503" on="1"/>
        <pt x="529" y="527" on="0"/>
        <pt x="446" y="557" on="0"/>
        <pt x="392" y="557" on="1"/>
        <pt x="349" y="557" on="0"/>
        <pt x="268" y="532" on="0"/>
        <pt x="200" y="483" on="0"/>
        <pt x="150" y="412" on="0"/>
        <pt x="138" y="366" on="1"/>
        <pt x="467" y="366" on="1"/>
        <pt x="467" y="337" on="1"/>
        <pt x="132" y="337" on="1"/>
        <pt x="130" y="325" on="0"/>
        <pt x="128" y="300" on="0"/>
        <pt x="128" y="286" on="1"/>
        <pt x="128" y="259" on="0"/>
        <pt x="131" y="237" on="1"/>
        <pt x="467" y="237" on="1"/>
        <pt x="467" y="208" on="1"/>
        <pt x="138" y="208" on="1"/>
        <pt x="150" y="162" on="0"/>
        <pt x="201" y="93" on="0"/>
        <pt x="269" y="46" on="0"/>
        <pt x="351" y="22" on="0"/>
        <pt x="394" y="22" on="1"/>
        <pt x="447" y="22" on="0"/>
        <pt x="532" y="52" on="0"/>
        <pt x="570" y="76" on="1"/>
        <pt x="580" y="48" on="1"/>
        <pt x="542" y="24" on="0"/>
        <pt x="452" y="-7" on="0"/>
        <pt x="393" y="-7" on="1"/>
        <pt x="343" y="-7" on="0"/>
        <pt x="249" y="21" on="0"/>
        <pt x="172" y="76" on="0"/>
        <pt x="116" y="156" on="0"/>
        <pt x="104" y="208" on="1"/>
        <pt x="28" y="208" on="1"/>
        <pt x="28" y="237" on="1"/>
        <pt x="97" y="237" on="1"/>
        <pt x="96" y="249" on="0"/>
        <pt x="95" y="272" on="0"/>
        <pt x="95" y="286" on="1"/>
        <pt x="95" y="313" on="0"/>
        <pt x="98" y="337" on="1"/>
      </contour>
    </TTGlyph>
    <TTGlyph name="Euro.lin" xMin="35" yMin="-8" xMax="736" yMax="742">
      <contour>
        <pt x="35" y="428" on="1"/>
        <pt x="35" y="459" on="1"/>
        <pt x="132" y="459" on="1"/>
        <pt x="148" y="527" on="0"/>
        <pt x="219" y="632" on="0"/>
        <pt x="318" y="704" on="0"/>
        <pt x="437" y="742" on="0"/>
        <pt x="500" y="742" on="1"/>
        <pt x="574" y="742" on="0"/>
        <pt x="686" y="705" on="0"/>
        <pt x="736" y="673" on="1"/>
        <pt x="722" y="644" on="1"/>
        <pt x="674" y="675" on="0"/>
        <pt x="568" y="712" on="0"/>
        <pt x="499" y="713" on="1"/>
        <pt x="444" y="713" on="0"/>
        <pt x="338" y="680" on="0"/>
        <pt x="248" y="615" on="0"/>
        <pt x="181" y="520" on="0"/>
        <pt x="166" y="459" on="1"/>
        <pt x="594" y="459" on="1"/>
        <pt x="594" y="428" on="1"/>
        <pt x="160" y="428" on="1"/>
        <pt x="158" y="412" on="0"/>
        <pt x="155" y="380" on="0"/>
        <pt x="155" y="363" on="1"/>
        <pt x="155" y="346" on="0"/>
        <pt x="158" y="315" on="0"/>
        <pt x="160" y="300" on="1"/>
        <pt x="594" y="300" on="1"/>
        <pt x="594" y="269" on="1"/>
        <pt x="166" y="269" on="1"/>
        <pt x="181" y="208" on="0"/>
        <pt x="248" y="116" on="0"/>
        <pt x="337" y="53" on="0"/>
        <pt x="444" y="21" on="0"/>
        <pt x="500" y="21" on="1"/>
        <pt x="569" y="21" on="0"/>
        <pt x="676" y="59" on="0"/>
        <pt x="725" y="91" on="1"/>
        <pt x="736" y="62" on="1"/>
        <pt x="686" y="30" on="0"/>
        <pt x="574" y="-8" on="0"/>
        <pt x="499" y="-8" on="1"/>
        <pt x="435" y="-8" on="0"/>
        <pt x="316" y="28" on="0"/>
        <pt x="217" y="99" on="0"/>
        <pt x="146" y="202" on="0"/>
        <pt x="131" y="269" on="1"/>
        <pt x="35" y="269" on="1"/>
        <pt x="35" y="300" on="1"/>
        <pt x="126" y="300" on="1"/>
        <pt x="124" y="315" on="0"/>
        <pt x="122" y="345" on="0"/>
        <pt x="122" y="362" on="1"/>
        <pt x="122" y="379" on="0"/>
        <pt x="125" y="412" on="0"/>
        <pt x="127" y="428" on="1"/>
      </contour>
    </TTGlyph>
    <TTGlyph name="F" xMin="93" yMin="0" xMax="492" yMax="733">
      <contour>
        <pt x="126" y="704" on="1"/>
        <pt x="126" y="373" on="1"/>
        <pt x="457" y="373" on="1"/>
        <pt x="457" y="345" on="1"/>
        <pt x="126" y="345" on="1"/>
        <pt x="126" y="0" on="1"/>
        <pt x="93" y="0" on="1"/>
        <pt x="93" y="733" on="1"/>
        <pt x="492" y="733" on="1"/>
        <pt x="492" y="704" on="1"/>
      </contour>
    </TTGlyph>
    <TTGlyph name="G" xMin="61" yMin="-8" xMax="709" yMax="745">
      <contour>
        <pt x="709" y="334" on="1"/>
        <pt x="709" y="85" on="1"/>
        <pt x="655" y="40" on="0"/>
        <pt x="525" y="-8" on="0"/>
        <pt x="445" y="-8" on="1"/>
        <pt x="371" y="-8" on="0"/>
        <pt x="233" y="40" on="0"/>
        <pt x="126" y="134" on="0"/>
        <pt x="61" y="273" on="0"/>
        <pt x="61" y="365" on="1"/>
        <pt x="61" y="455" on="0"/>
        <pt x="124" y="597" on="0"/>
        <pt x="230" y="694" on="0"/>
        <pt x="366" y="745" on="0"/>
        <pt x="440" y="745" on="1"/>
        <pt x="483" y="745" on="0"/>
        <pt x="556" y="732" on="0"/>
        <pt x="621" y="708" on="0"/>
        <pt x="679" y="674" on="0"/>
        <pt x="708" y="654" on="1"/>
        <pt x="690" y="628" on="1"/>
        <pt x="636" y="667" on="0"/>
        <pt x="518" y="715" on="0"/>
        <pt x="439" y="716" on="1"/>
        <pt x="374" y="716" on="0"/>
        <pt x="250" y="670" on="0"/>
        <pt x="154" y="580" on="0"/>
        <pt x="95" y="450" on="0"/>
        <pt x="95" y="366" on="1"/>
        <pt x="95" y="282" on="0"/>
        <pt x="152" y="154" on="0"/>
        <pt x="249" y="66" on="0"/>
        <pt x="377" y="21" on="0"/>
        <pt x="447" y="21" on="1"/>
        <pt x="516" y="21" on="0"/>
        <pt x="632" y="63" on="0"/>
        <pt x="676" y="99" on="1"/>
        <pt x="676" y="305" on="1"/>
        <pt x="452" y="305" on="1"/>
        <pt x="452" y="334" on="1"/>
      </contour>
    </TTGlyph>
    <TTGlyph name="G.alt" xMin="61" yMin="-8" xMax="776" yMax="745">
      <contour>
        <pt x="776" y="345" on="1"/>
        <pt x="776" y="265" on="0"/>
        <pt x="721" y="135" on="0"/>
        <pt x="627" y="42" on="0"/>
        <pt x="504" y="-8" on="0"/>
        <pt x="435" y="-8" on="1"/>
        <pt x="363" y="-8" on="0"/>
        <pt x="229" y="42" on="0"/>
        <pt x="124" y="137" on="0"/>
        <pt x="61" y="276" on="0"/>
        <pt x="61" y="365" on="1"/>
        <pt x="61" y="455" on="0"/>
        <pt x="124" y="597" on="0"/>
        <pt x="230" y="694" on="0"/>
        <pt x="366" y="745" on="0"/>
        <pt x="440" y="745" on="1"/>
        <pt x="483" y="745" on="0"/>
        <pt x="556" y="732" on="0"/>
        <pt x="621" y="708" on="0"/>
        <pt x="679" y="674" on="0"/>
        <pt x="708" y="654" on="1"/>
        <pt x="690" y="628" on="1"/>
        <pt x="636" y="667" on="0"/>
        <pt x="518" y="715" on="0"/>
        <pt x="439" y="716" on="1"/>
        <pt x="374" y="716" on="0"/>
        <pt x="250" y="670" on="0"/>
        <pt x="154" y="580" on="0"/>
        <pt x="95" y="450" on="0"/>
        <pt x="95" y="366" on="1"/>
        <pt x="95" y="283" on="0"/>
        <pt x="153" y="154" on="0"/>
        <pt x="249" y="66" on="0"/>
        <pt x="372" y="21" on="0"/>
        <pt x="438" y="21" on="1"/>
        <pt x="497" y="21" on="0"/>
        <pt x="604" y="64" on="0"/>
        <pt x="687" y="142" on="0"/>
        <pt x="739" y="250" on="0"/>
        <pt x="742" y="316" on="1"/>
        <pt x="416" y="316" on="1"/>
        <pt x="416" y="345" on="1"/>
      </contour>
    </TTGlyph>
    <TTGlyph name="Gbreve" xMin="61" yMin="-8" xMax="709" yMax="935">
      <component glyphName="G" x="0" y="0" flags="0x204"/>
      <component glyphName="breve" x="206" y="320" flags="0x4"/>
    </TTGlyph>
    <TTGlyph name="Gbreve.alt" xMin="61" yMin="-8" xMax="776" yMax="935">
      <component glyphName="G.alt" x="0" y="0" flags="0x204"/>
      <component glyphName="breve" x="226" y="320" flags="0x4"/>
    </TTGlyph>
    <TTGlyph name="Gcommaaccent" xMin="61" yMin="-236" xMax="709" yMax="745">
      <component glyphName="G" x="0" y="0" flags="0x204"/>
      <component glyphName="commaaccent" x="324" y="0" flags="0x4"/>
    </TTGlyph>
    <TTGlyph name="Gcommaaccent.alt" xMin="61" yMin="-236" xMax="776" yMax="745">
      <component glyphName="G.alt" x="0" y="0" flags="0x204"/>
      <component glyphName="commaaccent" x="344" y="0" flags="0x4"/>
    </TTGlyph>
    <TTGlyph name="Gdotaccent" xMin="61" yMin="-8" xMax="709" yMax="896">
      <component glyphName="G" x="0" y="0" flags="0x204"/>
      <component glyphName="dotaccent" x="205" y="320" flags="0x4"/>
    </TTGlyph>
    <TTGlyph name="Gdotaccent.alt" xMin="61" yMin="-8" xMax="776" yMax="896">
      <component glyphName="G.alt" x="0" y="0" flags="0x204"/>
      <component glyphName="dotaccent" x="225" y="320" flags="0x4"/>
    </TTGlyph>
    <TTGlyph name="H" xMin="93" yMin="0" xMax="608" yMax="733">
      <contour>
        <pt x="93" y="733" on="1"/>
        <pt x="126" y="733" on="1"/>
        <pt x="126" y="388" on="1"/>
        <pt x="575" y="388" on="1"/>
        <pt x="575" y="733" on="1"/>
        <pt x="608" y="733" on="1"/>
        <pt x="608" y="0" on="1"/>
        <pt x="575" y="0" on="1"/>
        <pt x="575" y="359" on="1"/>
        <pt x="126" y="359" on="1"/>
        <pt x="126" y="0" on="1"/>
        <pt x="93" y="0" on="1"/>
      </contour>
    </TTGlyph>
    <TTGlyph name="Hbar" xMin="24" yMin="0" xMax="697" yMax="733">
      <contour>
        <pt x="585" y="0" on="1"/>
        <pt x="585" y="359" on="1"/>
        <pt x="136" y="359" on="1"/>
        <pt x="136" y="0" on="1"/>
        <pt x="103" y="0" on="1"/>
        <pt x="103" y="564" on="1"/>
        <pt x="24" y="564" on="1"/>
        <pt x="24" y="592" on="1"/>
        <pt x="103" y="592" on="1"/>
        <pt x="103" y="733" on="1"/>
        <pt x="136" y="733" on="1"/>
        <pt x="136" y="592" on="1"/>
        <pt x="585" y="592" on="1"/>
        <pt x="585" y="733" on="1"/>
        <pt x="618" y="733" on="1"/>
        <pt x="618" y="592" on="1"/>
        <pt x="697" y="592" on="1"/>
        <pt x="697" y="564" on="1"/>
        <pt x="618" y="564" on="1"/>
        <pt x="618" y="0" on="1"/>
      </contour>
      <contour>
        <pt x="585" y="388" on="1"/>
        <pt x="585" y="564" on="1"/>
        <pt x="136" y="564" on="1"/>
        <pt x="136" y="388" on="1"/>
      </contour>
    </TTGlyph>
    <TTGlyph name="I" xMin="96" yMin="0" xMax="129" yMax="733">
      <contour>
        <pt x="96" y="0" on="1"/>
        <pt x="96" y="733" on="1"/>
        <pt x="129" y="733" on="1"/>
        <pt x="129" y="0" on="1"/>
      </contour>
    </TTGlyph>
    <TTGlyph name="Iacute" xMin="80" yMin="0" xMax="286" yMax="935">
      <component glyphName="I" x="0" y="0" flags="0x204"/>
      <component glyphName="acute" x="-34" y="320" flags="0x4"/>
    </TTGlyph>
    <TTGlyph name="Ibreve" xMin="-9" yMin="0" xMax="236" yMax="935">
      <component glyphName="I" x="0" y="0" flags="0x204"/>
      <component glyphName="breve" x="-106" y="320" flags="0x4"/>
    </TTGlyph>
    <TTGlyph name="Icircumflex" xMin="-12" yMin="0" xMax="238" yMax="942">
      <component glyphName="I" x="0" y="0" flags="0x204"/>
      <component glyphName="circumflex" x="-107" y="320" flags="0x4"/>
    </TTGlyph>
    <TTGlyph name="Idieresis" xMin="-5" yMin="0" xMax="231" yMax="896">
      <component glyphName="I" x="0" y="0" flags="0x204"/>
      <component glyphName="dieresis" x="-107" y="320" flags="0x4"/>
    </TTGlyph>
    <TTGlyph name="Idotaccent" xMin="79" yMin="0" xMax="147" yMax="896">
      <component glyphName="I" x="0" y="0" flags="0x204"/>
      <component glyphName="dotaccent" x="-107" y="320" flags="0x4"/>
    </TTGlyph>
    <TTGlyph name="Igrave" xMin="-66" yMin="0" xMax="140" yMax="935">
      <component glyphName="I" x="0" y="0" flags="0x204"/>
      <component glyphName="grave" x="-186" y="320" flags="0x4"/>
    </TTGlyph>
    <TTGlyph name="Imacron" xMin="-30" yMin="0" xMax="257" yMax="872">
      <component glyphName="I" x="0" y="0" flags="0x204"/>
      <component glyphName="macron" x="-106" y="320" flags="0x4"/>
    </TTGlyph>
    <TTGlyph name="Iogonek" xMin="25" yMin="-219" xMax="183" yMax="733">
      <contour>
        <pt x="183" y="-167" on="1"/>
        <pt x="168" y="-189" on="0"/>
        <pt x="126" y="-219" on="0"/>
        <pt x="96" y="-219" on="1"/>
        <pt x="65" y="-219" on="0"/>
        <pt x="25" y="-180" on="0"/>
        <pt x="25" y="-144" on="1"/>
        <pt x="25" y="-109" on="0"/>
        <pt x="63" y="-39" on="0"/>
        <pt x="96" y="2" on="1"/>
        <pt x="96" y="733" on="1"/>
        <pt x="129" y="733" on="1"/>
        <pt x="129" y="0" on="1"/>
        <pt x="97" y="-38" on="0"/>
        <pt x="55" y="-108" on="0"/>
        <pt x="55" y="-143" on="1"/>
        <pt x="55" y="-166" on="0"/>
        <pt x="81" y="-192" on="0"/>
        <pt x="98" y="-192" on="1"/>
        <pt x="121" y="-192" on="0"/>
        <pt x="151" y="-169" on="0"/>
        <pt x="164" y="-151" on="1"/>
      </contour>
    </TTGlyph>
    <TTGlyph name="J" xMin="20" yMin="-12" xMax="385" yMax="733">
      <contour>
        <pt x="385" y="218" on="1"/>
        <pt x="385" y="106" on="0"/>
        <pt x="278" y="-12" on="0"/>
        <pt x="188" y="-12" on="1"/>
        <pt x="132" y="-12" on="0"/>
        <pt x="50" y="22" on="0"/>
        <pt x="20" y="47" on="1"/>
        <pt x="39" y="72" on="1"/>
        <pt x="66" y="49" on="0"/>
        <pt x="139" y="18" on="0"/>
        <pt x="188" y="18" on="1"/>
        <pt x="224" y="18" on="0"/>
        <pt x="284" y="43" on="0"/>
        <pt x="327" y="94" on="0"/>
        <pt x="352" y="168" on="0"/>
        <pt x="352" y="218" on="1"/>
        <pt x="352" y="733" on="1"/>
        <pt x="385" y="733" on="1"/>
      </contour>
    </TTGlyph>
    <TTGlyph name="K" xMin="93" yMin="0" xMax="548" yMax="733">
      <contour>
        <pt x="504" y="0" on="1"/>
        <pt x="126" y="363" on="1"/>
        <pt x="126" y="0" on="1"/>
        <pt x="93" y="0" on="1"/>
        <pt x="93" y="733" on="1"/>
        <pt x="126" y="733" on="1"/>
        <pt x="126" y="391" on="1"/>
        <pt x="492" y="733" on="1"/>
        <pt x="535" y="733" on="1"/>
        <pt x="154" y="377" on="1"/>
        <pt x="548" y="0" on="1"/>
      </contour>
    </TTGlyph>
    <TTGlyph name="Kcommaaccent" xMin="93" yMin="-226" xMax="548" yMax="733">
      <component glyphName="K" x="0" y="0" flags="0x204"/>
      <component glyphName="commaaccent" x="199" y="10" flags="0x4"/>
    </TTGlyph>
    <TTGlyph name="L" xMin="93" yMin="0" xMax="492" yMax="733">
      <contour>
        <pt x="93" y="0" on="1"/>
        <pt x="93" y="733" on="1"/>
        <pt x="126" y="733" on="1"/>
        <pt x="126" y="29" on="1"/>
        <pt x="492" y="29" on="1"/>
        <pt x="492" y="0" on="1"/>
      </contour>
    </TTGlyph>
    <TTGlyph name="Lacute" xMin="93" yMin="0" xMax="492" yMax="935">
      <component glyphName="L" x="0" y="0" flags="0x204"/>
      <component glyphName="acute" x="-20" y="320" flags="0x4"/>
    </TTGlyph>
    <TTGlyph name="Lcaron" xMin="93" yMin="0" xMax="492" yMax="733">
      <component glyphName="L" x="0" y="0" flags="0x204"/>
      <component glyphName="caron.alt" x="163" y="-3" flags="0x4"/>
    </TTGlyph>
    <TTGlyph name="Lcommaaccent" xMin="93" yMin="-236" xMax="492" yMax="733">
      <component glyphName="L" x="0" y="0" flags="0x204"/>
      <component glyphName="commaaccent" x="191" y="0" flags="0x4"/>
    </TTGlyph>
    <TTGlyph name="Ldot" xMin="93" yMin="0" xMax="492" yMax="733">
      <contour>
        <pt x="93" y="0" on="1"/>
        <pt x="93" y="733" on="1"/>
        <pt x="126" y="733" on="1"/>
        <pt x="126" y="29" on="1"/>
        <pt x="492" y="29" on="1"/>
        <pt x="492" y="0" on="1"/>
      </contour>
      <contour>
        <pt x="325" y="366" on="1"/>
        <pt x="325" y="380" on="0"/>
        <pt x="345" y="401" on="0"/>
        <pt x="359" y="401" on="1"/>
        <pt x="373" y="401" on="0"/>
        <pt x="393" y="380" on="0"/>
        <pt x="393" y="366" on="1"/>
        <pt x="393" y="352" on="0"/>
        <pt x="373" y="332" on="0"/>
        <pt x="359" y="332" on="1"/>
        <pt x="345" y="332" on="0"/>
        <pt x="325" y="352" on="0"/>
      </contour>
    </TTGlyph>
    <TTGlyph name="Lslash" xMin="62" yMin="0" xMax="532" yMax="733">
      <contour>
        <pt x="133" y="0" on="1"/>
        <pt x="133" y="348" on="1"/>
        <pt x="62" y="316" on="1"/>
        <pt x="62" y="345" on="1"/>
        <pt x="133" y="377" on="1"/>
        <pt x="133" y="733" on="1"/>
        <pt x="166" y="733" on="1"/>
        <pt x="166" y="392" on="1"/>
        <pt x="287" y="447" on="1"/>
        <pt x="287" y="418" on="1"/>
        <pt x="166" y="363" on="1"/>
        <pt x="166" y="29" on="1"/>
        <pt x="532" y="29" on="1"/>
        <pt x="532" y="0" on="1"/>
      </contour>
    </TTGlyph>
    <TTGlyph name="M" xMin="82" yMin="0" xMax="756" yMax="740">
      <contour>
        <pt x="724" y="0" on="1"/>
        <pt x="710" y="653" on="1"/>
        <pt x="423" y="134" on="1"/>
        <pt x="415" y="134" on="1"/>
        <pt x="129" y="654" on="1"/>
        <pt x="114" y="0" on="1"/>
        <pt x="82" y="0" on="1"/>
        <pt x="104" y="739" on="1"/>
        <pt x="115" y="740" on="1"/>
        <pt x="420" y="183" on="1"/>
        <pt x="724" y="740" on="1"/>
        <pt x="735" y="739" on="1"/>
        <pt x="756" y="0" on="1"/>
      </contour>
    </TTGlyph>
    <TTGlyph name="M.alt" xMin="82" yMin="0" xMax="756" yMax="740">
      <contour>
        <pt x="724" y="0" on="1"/>
        <pt x="710" y="663" on="1"/>
        <pt x="423" y="204" on="1"/>
        <pt x="414" y="204" on="1"/>
        <pt x="130" y="664" on="1"/>
        <pt x="114" y="0" on="1"/>
        <pt x="82" y="0" on="1"/>
        <pt x="104" y="739" on="1"/>
        <pt x="115" y="740" on="1"/>
        <pt x="420" y="249" on="1"/>
        <pt x="724" y="740" on="1"/>
        <pt x="735" y="739" on="1"/>
        <pt x="756" y="0" on="1"/>
      </contour>
    </TTGlyph>
    <TTGlyph name="N" xMin="93" yMin="-7" xMax="634" yMax="740">
      <contour>
        <pt x="623" y="-7" on="1"/>
        <pt x="124" y="665" on="1"/>
        <pt x="124" y="0" on="1"/>
        <pt x="93" y="0" on="1"/>
        <pt x="93" y="739" on="1"/>
        <pt x="104" y="740" on="1"/>
        <pt x="601" y="71" on="1"/>
        <pt x="601" y="733" on="1"/>
        <pt x="634" y="733" on="1"/>
        <pt x="634" y="-6" on="1"/>
      </contour>
    </TTGlyph>
    <TTGlyph name="Nacute" xMin="93" yMin="-7" xMax="634" yMax="925">
      <component glyphName="N" x="0" y="0" flags="0x204"/>
      <component glyphName="acute" x="216" y="310" flags="0x4"/>
    </TTGlyph>
    <TTGlyph name="Ncaron" xMin="93" yMin="-7" xMax="634" yMax="933">
      <component glyphName="N" x="0" y="0" flags="0x204"/>
      <component glyphName="caron" x="143" y="310" flags="0x4"/>
    </TTGlyph>
    <TTGlyph name="Ncommaaccent" xMin="93" yMin="-226" xMax="634" yMax="740">
      <component glyphName="N" x="0" y="0" flags="0x204"/>
      <component glyphName="commaaccent" x="262" y="10" flags="0x4"/>
    </TTGlyph>
    <TTGlyph name="Ntilde" xMin="93" yMin="-7" xMax="634" yMax="895">
      <component glyphName="N" x="0" y="0" flags="0x204"/>
      <component glyphName="tilde" x="144" y="310" flags="0x4"/>
    </TTGlyph>
    <TTGlyph name="O" xMin="61" yMin="-8" xMax="781" yMax="742">
      <contour>
        <pt x="421" y="-8" on="1"/>
        <pt x="344" y="-8" on="0"/>
        <pt x="212" y="49" on="0"/>
        <pt x="116" y="149" on="0"/>
        <pt x="61" y="286" on="0"/>
        <pt x="61" y="366" on="1"/>
        <pt x="61" y="446" on="0"/>
        <pt x="116" y="584" on="0"/>
        <pt x="212" y="685" on="0"/>
        <pt x="344" y="742" on="0"/>
        <pt x="421" y="742" on="1"/>
        <pt x="498" y="742" on="0"/>
        <pt x="630" y="685" on="0"/>
        <pt x="726" y="584" on="0"/>
        <pt x="781" y="446" on="0"/>
        <pt x="781" y="366" on="1"/>
        <pt x="781" y="286" on="0"/>
        <pt x="726" y="149" on="0"/>
        <pt x="630" y="49" on="0"/>
        <pt x="498" y="-8" on="0"/>
      </contour>
      <contour>
        <pt x="421" y="21" on="1"/>
        <pt x="492" y="21" on="0"/>
        <pt x="611" y="74" on="0"/>
        <pt x="698" y="166" on="0"/>
        <pt x="747" y="292" on="0"/>
        <pt x="747" y="366" on="1"/>
        <pt x="747" y="439" on="0"/>
        <pt x="698" y="566" on="0"/>
        <pt x="611" y="660" on="0"/>
        <pt x="492" y="713" on="0"/>
        <pt x="421" y="713" on="1"/>
        <pt x="350" y="713" on="0"/>
        <pt x="231" y="660" on="0"/>
        <pt x="144" y="566" on="0"/>
        <pt x="95" y="439" on="0"/>
        <pt x="95" y="366" on="1"/>
        <pt x="95" y="292" on="0"/>
        <pt x="144" y="166" on="0"/>
        <pt x="231" y="74" on="0"/>
        <pt x="350" y="21" on="0"/>
      </contour>
    </TTGlyph>
    <TTGlyph name="OE" xMin="61" yMin="-7" xMax="996" yMax="742">
      <contour>
        <pt x="609" y="0" on="1"/>
        <pt x="582" y="-3" on="0"/>
        <pt x="512" y="-7" on="0"/>
        <pt x="476" y="-7" on="1"/>
        <pt x="375" y="-7" on="0"/>
        <pt x="220" y="55" on="0"/>
        <pt x="115" y="158" on="0"/>
        <pt x="61" y="291" on="0"/>
        <pt x="61" y="361" on="1"/>
        <pt x="61" y="439" on="0"/>
        <pt x="115" y="577" on="0"/>
        <pt x="220" y="681" on="0"/>
        <pt x="375" y="742" on="0"/>
        <pt x="476" y="742" on="1"/>
        <pt x="518" y="742" on="0"/>
        <pt x="599" y="736" on="0"/>
        <pt x="627" y="733" on="1"/>
        <pt x="996" y="733" on="1"/>
        <pt x="996" y="704" on="1"/>
        <pt x="630" y="704" on="1"/>
        <pt x="630" y="386" on="1"/>
        <pt x="961" y="386" on="1"/>
        <pt x="961" y="358" on="1"/>
        <pt x="630" y="358" on="1"/>
        <pt x="630" y="29" on="1"/>
        <pt x="996" y="29" on="1"/>
        <pt x="996" y="0" on="1"/>
      </contour>
      <contour>
        <pt x="597" y="706" on="1"/>
        <pt x="574" y="709" on="0"/>
        <pt x="514" y="713" on="0"/>
        <pt x="481" y="713" on="1"/>
        <pt x="387" y="713" on="0"/>
        <pt x="243" y="659" on="0"/>
        <pt x="145" y="564" on="0"/>
        <pt x="95" y="435" on="0"/>
        <pt x="95" y="361" on="1"/>
        <pt x="95" y="294" on="0"/>
        <pt x="146" y="171" on="0"/>
        <pt x="244" y="78" on="0"/>
        <pt x="388" y="22" on="0"/>
        <pt x="481" y="22" on="1"/>
        <pt x="514" y="22" on="0"/>
        <pt x="574" y="26" on="0"/>
        <pt x="597" y="28" on="1"/>
      </contour>
    </TTGlyph>
    <TTGlyph name="Oacute" xMin="61" yMin="-8" xMax="781" yMax="935">
      <component glyphName="O" x="0" y="0" flags="0x204"/>
      <component glyphName="acute" x="274" y="320" flags="0x4"/>
    </TTGlyph>
    <TTGlyph name="Obreve" xMin="61" yMin="-8" xMax="781" yMax="935">
      <component glyphName="O" x="0" y="0" flags="0x204"/>
      <component glyphName="breve" x="202" y="320" flags="0x4"/>
    </TTGlyph>
    <TTGlyph name="Ocircumflex" xMin="61" yMin="-8" xMax="781" yMax="942">
      <component glyphName="O" x="0" y="0" flags="0x204"/>
      <component glyphName="circumflex" x="201" y="320" flags="0x4"/>
    </TTGlyph>
    <TTGlyph name="Odieresis" xMin="61" yMin="-8" xMax="781" yMax="896">
      <component glyphName="O" x="0" y="0" flags="0x204"/>
      <component glyphName="dieresis" x="201" y="320" flags="0x4"/>
    </TTGlyph>
    <TTGlyph name="Ograve" xMin="61" yMin="-8" xMax="781" yMax="935">
      <component glyphName="O" x="0" y="0" flags="0x204"/>
      <component glyphName="grave" x="122" y="320" flags="0x4"/>
    </TTGlyph>
    <TTGlyph name="Ohungarumlaut" xMin="61" yMin="-8" xMax="781" yMax="985">
      <component glyphName="O" x="0" y="0" flags="0x204"/>
      <component glyphName="hungarumlaut" x="244" y="320" flags="0x4"/>
    </TTGlyph>
    <TTGlyph name="Omacron" xMin="61" yMin="-8" xMax="781" yMax="872">
      <component glyphName="O" x="0" y="0" flags="0x204"/>
      <component glyphName="macron" x="202" y="320" flags="0x4"/>
    </TTGlyph>
    <TTGlyph name="Oslash" xMin="60" yMin="-8" xMax="783" yMax="742">
      <contour>
        <pt x="781" y="366" on="1"/>
        <pt x="781" y="286" on="0"/>
        <pt x="726" y="149" on="0"/>
        <pt x="630" y="49" on="0"/>
        <pt x="498" y="-8" on="0"/>
        <pt x="421" y="-8" on="1"/>
        <pt x="347" y="-8" on="0"/>
        <pt x="220" y="44" on="0"/>
        <pt x="172" y="90" on="1"/>
        <pt x="157" y="75" on="1"/>
        <pt x="150" y="68" on="0"/>
        <pt x="133" y="51" on="0"/>
        <pt x="125" y="42" on="1"/>
        <pt x="79" y="-6" on="1"/>
        <pt x="60" y="13" on="1"/>
        <pt x="86" y="40" on="0"/>
        <pt x="107" y="61" on="1"/>
        <pt x="115" y="70" on="0"/>
        <pt x="132" y="87" on="0"/>
        <pt x="139" y="94" on="1"/>
        <pt x="154" y="109" on="1"/>
        <pt x="110" y="160" on="0"/>
        <pt x="61" y="290" on="0"/>
        <pt x="61" y="366" on="1"/>
        <pt x="61" y="446" on="0"/>
        <pt x="116" y="584" on="0"/>
        <pt x="212" y="685" on="0"/>
        <pt x="344" y="742" on="0"/>
        <pt x="421" y="742" on="1"/>
        <pt x="496" y="742" on="0"/>
        <pt x="623" y="689" on="0"/>
        <pt x="671" y="641" on="1"/>
        <pt x="765" y="739" on="1"/>
        <pt x="783" y="720" on="1"/>
        <pt x="766" y="702" on="0"/>
        <pt x="749" y="684" on="1"/>
        <pt x="735" y="669" on="0"/>
        <pt x="701" y="635" on="0"/>
        <pt x="688" y="622" on="1"/>
        <pt x="732" y="573" on="0"/>
        <pt x="781" y="442" on="0"/>
      </contour>
      <contour>
        <pt x="649" y="619" on="1"/>
        <pt x="605" y="664" on="0"/>
        <pt x="490" y="713" on="0"/>
        <pt x="421" y="713" on="1"/>
        <pt x="350" y="713" on="0"/>
        <pt x="231" y="660" on="0"/>
        <pt x="144" y="566" on="0"/>
        <pt x="95" y="439" on="0"/>
        <pt x="95" y="366" on="1"/>
        <pt x="95" y="297" on="0"/>
        <pt x="138" y="178" on="0"/>
        <pt x="176" y="132" on="1"/>
      </contour>
      <contour>
        <pt x="747" y="366" on="1"/>
        <pt x="747" y="435" on="0"/>
        <pt x="704" y="554" on="0"/>
        <pt x="666" y="600" on="1"/>
        <pt x="430" y="356" on="1"/>
        <pt x="326" y="249" on="0"/>
        <pt x="194" y="113" on="1"/>
        <pt x="237" y="69" on="0"/>
        <pt x="352" y="21" on="0"/>
        <pt x="421" y="21" on="1"/>
        <pt x="492" y="21" on="0"/>
        <pt x="611" y="74" on="0"/>
        <pt x="698" y="166" on="0"/>
        <pt x="747" y="292" on="0"/>
      </contour>
    </TTGlyph>
    <TTGlyph name="Oslashacute" xMin="60" yMin="-8" xMax="783" yMax="935">
      <component glyphName="Oslash" x="0" y="0" flags="0x204"/>
      <component glyphName="acute" x="274" y="320" flags="0x4"/>
    </TTGlyph>
    <TTGlyph name="Otilde" xMin="61" yMin="-8" xMax="781" yMax="905">
      <component glyphName="O" x="0" y="0" flags="0x204"/>
      <component glyphName="tilde" x="202" y="320" flags="0x4"/>
    </TTGlyph>
    <TTGlyph name="P" xMin="93" yMin="0" xMax="509" yMax="738">
      <contour>
        <pt x="509" y="505" on="1"/>
        <pt x="509" y="450" on="0"/>
        <pt x="470" y="358" on="0"/>
        <pt x="396" y="292" on="0"/>
        <pt x="289" y="255" on="0"/>
        <pt x="222" y="255" on="1"/>
        <pt x="201" y="255" on="0"/>
        <pt x="145" y="259" on="0"/>
        <pt x="126" y="262" on="1"/>
        <pt x="126" y="0" on="1"/>
        <pt x="93" y="0" on="1"/>
        <pt x="93" y="730" on="1"/>
        <pt x="125" y="734" on="0"/>
        <pt x="192" y="738" on="0"/>
        <pt x="227" y="738" on="1"/>
        <pt x="298" y="738" on="0"/>
        <pt x="404" y="700" on="0"/>
        <pt x="474" y="636" on="0"/>
        <pt x="509" y="552" on="0"/>
      </contour>
      <contour>
        <pt x="475" y="505" on="1"/>
        <pt x="475" y="546" on="0"/>
        <pt x="444" y="620" on="0"/>
        <pt x="381" y="676" on="0"/>
        <pt x="288" y="709" on="0"/>
        <pt x="227" y="709" on="1"/>
        <pt x="201" y="709" on="0"/>
        <pt x="151" y="705" on="0"/>
        <pt x="126" y="703" on="1"/>
        <pt x="126" y="291" on="1"/>
        <pt x="146" y="288" on="0"/>
        <pt x="198" y="283" on="0"/>
        <pt x="222" y="283" on="1"/>
        <pt x="281" y="283" on="0"/>
        <pt x="375" y="314" on="0"/>
        <pt x="440" y="372" on="0"/>
        <pt x="475" y="454" on="0"/>
      </contour>
    </TTGlyph>
    <TTGlyph name="Q" xMin="61" yMin="-8" xMax="781" yMax="742">
      <contour>
        <pt x="754" y="-8" on="1"/>
        <pt x="658" y="80" on="1"/>
        <pt x="610" y="38" on="0"/>
        <pt x="490" y="-8" on="0"/>
        <pt x="421" y="-8" on="1"/>
        <pt x="344" y="-8" on="0"/>
        <pt x="212" y="49" on="0"/>
        <pt x="116" y="149" on="0"/>
        <pt x="61" y="286" on="0"/>
        <pt x="61" y="366" on="1"/>
        <pt x="61" y="446" on="0"/>
        <pt x="116" y="584" on="0"/>
        <pt x="212" y="685" on="0"/>
        <pt x="344" y="742" on="0"/>
        <pt x="421" y="742" on="1"/>
        <pt x="498" y="742" on="0"/>
        <pt x="630" y="685" on="0"/>
        <pt x="726" y="584" on="0"/>
        <pt x="781" y="446" on="0"/>
        <pt x="781" y="366" on="1"/>
        <pt x="781" y="285" on="0"/>
        <pt x="726" y="149" on="0"/>
        <pt x="678" y="99" on="1"/>
        <pt x="773" y="14" on="1"/>
      </contour>
      <contour>
        <pt x="747" y="366" on="1"/>
        <pt x="747" y="439" on="0"/>
        <pt x="698" y="566" on="0"/>
        <pt x="611" y="660" on="0"/>
        <pt x="492" y="713" on="0"/>
        <pt x="421" y="713" on="1"/>
        <pt x="350" y="713" on="0"/>
        <pt x="231" y="660" on="0"/>
        <pt x="144" y="566" on="0"/>
        <pt x="95" y="439" on="0"/>
        <pt x="95" y="366" on="1"/>
        <pt x="95" y="292" on="0"/>
        <pt x="144" y="166" on="0"/>
        <pt x="231" y="74" on="0"/>
        <pt x="350" y="21" on="0"/>
        <pt x="421" y="21" on="1"/>
        <pt x="484" y="21" on="0"/>
        <pt x="593" y="63" on="0"/>
        <pt x="635" y="101" on="1"/>
        <pt x="463" y="254" on="1"/>
        <pt x="482" y="276" on="1"/>
        <pt x="654" y="120" on="1"/>
        <pt x="699" y="166" on="0"/>
        <pt x="747" y="291" on="0"/>
      </contour>
    </TTGlyph>
    <TTGlyph name="R" xMin="93" yMin="0" xMax="544" yMax="738">
      <contour>
        <pt x="505" y="0" on="1"/>
        <pt x="300" y="307" on="1"/>
        <pt x="266" y="300" on="0"/>
        <pt x="222" y="300" on="1"/>
        <pt x="201" y="300" on="0"/>
        <pt x="145" y="304" on="0"/>
        <pt x="126" y="307" on="1"/>
        <pt x="126" y="0" on="1"/>
        <pt x="93" y="0" on="1"/>
        <pt x="93" y="726" on="1"/>
        <pt x="134" y="731" on="0"/>
        <pt x="198" y="738" on="0"/>
        <pt x="238" y="738" on="1"/>
        <pt x="368" y="738" on="0"/>
        <pt x="511" y="622" on="0"/>
        <pt x="511" y="523" on="1"/>
        <pt x="511" y="449" on="0"/>
        <pt x="418" y="337" on="0"/>
        <pt x="332" y="314" on="1"/>
        <pt x="544" y="0" on="1"/>
      </contour>
      <contour>
        <pt x="477" y="523" on="1"/>
        <pt x="477" y="564" on="0"/>
        <pt x="447" y="632" on="0"/>
        <pt x="387" y="682" on="0"/>
        <pt x="297" y="709" on="0"/>
        <pt x="238" y="709" on="1"/>
        <pt x="207" y="709" on="0"/>
        <pt x="159" y="705" on="0"/>
        <pt x="126" y="700" on="1"/>
        <pt x="126" y="336" on="1"/>
        <pt x="146" y="333" on="0"/>
        <pt x="198" y="328" on="0"/>
        <pt x="222" y="328" on="1"/>
        <pt x="281" y="328" on="0"/>
        <pt x="375" y="355" on="0"/>
        <pt x="441" y="406" on="0"/>
        <pt x="477" y="478" on="0"/>
      </contour>
    </TTGlyph>
    <TTGlyph name="Racute" xMin="93" yMin="0" xMax="544" yMax="935">
      <component glyphName="R" x="0" y="0" flags="0x204"/>
      <component glyphName="acute" x="127" y="320" flags="0x4"/>
    </TTGlyph>
    <TTGlyph name="Rcaron" xMin="93" yMin="0" xMax="544" yMax="943">
      <component glyphName="R" x="0" y="0" flags="0x204"/>
      <component glyphName="caron" x="54" y="320" flags="0x4"/>
    </TTGlyph>
    <TTGlyph name="Rcommaaccent" xMin="93" yMin="-236" xMax="544" yMax="738">
      <component glyphName="R" x="0" y="0" flags="0x204"/>
      <component glyphName="commaaccent" x="181" y="0" flags="0x4"/>
    </TTGlyph>
    <TTGlyph name="S" xMin="30" yMin="-12" xMax="466" yMax="745">
      <contour>
        <pt x="466" y="179" on="1"/>
        <pt x="466" y="134" on="0"/>
        <pt x="430" y="63" on="0"/>
        <pt x="369" y="14" on="0"/>
        <pt x="288" y="-12" on="0"/>
        <pt x="243" y="-12" on="1"/>
        <pt x="187" y="-12" on="0"/>
        <pt x="79" y="24" on="0"/>
        <pt x="30" y="56" on="1"/>
        <pt x="46" y="83" on="1"/>
        <pt x="92" y="54" on="0"/>
        <pt x="191" y="17" on="0"/>
        <pt x="248" y="17" on="1"/>
        <pt x="285" y="17" on="0"/>
        <pt x="353" y="39" on="0"/>
        <pt x="404" y="81" on="0"/>
        <pt x="434" y="139" on="0"/>
        <pt x="434" y="175" on="1"/>
        <pt x="434" y="215" on="0"/>
        <pt x="404" y="270" on="0"/>
        <pt x="354" y="311" on="0"/>
        <pt x="291" y="342" on="0"/>
        <pt x="258" y="357" on="1"/>
        <pt x="220" y="374" on="0"/>
        <pt x="151" y="410" on="0"/>
        <pt x="99" y="457" on="0"/>
        <pt x="67" y="519" on="0"/>
        <pt x="67" y="562" on="1"/>
        <pt x="67" y="602" on="0"/>
        <pt x="98" y="669" on="0"/>
        <pt x="155" y="718" on="0"/>
        <pt x="235" y="745" on="0"/>
        <pt x="283" y="745" on="1"/>
        <pt x="333" y="745" on="0"/>
        <pt x="418" y="717" on="0"/>
        <pt x="450" y="695" on="1"/>
        <pt x="433" y="668" on="1"/>
        <pt x="404" y="688" on="0"/>
        <pt x="326" y="716" on="0"/>
        <pt x="279" y="716" on="1"/>
        <pt x="240" y="716" on="0"/>
        <pt x="174" y="693" on="0"/>
        <pt x="126" y="653" on="0"/>
        <pt x="99" y="598" on="0"/>
        <pt x="99" y="566" on="1"/>
        <pt x="99" y="526" on="0"/>
        <pt x="130" y="470" on="0"/>
        <pt x="179" y="430" on="0"/>
        <pt x="243" y="399" on="0"/>
        <pt x="276" y="384" on="1"/>
        <pt x="313" y="367" on="0"/>
        <pt x="382" y="331" on="0"/>
        <pt x="435" y="283" on="0"/>
        <pt x="466" y="221" on="0"/>
      </contour>
    </TTGlyph>
    <TTGlyph name="Sacute" xMin="30" yMin="-12" xMax="466" yMax="935">
      <component glyphName="S" x="0" y="0" flags="0x204"/>
      <component glyphName="acute" x="119" y="320" flags="0x4"/>
    </TTGlyph>
    <TTGlyph name="Scaron" xMin="30" yMin="-12" xMax="466" yMax="943">
      <component glyphName="S" x="0" y="0" flags="0x204"/>
      <component glyphName="caron" x="46" y="320" flags="0x4"/>
    </TTGlyph>
    <TTGlyph name="Scedilla" xMin="30" yMin="-237" xMax="466" yMax="745">
      <contour>
        <pt x="339" y="-154" on="1"/>
        <pt x="339" y="-187" on="0"/>
        <pt x="286" y="-237" on="0"/>
        <pt x="235" y="-237" on="1"/>
        <pt x="210" y="-237" on="0"/>
        <pt x="159" y="-219" on="0"/>
        <pt x="131" y="-205" on="1"/>
        <pt x="144" y="-179" on="1"/>
        <pt x="171" y="-193" on="0"/>
        <pt x="215" y="-209" on="0"/>
        <pt x="235" y="-209" on="1"/>
        <pt x="270" y="-209" on="0"/>
        <pt x="306" y="-180" on="0"/>
        <pt x="306" y="-155" on="1"/>
        <pt x="306" y="-129" on="0"/>
        <pt x="257" y="-89" on="0"/>
        <pt x="197" y="-82" on="1"/>
        <pt x="195" y="-78" on="1"/>
        <pt x="212" y="-11" on="1"/>
        <pt x="164" y="-6" on="0"/>
        <pt x="72" y="29" on="0"/>
        <pt x="30" y="56" on="1"/>
        <pt x="46" y="83" on="1"/>
        <pt x="92" y="54" on="0"/>
        <pt x="191" y="17" on="0"/>
        <pt x="248" y="17" on="1"/>
        <pt x="285" y="17" on="0"/>
        <pt x="353" y="39" on="0"/>
        <pt x="404" y="81" on="0"/>
        <pt x="434" y="139" on="0"/>
        <pt x="434" y="175" on="1"/>
        <pt x="434" y="215" on="0"/>
        <pt x="404" y="270" on="0"/>
        <pt x="354" y="311" on="0"/>
        <pt x="291" y="342" on="0"/>
        <pt x="258" y="357" on="1"/>
        <pt x="220" y="374" on="0"/>
        <pt x="151" y="410" on="0"/>
        <pt x="99" y="457" on="0"/>
        <pt x="67" y="519" on="0"/>
        <pt x="67" y="562" on="1"/>
        <pt x="67" y="602" on="0"/>
        <pt x="98" y="669" on="0"/>
        <pt x="155" y="718" on="0"/>
        <pt x="235" y="745" on="0"/>
        <pt x="283" y="745" on="1"/>
        <pt x="333" y="745" on="0"/>
        <pt x="418" y="717" on="0"/>
        <pt x="450" y="695" on="1"/>
        <pt x="433" y="668" on="1"/>
        <pt x="404" y="688" on="0"/>
        <pt x="326" y="716" on="0"/>
        <pt x="279" y="716" on="1"/>
        <pt x="240" y="716" on="0"/>
        <pt x="174" y="693" on="0"/>
        <pt x="126" y="653" on="0"/>
        <pt x="99" y="598" on="0"/>
        <pt x="99" y="566" on="1"/>
        <pt x="99" y="526" on="0"/>
        <pt x="130" y="470" on="0"/>
        <pt x="179" y="430" on="0"/>
        <pt x="243" y="399" on="0"/>
        <pt x="276" y="384" on="1"/>
        <pt x="313" y="367" on="0"/>
        <pt x="382" y="331" on="0"/>
        <pt x="435" y="283" on="0"/>
        <pt x="466" y="221" on="0"/>
        <pt x="466" y="179" on="1"/>
        <pt x="466" y="134" on="0"/>
        <pt x="430" y="63" on="0"/>
        <pt x="369" y="14" on="0"/>
        <pt x="288" y="-12" on="0"/>
        <pt x="243" y="-12" on="1"/>
        <pt x="241" y="-12" on="1"/>
        <pt x="229" y="-59" on="1"/>
        <pt x="283" y="-68" on="0"/>
        <pt x="339" y="-119" on="0"/>
      </contour>
    </TTGlyph>
    <TTGlyph name="Scommaaccent" xMin="30" yMin="-236" xMax="466" yMax="745">
      <component glyphName="S" x="0" y="0" flags="0x204"/>
      <component glyphName="commaaccent" x="165" y="0" flags="0x4"/>
    </TTGlyph>
    <TTGlyph name="T" xMin="35" yMin="0" xMax="574" yMax="733">
      <contour>
        <pt x="321" y="704" on="1"/>
        <pt x="321" y="0" on="1"/>
        <pt x="288" y="0" on="1"/>
        <pt x="288" y="704" on="1"/>
        <pt x="35" y="704" on="1"/>
        <pt x="35" y="733" on="1"/>
        <pt x="574" y="733" on="1"/>
        <pt x="574" y="704" on="1"/>
      </contour>
    </TTGlyph>
    <TTGlyph name="Tcaron" xMin="35" yMin="0" xMax="574" yMax="943">
      <component glyphName="T" x="0" y="0" flags="0x204"/>
      <component glyphName="caron" x="84" y="320" flags="0x4"/>
    </TTGlyph>
    <TTGlyph name="Tcommaaccent" xMin="35" yMin="-236" xMax="574" yMax="733">
      <component glyphName="T" x="0" y="0" flags="0x204"/>
      <component glyphName="commaaccent" x="203" y="0" flags="0x4"/>
    </TTGlyph>
    <TTGlyph name="Thorn" xMin="93" yMin="0" xMax="509" yMax="733">
      <contour>
        <pt x="509" y="376" on="1"/>
        <pt x="509" y="321" on="0"/>
        <pt x="470" y="229" on="0"/>
        <pt x="396" y="163" on="0"/>
        <pt x="289" y="126" on="0"/>
        <pt x="222" y="126" on="1"/>
        <pt x="200" y="126" on="0"/>
        <pt x="145" y="130" on="0"/>
        <pt x="126" y="133" on="1"/>
        <pt x="126" y="0" on="1"/>
        <pt x="93" y="0" on="1"/>
        <pt x="93" y="733" on="1"/>
        <pt x="126" y="733" on="1"/>
        <pt x="126" y="604" on="1"/>
        <pt x="151" y="606" on="0"/>
        <pt x="201" y="609" on="0"/>
        <pt x="227" y="609" on="1"/>
        <pt x="298" y="609" on="0"/>
        <pt x="404" y="571" on="0"/>
        <pt x="474" y="507" on="0"/>
        <pt x="509" y="423" on="0"/>
      </contour>
      <contour>
        <pt x="475" y="376" on="1"/>
        <pt x="475" y="417" on="0"/>
        <pt x="444" y="491" on="0"/>
        <pt x="381" y="547" on="0"/>
        <pt x="288" y="580" on="0"/>
        <pt x="227" y="580" on="1"/>
        <pt x="201" y="580" on="0"/>
        <pt x="151" y="576" on="0"/>
        <pt x="126" y="574" on="1"/>
        <pt x="126" y="162" on="1"/>
        <pt x="146" y="159" on="0"/>
        <pt x="198" y="154" on="0"/>
        <pt x="222" y="154" on="1"/>
        <pt x="281" y="154" on="0"/>
        <pt x="375" y="185" on="0"/>
        <pt x="440" y="243" on="0"/>
        <pt x="475" y="325" on="0"/>
      </contour>
    </TTGlyph>
    <TTGlyph name="U" xMin="90" yMin="-8" xMax="632" yMax="733">
      <contour>
        <pt x="632" y="268" on="1"/>
        <pt x="632" y="203" on="0"/>
        <pt x="594" y="100" on="0"/>
        <pt x="523" y="29" on="0"/>
        <pt x="423" y="-8" on="0"/>
        <pt x="360" y="-8" on="1"/>
        <pt x="229" y="-8" on="0"/>
        <pt x="90" y="134" on="0"/>
        <pt x="90" y="268" on="1"/>
        <pt x="90" y="733" on="1"/>
        <pt x="123" y="733" on="1"/>
        <pt x="123" y="265" on="1"/>
        <pt x="123" y="149" on="0"/>
        <pt x="248" y="22" on="0"/>
        <pt x="360" y="22" on="1"/>
        <pt x="472" y="22" on="0"/>
        <pt x="599" y="151" on="0"/>
        <pt x="599" y="265" on="1"/>
        <pt x="599" y="733" on="1"/>
        <pt x="632" y="733" on="1"/>
      </contour>
    </TTGlyph>
    <TTGlyph name="Uacute" xMin="90" yMin="-8" xMax="632" yMax="925">
      <component glyphName="U" x="0" y="0" flags="0x204"/>
      <component glyphName="acute" x="214" y="310" flags="0x4"/>
    </TTGlyph>
    <TTGlyph name="Ubreve" xMin="90" yMin="-8" xMax="632" yMax="925">
      <component glyphName="U" x="0" y="0" flags="0x204"/>
      <component glyphName="breve" x="142" y="310" flags="0x4"/>
    </TTGlyph>
    <TTGlyph name="Ucircumflex" xMin="90" yMin="-8" xMax="632" yMax="932">
      <component glyphName="U" x="0" y="0" flags="0x204"/>
      <component glyphName="circumflex" x="141" y="310" flags="0x4"/>
    </TTGlyph>
    <TTGlyph name="Udieresis" xMin="90" yMin="-8" xMax="632" yMax="886">
      <component glyphName="U" x="0" y="0" flags="0x204"/>
      <component glyphName="dieresis" x="141" y="310" flags="0x4"/>
    </TTGlyph>
    <TTGlyph name="Ugrave" xMin="90" yMin="-8" xMax="632" yMax="925">
      <component glyphName="U" x="0" y="0" flags="0x204"/>
      <component glyphName="grave" x="62" y="310" flags="0x4"/>
    </TTGlyph>
    <TTGlyph name="Uhungarumlaut" xMin="90" yMin="-8" xMax="632" yMax="975">
      <component glyphName="U" x="0" y="0" flags="0x204"/>
      <component glyphName="hungarumlaut" x="184" y="310" flags="0x4"/>
    </TTGlyph>
    <TTGlyph name="Umacron" xMin="90" yMin="-8" xMax="632" yMax="862">
      <component glyphName="U" x="0" y="0" flags="0x204"/>
      <component glyphName="macron" x="142" y="310" flags="0x4"/>
    </TTGlyph>
    <TTGlyph name="Uogonek" xMin="90" yMin="-220" xMax="632" yMax="733">
      <contour>
        <pt x="430" y="-170" on="1"/>
        <pt x="415" y="-192" on="0"/>
        <pt x="375" y="-220" on="0"/>
        <pt x="345" y="-220" on="1"/>
        <pt x="313" y="-220" on="0"/>
        <pt x="272" y="-183" on="0"/>
        <pt x="272" y="-148" on="1"/>
        <pt x="272" y="-113" on="0"/>
        <pt x="316" y="-45" on="0"/>
        <pt x="352" y="-8" on="1"/>
        <pt x="225" y="-6" on="0"/>
        <pt x="90" y="135" on="0"/>
        <pt x="90" y="268" on="1"/>
        <pt x="90" y="733" on="1"/>
        <pt x="123" y="733" on="1"/>
        <pt x="123" y="265" on="1"/>
        <pt x="123" y="149" on="0"/>
        <pt x="248" y="22" on="0"/>
        <pt x="360" y="22" on="1"/>
        <pt x="383" y="22" on="1"/>
        <pt x="385" y="24" on="1"/>
        <pt x="385" y="22" on="1"/>
        <pt x="485" y="30" on="0"/>
        <pt x="599" y="158" on="0"/>
        <pt x="599" y="265" on="1"/>
        <pt x="599" y="733" on="1"/>
        <pt x="632" y="733" on="1"/>
        <pt x="632" y="268" on="1"/>
        <pt x="632" y="145" on="0"/>
        <pt x="504" y="2" on="0"/>
        <pt x="392" y="-7" on="1"/>
        <pt x="375" y="-23" on="0"/>
        <pt x="342" y="-58" on="0"/>
        <pt x="317" y="-94" on="0"/>
        <pt x="302" y="-129" on="0"/>
        <pt x="302" y="-146" on="1"/>
        <pt x="302" y="-169" on="0"/>
        <pt x="328" y="-193" on="0"/>
        <pt x="347" y="-193" on="1"/>
        <pt x="368" y="-193" on="0"/>
        <pt x="399" y="-170" on="0"/>
        <pt x="411" y="-153" on="1"/>
      </contour>
    </TTGlyph>
    <TTGlyph name="Uring" xMin="90" yMin="-8" xMax="632" yMax="993">
      <component glyphName="U" x="0" y="0" flags="0x204"/>
      <component glyphName="ring" x="141" y="310" flags="0x4"/>
    </TTGlyph>
    <TTGlyph name="V" xMin="33" yMin="-11" xMax="666" yMax="733">
      <contour>
        <pt x="353" y="-11" on="1"/>
        <pt x="345" y="-11" on="1"/>
        <pt x="33" y="733" on="1"/>
        <pt x="67" y="733" on="1"/>
        <pt x="350" y="57" on="1"/>
        <pt x="631" y="733" on="1"/>
        <pt x="666" y="733" on="1"/>
      </contour>
    </TTGlyph>
    <TTGlyph name="W" xMin="58" yMin="-10" xMax="930" yMax="734">
      <contour>
        <pt x="747" y="-8" on="1"/>
        <pt x="735" y="-10" on="1"/>
        <pt x="494" y="663" on="1"/>
        <pt x="251" y="-10" on="1"/>
        <pt x="239" y="-8" on="1"/>
        <pt x="58" y="733" on="1"/>
        <pt x="88" y="733" on="1"/>
        <pt x="251" y="71" on="1"/>
        <pt x="489" y="734" on="1"/>
        <pt x="499" y="734" on="1"/>
        <pt x="738" y="71" on="1"/>
        <pt x="900" y="733" on="1"/>
        <pt x="930" y="733" on="1"/>
      </contour>
    </TTGlyph>
    <TTGlyph name="Wacute" xMin="58" yMin="-10" xMax="930" yMax="935">
      <component glyphName="W" x="0" y="0" flags="0x204"/>
      <component glyphName="acute" x="347" y="320" flags="0x4"/>
    </TTGlyph>
    <TTGlyph name="Wcircumflex" xMin="58" yMin="-10" xMax="930" yMax="942">
      <component glyphName="W" x="0" y="0" flags="0x204"/>
      <component glyphName="circumflex" x="274" y="320" flags="0x4"/>
    </TTGlyph>
    <TTGlyph name="Wdieresis" xMin="58" yMin="-10" xMax="930" yMax="896">
      <component glyphName="W" x="0" y="0" flags="0x204"/>
      <component glyphName="dieresis" x="274" y="320" flags="0x4"/>
    </TTGlyph>
    <TTGlyph name="Wgrave" xMin="58" yMin="-10" xMax="930" yMax="935">
      <component glyphName="W" x="0" y="0" flags="0x204"/>
      <component glyphName="grave" x="195" y="320" flags="0x4"/>
    </TTGlyph>
    <TTGlyph name="X" xMin="54" yMin="0" xMax="632" yMax="733">
      <contour>
        <pt x="593" y="0" on="1"/>
        <pt x="343" y="348" on="1"/>
        <pt x="93" y="0" on="1"/>
        <pt x="54" y="0" on="1"/>
        <pt x="325" y="372" on="1"/>
        <pt x="62" y="733" on="1"/>
        <pt x="101" y="733" on="1"/>
        <pt x="343" y="396" on="1"/>
        <pt x="585" y="733" on="1"/>
        <pt x="624" y="733" on="1"/>
        <pt x="361" y="372" on="1"/>
        <pt x="632" y="0" on="1"/>
      </contour>
    </TTGlyph>
    <TTGlyph name="Y" xMin="37" yMin="0" xMax="579" yMax="733">
      <contour>
        <pt x="325" y="333" on="1"/>
        <pt x="325" y="0" on="1"/>
        <pt x="292" y="0" on="1"/>
        <pt x="292" y="333" on="1"/>
        <pt x="37" y="733" on="1"/>
        <pt x="74" y="733" on="1"/>
        <pt x="309" y="361" on="1"/>
        <pt x="542" y="733" on="1"/>
        <pt x="579" y="733" on="1"/>
      </contour>
    </TTGlyph>
    <TTGlyph name="Yacute" xMin="37" yMin="0" xMax="579" yMax="925">
      <component glyphName="Y" x="0" y="0" flags="0x204"/>
      <component glyphName="acute" x="161" y="310" flags="0x4"/>
    </TTGlyph>
    <TTGlyph name="Ycircumflex" xMin="37" yMin="0" xMax="579" yMax="932">
      <component glyphName="Y" x="0" y="0" flags="0x204"/>
      <component glyphName="circumflex" x="88" y="310" flags="0x4"/>
    </TTGlyph>
    <TTGlyph name="Ydieresis" xMin="37" yMin="0" xMax="579" yMax="886">
      <component glyphName="Y" x="0" y="0" flags="0x204"/>
      <component glyphName="dieresis" x="88" y="310" flags="0x4"/>
    </TTGlyph>
    <TTGlyph name="Ygrave" xMin="37" yMin="0" xMax="579" yMax="925">
      <component glyphName="Y" x="0" y="0" flags="0x204"/>
      <component glyphName="grave" x="9" y="310" flags="0x4"/>
    </TTGlyph>
    <TTGlyph name="Z" xMin="54" yMin="0" xMax="581" yMax="733">
      <contour>
        <pt x="105" y="29" on="1"/>
        <pt x="577" y="29" on="1"/>
        <pt x="577" y="0" on="1"/>
        <pt x="58" y="0" on="1"/>
        <pt x="54" y="8" on="1"/>
        <pt x="530" y="704" on="1"/>
        <pt x="79" y="704" on="1"/>
        <pt x="79" y="733" on="1"/>
        <pt x="577" y="733" on="1"/>
        <pt x="581" y="724" on="1"/>
      </contour>
    </TTGlyph>
    <TTGlyph name="Zacute" xMin="54" yMin="0" xMax="581" yMax="935">
      <component glyphName="Z" x="0" y="0" flags="0x204"/>
      <component glyphName="acute" x="175" y="320" flags="0x4"/>
    </TTGlyph>
    <TTGlyph name="Zcaron" xMin="54" yMin="0" xMax="581" yMax="943">
      <component glyphName="Z" x="0" y="0" flags="0x204"/>
      <component glyphName="caron" x="102" y="320" flags="0x4"/>
    </TTGlyph>
    <TTGlyph name="Zdotaccent" xMin="54" yMin="0" xMax="581" yMax="896">
      <component glyphName="Z" x="0" y="0" flags="0x204"/>
      <component glyphName="dotaccent" x="102" y="320" flags="0x4"/>
    </TTGlyph>
    <TTGlyph name="a" xMin="42" yMin="-8" xMax="363" yMax="423">
      <contour>
        <pt x="332" y="0" on="1"/>
        <pt x="332" y="45" on="1"/>
        <pt x="312" y="24" on="0"/>
        <pt x="240" y="-8" on="0"/>
        <pt x="199" y="-8" on="1"/>
        <pt x="166" y="-8" on="0"/>
        <pt x="109" y="9" on="0"/>
        <pt x="67" y="41" on="0"/>
        <pt x="42" y="88" on="0"/>
        <pt x="42" y="119" on="1"/>
        <pt x="42" y="150" on="0"/>
        <pt x="68" y="198" on="0"/>
        <pt x="112" y="231" on="0"/>
        <pt x="170" y="249" on="0"/>
        <pt x="203" y="249" on="1"/>
        <pt x="241" y="249" on="0"/>
        <pt x="304" y="228" on="0"/>
        <pt x="331" y="214" on="1"/>
        <pt x="331" y="265" on="1"/>
        <pt x="331" y="330" on="0"/>
        <pt x="272" y="394" on="0"/>
        <pt x="199" y="394" on="1"/>
        <pt x="176" y="394" on="0"/>
        <pt x="117" y="381" on="0"/>
        <pt x="91" y="370" on="1"/>
        <pt x="82" y="398" on="1"/>
        <pt x="109" y="409" on="0"/>
        <pt x="175" y="423" on="0"/>
        <pt x="201" y="423" on="1"/>
        <pt x="286" y="423" on="0"/>
        <pt x="363" y="344" on="0"/>
        <pt x="363" y="269" on="1"/>
        <pt x="363" y="0" on="1"/>
      </contour>
      <contour>
        <pt x="331" y="185" on="1"/>
        <pt x="301" y="203" on="0"/>
        <pt x="241" y="222" on="0"/>
        <pt x="204" y="222" on="1"/>
        <pt x="149" y="222" on="0"/>
        <pt x="73" y="169" on="0"/>
        <pt x="73" y="119" on="1"/>
        <pt x="73" y="69" on="0"/>
        <pt x="146" y="20" on="0"/>
        <pt x="201" y="20" on="1"/>
        <pt x="243" y="20" on="0"/>
        <pt x="309" y="52" on="0"/>
        <pt x="331" y="78" on="1"/>
      </contour>
    </TTGlyph>
    <TTGlyph name="aacute" xMin="42" yMin="-8" xMax="387" yMax="615">
      <component glyphName="a" x="0" y="0" flags="0x204"/>
      <component glyphName="acute" x="67" y="0" flags="0x4"/>
    </TTGlyph>
    <TTGlyph name="abreve" xMin="42" yMin="-8" xMax="363" yMax="615">
      <component glyphName="a" x="0" y="0" flags="0x204"/>
      <component glyphName="breve" x="-4" y="0" flags="0x4"/>
    </TTGlyph>
    <TTGlyph name="acircumflex" xMin="42" yMin="-8" xMax="363" yMax="622">
      <component glyphName="a" x="0" y="0" flags="0x204"/>
      <component glyphName="circumflex" x="-5" y="0" flags="0x4"/>
    </TTGlyph>
    <TTGlyph name="acute" xMin="114" yMin="475" xMax="320" yMax="615">
      <contour>
        <pt x="126" y="475" on="1"/>
        <pt x="114" y="494" on="1"/>
        <pt x="300" y="615" on="1"/>
        <pt x="320" y="584" on="1"/>
      </contour>
    </TTGlyph>
    <TTGlyph name="adieresis" xMin="42" yMin="-8" xMax="363" yMax="576">
      <component glyphName="a" x="0" y="0" flags="0x204"/>
      <component glyphName="dieresis" x="-5" y="0" flags="0x4"/>
    </TTGlyph>
    <TTGlyph name="ae" xMin="42" yMin="-8" xMax="700" yMax="423">
      <contour>
        <pt x="331" y="265" on="1"/>
        <pt x="331" y="330" on="0"/>
        <pt x="272" y="394" on="0"/>
        <pt x="199" y="394" on="1"/>
        <pt x="176" y="394" on="0"/>
        <pt x="117" y="381" on="0"/>
        <pt x="91" y="370" on="1"/>
        <pt x="82" y="398" on="1"/>
        <pt x="109" y="409" on="0"/>
        <pt x="175" y="423" on="0"/>
        <pt x="201" y="423" on="1"/>
        <pt x="271" y="423" on="0"/>
        <pt x="344" y="370" on="0"/>
        <pt x="355" y="319" on="1"/>
        <pt x="378" y="367" on="0"/>
        <pt x="464" y="423" on="0"/>
        <pt x="522" y="423" on="1"/>
        <pt x="566" y="423" on="0"/>
        <pt x="632" y="393" on="0"/>
        <pt x="677" y="341" on="0"/>
        <pt x="699" y="269" on="0"/>
        <pt x="699" y="226" on="1"/>
        <pt x="699" y="223" on="0"/>
        <pt x="700" y="211" on="0"/>
        <pt x="700" y="208" on="1"/>
        <pt x="362" y="208" on="1"/>
        <pt x="362" y="168" on="0"/>
        <pt x="386" y="99" on="0"/>
        <pt x="432" y="49" on="0"/>
        <pt x="501" y="21" on="0"/>
        <pt x="547" y="21" on="1"/>
        <pt x="579" y="21" on="0"/>
        <pt x="641" y="36" on="0"/>
        <pt x="668" y="49" on="1"/>
        <pt x="672" y="35" on="1"/>
        <pt x="674" y="30" on="0"/>
        <pt x="677" y="20" on="0"/>
        <pt x="677" y="21" on="1"/>
        <pt x="649" y="7" on="0"/>
        <pt x="579" y="-8" on="0"/>
        <pt x="547" y="-8" on="1"/>
        <pt x="468" y="-8" on="0"/>
        <pt x="369" y="60" on="0"/>
        <pt x="349" y="116" on="1"/>
        <pt x="329" y="53" on="0"/>
        <pt x="237" y="-8" on="0"/>
        <pt x="181" y="-8" on="1"/>
        <pt x="153" y="-8" on="0"/>
        <pt x="102" y="9" on="0"/>
        <pt x="64" y="41" on="0"/>
        <pt x="42" y="89" on="0"/>
        <pt x="42" y="119" on="1"/>
        <pt x="42" y="149" on="0"/>
        <pt x="68" y="197" on="0"/>
        <pt x="112" y="231" on="0"/>
        <pt x="170" y="249" on="0"/>
        <pt x="203" y="249" on="1"/>
        <pt x="241" y="249" on="0"/>
        <pt x="304" y="228" on="0"/>
        <pt x="331" y="214" on="1"/>
      </contour>
      <contour>
        <pt x="667" y="236" on="1"/>
        <pt x="665" y="269" on="0"/>
        <pt x="646" y="327" on="0"/>
        <pt x="610" y="369" on="0"/>
        <pt x="556" y="394" on="0"/>
        <pt x="520" y="394" on="1"/>
        <pt x="485" y="394" on="0"/>
        <pt x="430" y="370" on="0"/>
        <pt x="390" y="328" on="0"/>
        <pt x="366" y="270" on="0"/>
        <pt x="363" y="236" on="1"/>
      </contour>
      <contour>
        <pt x="333" y="184" on="1"/>
        <pt x="302" y="202" on="0"/>
        <pt x="241" y="222" on="0"/>
        <pt x="204" y="222" on="1"/>
        <pt x="149" y="222" on="0"/>
        <pt x="73" y="169" on="0"/>
        <pt x="73" y="119" on="1"/>
        <pt x="73" y="71" on="0"/>
        <pt x="136" y="20" on="0"/>
        <pt x="183" y="20" on="1"/>
        <pt x="209" y="20" on="0"/>
        <pt x="261" y="37" on="0"/>
        <pt x="303" y="76" on="0"/>
        <pt x="331" y="139" on="0"/>
      </contour>
    </TTGlyph>
    <TTGlyph name="aeacute" xMin="42" yMin="-8" xMax="700" yMax="615">
      <component glyphName="ae" x="0" y="0" flags="0x204"/>
      <component glyphName="acute" x="224" y="0" flags="0x4"/>
    </TTGlyph>
    <TTGlyph name="agrave" xMin="36" yMin="-8" xMax="363" yMax="615">
      <component glyphName="a" x="0" y="0" flags="0x204"/>
      <component glyphName="grave" x="-84" y="0" flags="0x4"/>
    </TTGlyph>
    <TTGlyph name="amacron" xMin="42" yMin="-8" xMax="363" yMax="552">
      <component glyphName="a" x="0" y="0" flags="0x204"/>
      <component glyphName="macron" x="-4" y="0" flags="0x4"/>
    </TTGlyph>
    <TTGlyph name="ampersand" xMin="50" yMin="-13" xMax="548" yMax="583">
      <contour>
        <pt x="548" y="261" on="1"/>
        <pt x="525" y="228" on="0"/>
        <pt x="463" y="145" on="0"/>
        <pt x="426" y="107" on="1"/>
        <pt x="456" y="79" on="0"/>
        <pt x="512" y="29" on="0"/>
        <pt x="536" y="9" on="1"/>
        <pt x="516" y="-13" on="1"/>
        <pt x="493" y="6" on="0"/>
        <pt x="437" y="58" on="0"/>
        <pt x="405" y="87" on="1"/>
        <pt x="363" y="46" on="0"/>
        <pt x="269" y="-6" on="0"/>
        <pt x="218" y="-6" on="1"/>
        <pt x="180" y="-6" on="0"/>
        <pt x="119" y="16" on="0"/>
        <pt x="74" y="56" on="0"/>
        <pt x="50" y="110" on="0"/>
        <pt x="50" y="143" on="1"/>
        <pt x="50" y="208" on="0"/>
        <pt x="126" y="288" on="0"/>
        <pt x="195" y="316" on="1"/>
        <pt x="174" y="348" on="0"/>
        <pt x="145" y="414" on="0"/>
        <pt x="145" y="446" on="1"/>
        <pt x="145" y="476" on="0"/>
        <pt x="167" y="526" on="0"/>
        <pt x="203" y="562" on="0"/>
        <pt x="251" y="583" on="0"/>
        <pt x="277" y="583" on="1"/>
        <pt x="306" y="583" on="0"/>
        <pt x="352" y="564" on="0"/>
        <pt x="383" y="532" on="0"/>
        <pt x="400" y="491" on="0"/>
        <pt x="400" y="470" on="1"/>
        <pt x="400" y="413" on="0"/>
        <pt x="315" y="335" on="0"/>
        <pt x="240" y="306" on="1"/>
        <pt x="267" y="269" on="0"/>
        <pt x="357" y="174" on="0"/>
        <pt x="406" y="127" on="1"/>
        <pt x="441" y="163" on="0"/>
        <pt x="502" y="245" on="0"/>
        <pt x="525" y="278" on="1"/>
      </contour>
      <contour>
        <pt x="367" y="469" on="1"/>
        <pt x="367" y="502" on="0"/>
        <pt x="321" y="557" on="0"/>
        <pt x="276" y="557" on="1"/>
        <pt x="256" y="557" on="0"/>
        <pt x="220" y="540" on="0"/>
        <pt x="192" y="511" on="0"/>
        <pt x="176" y="471" on="0"/>
        <pt x="176" y="447" on="1"/>
        <pt x="176" y="418" on="0"/>
        <pt x="204" y="357" on="0"/>
        <pt x="224" y="327" on="1"/>
        <pt x="265" y="343" on="0"/>
        <pt x="320" y="375" on="0"/>
        <pt x="353" y="409" on="0"/>
        <pt x="367" y="446" on="0"/>
      </contour>
      <contour>
        <pt x="385" y="106" on="1"/>
        <pt x="360" y="130" on="0"/>
        <pt x="310" y="180" on="0"/>
        <pt x="264" y="229" on="0"/>
        <pt x="225" y="274" on="0"/>
        <pt x="210" y="294" on="1"/>
        <pt x="147" y="270" on="0"/>
        <pt x="82" y="197" on="0"/>
        <pt x="82" y="143" on="1"/>
        <pt x="82" y="117" on="0"/>
        <pt x="102" y="72" on="0"/>
        <pt x="138" y="40" on="0"/>
        <pt x="188" y="22" on="0"/>
        <pt x="218" y="22" on="1"/>
        <pt x="263" y="22" on="0"/>
        <pt x="346" y="69" on="0"/>
      </contour>
    </TTGlyph>
    <TTGlyph name="ampersand.cap" xMin="63" yMin="-18" xMax="695" yMax="742">
      <contour>
        <pt x="271" y="410" on="1"/>
        <pt x="328" y="432" on="0"/>
        <pt x="403" y="474" on="0"/>
        <pt x="448" y="519" on="0"/>
        <pt x="467" y="569" on="0"/>
        <pt x="467" y="599" on="1"/>
        <pt x="467" y="621" on="0"/>
        <pt x="452" y="662" on="0"/>
        <pt x="422" y="694" on="0"/>
        <pt x="378" y="714" on="0"/>
        <pt x="348" y="714" on="1"/>
        <pt x="322" y="714" on="0"/>
        <pt x="275" y="692" on="0"/>
        <pt x="239" y="654" on="0"/>
        <pt x="218" y="602" on="0"/>
        <pt x="218" y="571" on="1"/>
        <pt x="218" y="531" on="0"/>
        <pt x="245" y="451" on="0"/>
      </contour>
      <contour>
        <pt x="487" y="127" on="1"/>
        <pt x="424" y="183" on="0"/>
        <pt x="301" y="309" on="0"/>
        <pt x="256" y="376" on="1"/>
        <pt x="178" y="344" on="0"/>
        <pt x="97" y="250" on="0"/>
        <pt x="97" y="181" on="1"/>
        <pt x="97" y="147" on="0"/>
        <pt x="123" y="89" on="0"/>
        <pt x="170" y="47" on="0"/>
        <pt x="236" y="23" on="0"/>
        <pt x="275" y="23" on="1"/>
        <pt x="331" y="23" on="0"/>
        <pt x="439" y="82" on="0"/>
      </contour>
      <contour>
        <pt x="286" y="387" on="1"/>
        <pt x="328" y="326" on="0"/>
        <pt x="447" y="205" on="0"/>
        <pt x="510" y="149" on="1"/>
        <pt x="559" y="200" on="0"/>
        <pt x="640" y="309" on="0"/>
        <pt x="670" y="352" on="1"/>
        <pt x="695" y="335" on="1"/>
        <pt x="665" y="291" on="0"/>
        <pt x="582" y="181" on="0"/>
        <pt x="532" y="130" on="1"/>
        <pt x="573" y="95" on="0"/>
        <pt x="647" y="33" on="0"/>
        <pt x="677" y="7" on="1"/>
        <pt x="656" y="-18" on="1"/>
        <pt x="628" y="8" on="0"/>
        <pt x="552" y="71" on="0"/>
        <pt x="509" y="108" on="1"/>
        <pt x="456" y="58" on="0"/>
        <pt x="339" y="-8" on="0"/>
        <pt x="275" y="-8" on="1"/>
        <pt x="227" y="-8" on="0"/>
        <pt x="149" y="21" on="0"/>
        <pt x="94" y="71" on="0"/>
        <pt x="63" y="140" on="0"/>
        <pt x="63" y="181" on="1"/>
        <pt x="63" y="262" on="0"/>
        <pt x="156" y="364" on="0"/>
        <pt x="241" y="399" on="1"/>
        <pt x="215" y="441" on="0"/>
        <pt x="185" y="527" on="0"/>
        <pt x="185" y="570" on="1"/>
        <pt x="185" y="607" on="0"/>
        <pt x="212" y="670" on="0"/>
        <pt x="257" y="716" on="0"/>
        <pt x="317" y="742" on="0"/>
        <pt x="350" y="742" on="1"/>
        <pt x="386" y="742" on="0"/>
        <pt x="442" y="718" on="0"/>
        <pt x="481" y="678" on="0"/>
        <pt x="502" y="628" on="0"/>
        <pt x="502" y="601" on="1"/>
        <pt x="502" y="562" on="0"/>
        <pt x="472" y="500" on="0"/>
        <pt x="416" y="449" on="0"/>
        <pt x="336" y="406" on="0"/>
      </contour>
    </TTGlyph>
    <TTGlyph name="aogonek" xMin="42" yMin="-219" xMax="395" yMax="423">
      <contour>
        <pt x="395" y="-169" on="1"/>
        <pt x="380" y="-191" on="0"/>
        <pt x="340" y="-219" on="0"/>
        <pt x="310" y="-219" on="1"/>
        <pt x="278" y="-219" on="0"/>
        <pt x="237" y="-182" on="0"/>
        <pt x="237" y="-147" on="1"/>
        <pt x="237" y="-108" on="0"/>
        <pt x="289" y="-35" on="0"/>
        <pt x="332" y="7" on="1"/>
        <pt x="332" y="45" on="1"/>
        <pt x="312" y="24" on="0"/>
        <pt x="240" y="-8" on="0"/>
        <pt x="199" y="-8" on="1"/>
        <pt x="166" y="-8" on="0"/>
        <pt x="109" y="9" on="0"/>
        <pt x="67" y="41" on="0"/>
        <pt x="42" y="88" on="0"/>
        <pt x="42" y="119" on="1"/>
        <pt x="42" y="150" on="0"/>
        <pt x="68" y="198" on="0"/>
        <pt x="112" y="231" on="0"/>
        <pt x="170" y="249" on="0"/>
        <pt x="203" y="249" on="1"/>
        <pt x="241" y="249" on="0"/>
        <pt x="304" y="228" on="0"/>
        <pt x="331" y="214" on="1"/>
        <pt x="331" y="265" on="1"/>
        <pt x="331" y="330" on="0"/>
        <pt x="272" y="394" on="0"/>
        <pt x="199" y="394" on="1"/>
        <pt x="176" y="394" on="0"/>
        <pt x="117" y="381" on="0"/>
        <pt x="91" y="370" on="1"/>
        <pt x="82" y="398" on="1"/>
        <pt x="109" y="409" on="0"/>
        <pt x="175" y="423" on="0"/>
        <pt x="201" y="423" on="1"/>
        <pt x="286" y="423" on="0"/>
        <pt x="363" y="344" on="0"/>
        <pt x="363" y="269" on="1"/>
        <pt x="363" y="0" on="1"/>
        <pt x="345" y="-17" on="0"/>
        <pt x="310" y="-53" on="0"/>
        <pt x="283" y="-90" on="0"/>
        <pt x="267" y="-127" on="0"/>
        <pt x="267" y="-145" on="1"/>
        <pt x="267" y="-168" on="0"/>
        <pt x="293" y="-192" on="0"/>
        <pt x="312" y="-192" on="1"/>
        <pt x="333" y="-192" on="0"/>
        <pt x="364" y="-169" on="0"/>
        <pt x="376" y="-152" on="1"/>
      </contour>
      <contour>
        <pt x="331" y="185" on="1"/>
        <pt x="301" y="203" on="0"/>
        <pt x="241" y="222" on="0"/>
        <pt x="204" y="222" on="1"/>
        <pt x="149" y="222" on="0"/>
        <pt x="73" y="169" on="0"/>
        <pt x="73" y="119" on="1"/>
        <pt x="73" y="69" on="0"/>
        <pt x="146" y="20" on="0"/>
        <pt x="201" y="20" on="1"/>
        <pt x="243" y="20" on="0"/>
        <pt x="309" y="52" on="0"/>
        <pt x="331" y="78" on="1"/>
      </contour>
    </TTGlyph>
    <TTGlyph name="aring" xMin="42" yMin="-8" xMax="363" yMax="683">
      <component glyphName="a" x="0" y="0" flags="0x204"/>
      <component glyphName="ring" x="-5" y="0" flags="0x4"/>
    </TTGlyph>
    <TTGlyph name="aringacute" xMin="42" yMin="-8" xMax="383" yMax="875">
      <component glyphName="a" x="0" y="0" flags="0x204"/>
      <component glyphName="ring" x="-8" y="0" flags="0x4"/>
      <component glyphName="acute" x="63" y="260" flags="0x4"/>
    </TTGlyph>
    <TTGlyph name="arrowleft" xMin="29" yMin="-1" xMax="661" yMax="486">
      <contour>
        <pt x="86" y="229" on="1"/>
        <pt x="337" y="22" on="1"/>
        <pt x="318" y="-1" on="1"/>
        <pt x="29" y="239" on="1"/>
        <pt x="29" y="246" on="1"/>
        <pt x="318" y="486" on="1"/>
        <pt x="337" y="463" on="1"/>
        <pt x="86" y="256" on="1"/>
        <pt x="661" y="257" on="1"/>
        <pt x="661" y="228" on="1"/>
      </contour>
    </TTGlyph>
    <TTGlyph name="arrowleft.cap" xMin="29" yMin="128" xMax="661" yMax="615">
      <component glyphName="arrowleft" x="0" y="129" flags="0x204"/>
    </TTGlyph>
    <TTGlyph name="arrowright" xMin="50" yMin="-1" xMax="682" yMax="486">
      <contour>
        <pt x="625" y="256" on="1"/>
        <pt x="374" y="463" on="1"/>
        <pt x="393" y="486" on="1"/>
        <pt x="682" y="246" on="1"/>
        <pt x="682" y="239" on="1"/>
        <pt x="393" y="-1" on="1"/>
        <pt x="374" y="22" on="1"/>
        <pt x="625" y="229" on="1"/>
        <pt x="50" y="228" on="1"/>
        <pt x="50" y="257" on="1"/>
      </contour>
    </TTGlyph>
    <TTGlyph name="arrowright.cap" xMin="50" yMin="128" xMax="682" yMax="615">
      <component glyphName="arrowright" x="0" y="129" flags="0x204"/>
    </TTGlyph>
    <TTGlyph name="asciicircum" xMin="95" yMin="485" xMax="345" yMax="622">
      <contour>
        <pt x="308" y="485" on="1"/>
        <pt x="218" y="595" on="1"/>
        <pt x="133" y="485" on="1"/>
        <pt x="95" y="485" on="1"/>
        <pt x="204" y="622" on="1"/>
        <pt x="234" y="622" on="1"/>
        <pt x="345" y="485" on="1"/>
      </contour>
    </TTGlyph>
    <TTGlyph name="asciitilde" xMin="67" yMin="331" xMax="372" yMax="414">
      <contour>
        <pt x="372" y="386" on="1"/>
        <pt x="345" y="356" on="0"/>
        <pt x="302" y="331" on="0"/>
        <pt x="279" y="332" on="1"/>
        <pt x="262" y="333" on="0"/>
        <pt x="230" y="348" on="0"/>
        <pt x="214" y="357" on="1"/>
        <pt x="199" y="366" on="0"/>
        <pt x="170" y="381" on="0"/>
        <pt x="158" y="382" on="1"/>
        <pt x="141" y="383" on="0"/>
        <pt x="109" y="363" on="0"/>
        <pt x="86" y="337" on="1"/>
        <pt x="67" y="359" on="1"/>
        <pt x="94" y="389" on="0"/>
        <pt x="137" y="414" on="0"/>
        <pt x="160" y="413" on="1"/>
        <pt x="177" y="412" on="0"/>
        <pt x="209" y="397" on="0"/>
        <pt x="225" y="388" on="1"/>
        <pt x="240" y="379" on="0"/>
        <pt x="269" y="364" on="0"/>
        <pt x="281" y="363" on="1"/>
        <pt x="298" y="362" on="0"/>
        <pt x="330" y="382" on="0"/>
        <pt x="353" y="408" on="1"/>
      </contour>
    </TTGlyph>
    <TTGlyph name="asterisk" xMin="26" yMin="454" xMax="332" yMax="742">
      <contour>
        <pt x="199" y="580" on="1"/>
        <pt x="282" y="469" on="1"/>
        <pt x="261" y="454" on="1"/>
        <pt x="179" y="567" on="1"/>
        <pt x="97" y="454" on="1"/>
        <pt x="76" y="469" on="1"/>
        <pt x="159" y="580" on="1"/>
        <pt x="26" y="623" on="1"/>
        <pt x="34" y="648" on="1"/>
        <pt x="167" y="603" on="1"/>
        <pt x="165" y="742" on="1"/>
        <pt x="193" y="742" on="1"/>
        <pt x="191" y="603" on="1"/>
        <pt x="324" y="648" on="1"/>
        <pt x="332" y="623" on="1"/>
      </contour>
    </TTGlyph>
    <TTGlyph name="at" xMin="50" yMin="-12" xMax="635" yMax="584">
      <contour>
        <pt x="635" y="313" on="1"/>
        <pt x="635" y="267" on="0"/>
        <pt x="611" y="196" on="0"/>
        <pt x="589" y="174" on="1"/>
        <pt x="557" y="142" on="0"/>
        <pt x="514" y="142" on="1"/>
        <pt x="489" y="142" on="0"/>
        <pt x="443" y="168" on="0"/>
        <pt x="431" y="192" on="1"/>
        <pt x="412" y="172" on="0"/>
        <pt x="364" y="145" on="0"/>
        <pt x="335" y="145" on="1"/>
        <pt x="297" y="145" on="0"/>
        <pt x="240" y="187" on="0"/>
        <pt x="240" y="230" on="1"/>
        <pt x="240" y="265" on="0"/>
        <pt x="293" y="310" on="0"/>
        <pt x="338" y="310" on="1"/>
        <pt x="361" y="310" on="0"/>
        <pt x="405" y="296" on="0"/>
        <pt x="422" y="285" on="1"/>
        <pt x="422" y="304" on="1"/>
        <pt x="422" y="350" on="0"/>
        <pt x="379" y="387" on="0"/>
        <pt x="340" y="387" on="1"/>
        <pt x="326" y="387" on="0"/>
        <pt x="289" y="380" on="0"/>
        <pt x="270" y="372" on="1"/>
        <pt x="261" y="399" on="1"/>
        <pt x="275" y="405" on="0"/>
        <pt x="321" y="417" on="0"/>
        <pt x="342" y="417" on="1"/>
        <pt x="453" y="417" on="0"/>
        <pt x="453" y="304" on="1"/>
        <pt x="453" y="248" on="1"/>
        <pt x="453" y="205" on="0"/>
        <pt x="490" y="170" on="0"/>
        <pt x="514" y="170" on="1"/>
        <pt x="547" y="170" on="0"/>
        <pt x="567" y="191" on="1"/>
        <pt x="584" y="207" on="0"/>
        <pt x="603" y="271" on="0"/>
        <pt x="603" y="313" on="1"/>
        <pt x="603" y="355" on="0"/>
        <pt x="571" y="441" on="0"/>
        <pt x="507" y="511" on="0"/>
        <pt x="408" y="555" on="0"/>
        <pt x="342" y="555" on="1"/>
        <pt x="287" y="555" on="0"/>
        <pt x="192" y="513" on="0"/>
        <pt x="122" y="440" on="0"/>
        <pt x="82" y="342" on="0"/>
        <pt x="82" y="286" on="1"/>
        <pt x="82" y="229" on="0"/>
        <pt x="121" y="131" on="0"/>
        <pt x="195" y="59" on="0"/>
        <pt x="302" y="17" on="0"/>
        <pt x="370" y="17" on="1"/>
        <pt x="397" y="17" on="0"/>
        <pt x="466" y="29" on="0"/>
        <pt x="498" y="40" on="1"/>
        <pt x="502" y="26" on="1"/>
        <pt x="504" y="21" on="0"/>
        <pt x="507" y="12" on="0"/>
        <pt x="507" y="13" on="1"/>
        <pt x="471" y="2" on="0"/>
        <pt x="399" y="-12" on="0"/>
        <pt x="370" y="-12" on="1"/>
        <pt x="296" y="-12" on="0"/>
        <pt x="177" y="35" on="0"/>
        <pt x="94" y="116" on="0"/>
        <pt x="50" y="224" on="0"/>
        <pt x="50" y="286" on="1"/>
        <pt x="50" y="348" on="0"/>
        <pt x="96" y="456" on="0"/>
        <pt x="175" y="537" on="0"/>
        <pt x="282" y="584" on="0"/>
        <pt x="342" y="584" on="1"/>
        <pt x="416" y="584" on="0"/>
        <pt x="526" y="535" on="0"/>
        <pt x="599" y="457" on="0"/>
        <pt x="635" y="360" on="0"/>
      </contour>
      <contour>
        <pt x="422" y="255" on="1"/>
        <pt x="407" y="266" on="0"/>
        <pt x="360" y="282" on="0"/>
        <pt x="338" y="282" on="1"/>
        <pt x="308" y="282" on="0"/>
        <pt x="272" y="255" on="0"/>
        <pt x="272" y="230" on="1"/>
        <pt x="272" y="203" on="0"/>
        <pt x="308" y="173" on="0"/>
        <pt x="335" y="173" on="1"/>
        <pt x="361" y="173" on="0"/>
        <pt x="405" y="196" on="0"/>
        <pt x="422" y="213" on="1"/>
      </contour>
    </TTGlyph>
    <TTGlyph name="at.cap" xMin="66" yMin="-8" xMax="801" yMax="742">
      <contour>
        <pt x="801" y="400" on="1"/>
        <pt x="801" y="343" on="0"/>
        <pt x="768" y="256" on="0"/>
        <pt x="741" y="229" on="1"/>
        <pt x="724" y="212" on="0"/>
        <pt x="675" y="191" on="0"/>
        <pt x="646" y="191" on="1"/>
        <pt x="614" y="191" on="0"/>
        <pt x="557" y="226" on="0"/>
        <pt x="547" y="258" on="1"/>
        <pt x="521" y="226" on="0"/>
        <pt x="456" y="193" on="0"/>
        <pt x="421" y="193" on="1"/>
        <pt x="397" y="193" on="0"/>
        <pt x="355" y="205" on="0"/>
        <pt x="324" y="230" on="0"/>
        <pt x="305" y="268" on="0"/>
        <pt x="305" y="294" on="1"/>
        <pt x="305" y="337" on="0"/>
        <pt x="374" y="392" on="0"/>
        <pt x="425" y="392" on="1"/>
        <pt x="453" y="392" on="0"/>
        <pt x="507" y="375" on="0"/>
        <pt x="536" y="358" on="1"/>
        <pt x="536" y="388" on="1"/>
        <pt x="536" y="442" on="0"/>
        <pt x="488" y="496" on="0"/>
        <pt x="428" y="496" on="1"/>
        <pt x="409" y="496" on="0"/>
        <pt x="365" y="486" on="0"/>
        <pt x="344" y="478" on="1"/>
        <pt x="337" y="506" on="1"/>
        <pt x="354" y="514" on="0"/>
        <pt x="407" y="528" on="0"/>
        <pt x="434" y="528" on="1"/>
        <pt x="503" y="528" on="0"/>
        <pt x="569" y="460" on="0"/>
        <pt x="569" y="389" on="1"/>
        <pt x="569" y="312" on="1"/>
        <pt x="569" y="261" on="0"/>
        <pt x="618" y="221" on="0"/>
        <pt x="648" y="221" on="1"/>
        <pt x="690" y="221" on="0"/>
        <pt x="718" y="250" on="1"/>
        <pt x="738" y="270" on="0"/>
        <pt x="766" y="346" on="0"/>
        <pt x="766" y="398" on="1"/>
        <pt x="766" y="453" on="0"/>
        <pt x="728" y="565" on="0"/>
        <pt x="649" y="656" on="0"/>
        <pt x="526" y="713" on="0"/>
        <pt x="441" y="713" on="1"/>
        <pt x="369" y="713" on="0"/>
        <pt x="244" y="659" on="0"/>
        <pt x="153" y="565" on="0"/>
        <pt x="101" y="438" on="0"/>
        <pt x="101" y="365" on="1"/>
        <pt x="101" y="293" on="0"/>
        <pt x="150" y="168" on="0"/>
        <pt x="243" y="76" on="0"/>
        <pt x="380" y="23" on="0"/>
        <pt x="468" y="23" on="1"/>
        <pt x="500" y="23" on="0"/>
        <pt x="586" y="38" on="0"/>
        <pt x="626" y="50" on="1"/>
        <pt x="634" y="22" on="1"/>
        <pt x="590" y="8" on="0"/>
        <pt x="503" y="-8" on="0"/>
        <pt x="468" y="-8" on="1"/>
        <pt x="373" y="-8" on="0"/>
        <pt x="223" y="49" on="0"/>
        <pt x="120" y="149" on="0"/>
        <pt x="66" y="285" on="0"/>
        <pt x="66" y="365" on="1"/>
        <pt x="66" y="443" on="0"/>
        <pt x="124" y="580" on="0"/>
        <pt x="224" y="683" on="0"/>
        <pt x="361" y="742" on="0"/>
        <pt x="441" y="742" on="1"/>
        <pt x="533" y="742" on="0"/>
        <pt x="669" y="680" on="0"/>
        <pt x="758" y="582" on="0"/>
        <pt x="801" y="460" on="0"/>
      </contour>
      <contour>
        <pt x="536" y="326" on="1"/>
        <pt x="515" y="342" on="0"/>
        <pt x="453" y="362" on="0"/>
        <pt x="425" y="362" on="1"/>
        <pt x="389" y="362" on="0"/>
        <pt x="339" y="325" on="0"/>
        <pt x="339" y="294" on="1"/>
        <pt x="339" y="262" on="0"/>
        <pt x="389" y="223" on="0"/>
        <pt x="422" y="223" on="1"/>
        <pt x="454" y="223" on="0"/>
        <pt x="516" y="257" on="0"/>
        <pt x="536" y="285" on="1"/>
      </contour>
    </TTGlyph>
    <TTGlyph name="atilde" xMin="42" yMin="-8" xMax="368" yMax="585">
      <component glyphName="a" x="0" y="0" flags="0x204"/>
      <component glyphName="tilde" x="-4" y="0" flags="0x4"/>
    </TTGlyph>
    <TTGlyph name="b" xMin="69" yMin="-8" xMax="456" yMax="733">
      <contour>
        <pt x="456" y="208" on="1"/>
        <pt x="456" y="162" on="0"/>
        <pt x="425" y="83" on="0"/>
        <pt x="370" y="25" on="0"/>
        <pt x="295" y="-8" on="0"/>
        <pt x="252" y="-8" on="1"/>
        <pt x="203" y="-8" on="0"/>
        <pt x="126" y="31" on="0"/>
        <pt x="101" y="57" on="1"/>
        <pt x="101" y="0" on="1"/>
        <pt x="69" y="0" on="1"/>
        <pt x="69" y="733" on="1"/>
        <pt x="101" y="733" on="1"/>
        <pt x="101" y="357" on="1"/>
        <pt x="127" y="383" on="0"/>
        <pt x="204" y="423" on="0"/>
        <pt x="254" y="423" on="1"/>
        <pt x="297" y="423" on="0"/>
        <pt x="371" y="390" on="0"/>
        <pt x="425" y="333" on="0"/>
        <pt x="456" y="254" on="0"/>
      </contour>
      <contour>
        <pt x="423" y="208" on="1"/>
        <pt x="423" y="249" on="0"/>
        <pt x="397" y="317" on="0"/>
        <pt x="352" y="367" on="0"/>
        <pt x="289" y="394" on="0"/>
        <pt x="253" y="394" on="1"/>
        <pt x="205" y="394" on="0"/>
        <pt x="127" y="350" on="0"/>
        <pt x="101" y="318" on="1"/>
        <pt x="101" y="95" on="1"/>
        <pt x="127" y="63" on="0"/>
        <pt x="205" y="21" on="0"/>
        <pt x="253" y="21" on="1"/>
        <pt x="289" y="21" on="0"/>
        <pt x="352" y="48" on="0"/>
        <pt x="397" y="98" on="0"/>
        <pt x="423" y="167" on="0"/>
      </contour>
    </TTGlyph>
    <TTGlyph name="backslash" xMin="1" yMin="-216" xMax="272" yMax="733">
      <contour>
        <pt x="239" y="-216" on="1"/>
        <pt x="1" y="733" on="1"/>
        <pt x="33" y="733" on="1"/>
        <pt x="272" y="-216" on="1"/>
      </contour>
    </TTGlyph>
    <TTGlyph name="backslash.cap" xMin="15" yMin="-111" xMax="286" yMax="838">
      <component glyphName="backslash" x="14" y="105" flags="0x204"/>
    </TTGlyph>
    <TTGlyph name="bar" xMin="90" yMin="-218" xMax="121" yMax="731">
      <contour>
        <pt x="90" y="-218" on="1"/>
        <pt x="90" y="731" on="1"/>
        <pt x="121" y="731" on="1"/>
        <pt x="121" y="-218" on="1"/>
      </contour>
    </TTGlyph>
    <TTGlyph name="bar.cap" xMin="90" yMin="-111" xMax="121" yMax="838">
      <component glyphName="bar" x="0" y="107" flags="0x204"/>
    </TTGlyph>
    <TTGlyph name="braceleft" xMin="15" yMin="-223" xMax="277" yMax="740">
      <contour>
        <pt x="277" y="-223" on="1"/>
        <pt x="110" y="-223" on="0"/>
        <pt x="110" y="-49" on="1"/>
        <pt x="110" y="165" on="1"/>
        <pt x="110" y="203" on="0"/>
        <pt x="81" y="244" on="0"/>
        <pt x="38" y="244" on="1"/>
        <pt x="15" y="244" on="1"/>
        <pt x="15" y="275" on="1"/>
        <pt x="38" y="275" on="1"/>
        <pt x="81" y="275" on="0"/>
        <pt x="110" y="316" on="0"/>
        <pt x="110" y="354" on="1"/>
        <pt x="110" y="566" on="1"/>
        <pt x="110" y="740" on="0"/>
        <pt x="277" y="740" on="1"/>
        <pt x="277" y="711" on="1"/>
        <pt x="209" y="711" on="0"/>
        <pt x="143" y="643" on="0"/>
        <pt x="143" y="566" on="1"/>
        <pt x="143" y="365" on="1"/>
        <pt x="143" y="320" on="0"/>
        <pt x="116" y="268" on="0"/>
        <pt x="80" y="260" on="1"/>
        <pt x="116" y="251" on="0"/>
        <pt x="143" y="199" on="0"/>
        <pt x="143" y="154" on="1"/>
        <pt x="143" y="-49" on="1"/>
        <pt x="143" y="-126" on="0"/>
        <pt x="209" y="-194" on="0"/>
        <pt x="277" y="-194" on="1"/>
      </contour>
    </TTGlyph>
    <TTGlyph name="braceleft.cap" xMin="15" yMin="-118" xMax="277" yMax="845">
      <component glyphName="braceleft" x="0" y="105" flags="0x204"/>
    </TTGlyph>
    <TTGlyph name="braceright" xMin="18" yMin="-223" xMax="280" yMax="740">
      <contour>
        <pt x="257" y="244" on="1"/>
        <pt x="214" y="244" on="0"/>
        <pt x="185" y="203" on="0"/>
        <pt x="185" y="165" on="1"/>
        <pt x="185" y="-49" on="1"/>
        <pt x="185" y="-223" on="0"/>
        <pt x="18" y="-223" on="1"/>
        <pt x="18" y="-194" on="1"/>
        <pt x="86" y="-194" on="0"/>
        <pt x="152" y="-126" on="0"/>
        <pt x="152" y="-49" on="1"/>
        <pt x="152" y="154" on="1"/>
        <pt x="152" y="199" on="0"/>
        <pt x="179" y="251" on="0"/>
        <pt x="215" y="260" on="1"/>
        <pt x="179" y="268" on="0"/>
        <pt x="152" y="320" on="0"/>
        <pt x="152" y="365" on="1"/>
        <pt x="152" y="566" on="1"/>
        <pt x="152" y="643" on="0"/>
        <pt x="86" y="711" on="0"/>
        <pt x="18" y="711" on="1"/>
        <pt x="18" y="740" on="1"/>
        <pt x="185" y="740" on="0"/>
        <pt x="185" y="566" on="1"/>
        <pt x="185" y="354" on="1"/>
        <pt x="185" y="316" on="0"/>
        <pt x="214" y="275" on="0"/>
        <pt x="257" y="275" on="1"/>
        <pt x="280" y="275" on="1"/>
        <pt x="280" y="244" on="1"/>
      </contour>
    </TTGlyph>
    <TTGlyph name="braceright.cap" xMin="18" yMin="-117" xMax="280" yMax="846">
      <component glyphName="braceright" x="0" y="106" flags="0x204"/>
    </TTGlyph>
    <TTGlyph name="bracketleft" xMin="80" yMin="-216" xMax="269" yMax="733">
      <contour>
        <pt x="80" y="-216" on="1"/>
        <pt x="80" y="733" on="1"/>
        <pt x="269" y="733" on="1"/>
        <pt x="269" y="704" on="1"/>
        <pt x="112" y="704" on="1"/>
        <pt x="112" y="-187" on="1"/>
        <pt x="269" y="-187" on="1"/>
        <pt x="269" y="-216" on="1"/>
      </contour>
    </TTGlyph>
    <TTGlyph name="bracketleft.cap" xMin="80" yMin="-111" xMax="269" yMax="838">
      <component glyphName="bracketleft" x="0" y="105" flags="0x204"/>
    </TTGlyph>
    <TTGlyph name="bracketright" xMin="25" yMin="-216" xMax="214" yMax="733">
      <contour>
        <pt x="25" y="-216" on="1"/>
        <pt x="25" y="-187" on="1"/>
        <pt x="182" y="-187" on="1"/>
        <pt x="182" y="704" on="1"/>
        <pt x="25" y="704" on="1"/>
        <pt x="25" y="733" on="1"/>
        <pt x="214" y="733" on="1"/>
        <pt x="214" y="-216" on="1"/>
      </contour>
    </TTGlyph>
    <TTGlyph name="bracketright.cap" xMin="25" yMin="-111" xMax="214" yMax="838">
      <component glyphName="bracketright" x="0" y="105" flags="0x204"/>
    </TTGlyph>
    <TTGlyph name="breve" xMin="97" yMin="491" xMax="342" yMax="615">
      <contour>
        <pt x="342" y="611" on="1"/>
        <pt x="342" y="587" on="0"/>
        <pt x="325" y="543" on="0"/>
        <pt x="293" y="510" on="0"/>
        <pt x="248" y="491" on="0"/>
        <pt x="219" y="491" on="1"/>
        <pt x="190" y="491" on="0"/>
        <pt x="146" y="510" on="0"/>
        <pt x="114" y="543" on="0"/>
        <pt x="97" y="587" on="0"/>
        <pt x="97" y="611" on="1"/>
        <pt x="127" y="615" on="1"/>
        <pt x="129" y="571" on="0"/>
        <pt x="177" y="519" on="0"/>
        <pt x="219" y="519" on="1"/>
        <pt x="261" y="519" on="0"/>
        <pt x="310" y="571" on="0"/>
        <pt x="312" y="615" on="1"/>
      </contour>
    </TTGlyph>
    <TTGlyph name="bullet" xMin="65" yMin="267" xMax="257" yMax="465">
      <contour>
        <pt x="257" y="366" on="1"/>
        <pt x="257" y="325" on="0"/>
        <pt x="202" y="267" on="0"/>
        <pt x="161" y="267" on="1"/>
        <pt x="120" y="267" on="0"/>
        <pt x="65" y="325" on="0"/>
        <pt x="65" y="366" on="1"/>
        <pt x="65" y="407" on="0"/>
        <pt x="120" y="465" on="0"/>
        <pt x="161" y="465" on="1"/>
        <pt x="202" y="465" on="0"/>
        <pt x="257" y="407" on="0"/>
      </contour>
    </TTGlyph>
    <TTGlyph name="c" xMin="43" yMin="-8" xMax="389" yMax="423">
      <contour>
        <pt x="389" y="33" on="1"/>
        <pt x="361" y="15" on="0"/>
        <pt x="294" y="-8" on="0"/>
        <pt x="255" y="-8" on="1"/>
        <pt x="209" y="-8" on="0"/>
        <pt x="131" y="25" on="0"/>
        <pt x="75" y="83" on="0"/>
        <pt x="43" y="161" on="0"/>
        <pt x="43" y="206" on="1"/>
        <pt x="43" y="251" on="0"/>
        <pt x="74" y="330" on="0"/>
        <pt x="131" y="389" on="0"/>
        <pt x="208" y="423" on="0"/>
        <pt x="255" y="423" on="1"/>
        <pt x="294" y="423" on="0"/>
        <pt x="361" y="400" on="0"/>
        <pt x="389" y="382" on="1"/>
        <pt x="372" y="357" on="1"/>
        <pt x="347" y="373" on="0"/>
        <pt x="290" y="394" on="0"/>
        <pt x="255" y="394" on="1"/>
        <pt x="215" y="394" on="0"/>
        <pt x="149" y="365" on="0"/>
        <pt x="102" y="316" on="0"/>
        <pt x="76" y="248" on="0"/>
        <pt x="76" y="209" on="1"/>
        <pt x="76" y="170" on="0"/>
        <pt x="102" y="101" on="0"/>
        <pt x="149" y="50" on="0"/>
        <pt x="215" y="21" on="0"/>
        <pt x="255" y="21" on="1"/>
        <pt x="290" y="21" on="0"/>
        <pt x="347" y="42" on="0"/>
        <pt x="372" y="58" on="1"/>
      </contour>
    </TTGlyph>
    <TTGlyph name="cacute" xMin="43" yMin="-8" xMax="416" yMax="615">
      <component glyphName="c" x="0" y="0" flags="0x204"/>
      <component glyphName="acute" x="96" y="0" flags="0x4"/>
    </TTGlyph>
    <TTGlyph name="caron" xMin="95" yMin="486" xMax="345" yMax="623">
      <contour>
        <pt x="236" y="486" on="1"/>
        <pt x="206" y="486" on="1"/>
        <pt x="95" y="623" on="1"/>
        <pt x="132" y="623" on="1"/>
        <pt x="222" y="513" on="1"/>
        <pt x="307" y="623" on="1"/>
        <pt x="345" y="623" on="1"/>
      </contour>
    </TTGlyph>
    <TTGlyph name="caron.alt" xMin="61" yMin="553" xMax="162" yMax="736">
      <contour>
        <pt x="162" y="732" on="1"/>
        <pt x="162" y="672" on="0"/>
        <pt x="116" y="584" on="0"/>
        <pt x="74" y="553" on="1"/>
        <pt x="61" y="566" on="1"/>
        <pt x="94" y="597" on="0"/>
        <pt x="129" y="680" on="0"/>
        <pt x="129" y="736" on="1"/>
      </contour>
    </TTGlyph>
    <TTGlyph name="ccaron" xMin="43" yMin="-8" xMax="389" yMax="623">
      <component glyphName="c" x="0" y="0" flags="0x204"/>
      <component glyphName="caron" x="23" y="0" flags="0x4"/>
    </TTGlyph>
    <TTGlyph name="ccedilla" xMin="43" yMin="-237" xMax="389" yMax="423">
      <contour>
        <pt x="389" y="33" on="1"/>
        <pt x="361" y="15" on="0"/>
        <pt x="294" y="-8" on="0"/>
        <pt x="255" y="-8" on="1"/>
        <pt x="242" y="-8" on="1"/>
        <pt x="229" y="-59" on="1"/>
        <pt x="283" y="-68" on="0"/>
        <pt x="339" y="-119" on="0"/>
        <pt x="339" y="-154" on="1"/>
        <pt x="339" y="-187" on="0"/>
        <pt x="286" y="-237" on="0"/>
        <pt x="235" y="-237" on="1"/>
        <pt x="210" y="-237" on="0"/>
        <pt x="159" y="-219" on="0"/>
        <pt x="131" y="-205" on="1"/>
        <pt x="144" y="-179" on="1"/>
        <pt x="171" y="-193" on="0"/>
        <pt x="215" y="-209" on="0"/>
        <pt x="235" y="-209" on="1"/>
        <pt x="270" y="-209" on="0"/>
        <pt x="306" y="-180" on="0"/>
        <pt x="306" y="-155" on="1"/>
        <pt x="306" y="-129" on="0"/>
        <pt x="257" y="-89" on="0"/>
        <pt x="197" y="-82" on="1"/>
        <pt x="195" y="-78" on="1"/>
        <pt x="214" y="-4" on="1"/>
        <pt x="176" y="3" on="0"/>
        <pt x="113" y="40" on="0"/>
        <pt x="68" y="96" on="0"/>
        <pt x="43" y="166" on="0"/>
        <pt x="43" y="206" on="1"/>
        <pt x="43" y="251" on="0"/>
        <pt x="74" y="330" on="0"/>
        <pt x="131" y="389" on="0"/>
        <pt x="208" y="423" on="0"/>
        <pt x="255" y="423" on="1"/>
        <pt x="294" y="423" on="0"/>
        <pt x="361" y="400" on="0"/>
        <pt x="389" y="382" on="1"/>
        <pt x="372" y="357" on="1"/>
        <pt x="347" y="373" on="0"/>
        <pt x="290" y="394" on="0"/>
        <pt x="255" y="394" on="1"/>
        <pt x="215" y="394" on="0"/>
        <pt x="149" y="365" on="0"/>
        <pt x="102" y="316" on="0"/>
        <pt x="76" y="248" on="0"/>
        <pt x="76" y="209" on="1"/>
        <pt x="76" y="170" on="0"/>
        <pt x="102" y="101" on="0"/>
        <pt x="149" y="50" on="0"/>
        <pt x="215" y="21" on="0"/>
        <pt x="255" y="21" on="1"/>
        <pt x="290" y="21" on="0"/>
        <pt x="347" y="42" on="0"/>
        <pt x="372" y="58" on="1"/>
      </contour>
    </TTGlyph>
    <TTGlyph name="cdotaccent" xMin="43" yMin="-8" xMax="389" yMax="576">
      <component glyphName="c" x="0" y="0" flags="0x204"/>
      <component glyphName="dotaccent" x="23" y="0" flags="0x4"/>
    </TTGlyph>
    <TTGlyph name="cedilla" xMin="116" yMin="-237" xMax="324" yMax="14">
      <contour>
        <pt x="324" y="-154" on="1"/>
        <pt x="324" y="-187" on="0"/>
        <pt x="271" y="-237" on="0"/>
        <pt x="220" y="-237" on="1"/>
        <pt x="195" y="-237" on="0"/>
        <pt x="144" y="-219" on="0"/>
        <pt x="116" y="-205" on="1"/>
        <pt x="129" y="-179" on="1"/>
        <pt x="156" y="-193" on="0"/>
        <pt x="200" y="-209" on="0"/>
        <pt x="220" y="-209" on="1"/>
        <pt x="255" y="-209" on="0"/>
        <pt x="291" y="-180" on="0"/>
        <pt x="291" y="-155" on="1"/>
        <pt x="291" y="-129" on="0"/>
        <pt x="242" y="-89" on="0"/>
        <pt x="182" y="-82" on="1"/>
        <pt x="180" y="-78" on="1"/>
        <pt x="204" y="14" on="1"/>
        <pt x="232" y="8" on="1"/>
        <pt x="214" y="-59" on="1"/>
        <pt x="268" y="-68" on="0"/>
        <pt x="324" y="-119" on="0"/>
      </contour>
    </TTGlyph>
    <TTGlyph name="cent" xMin="41" yMin="-92" xMax="387" yMax="502">
      <contour>
        <pt x="209" y="-4" on="1"/>
        <pt x="172" y="2" on="0"/>
        <pt x="111" y="36" on="0"/>
        <pt x="66" y="90" on="0"/>
        <pt x="41" y="161" on="0"/>
        <pt x="41" y="204" on="1"/>
        <pt x="41" y="251" on="0"/>
        <pt x="73" y="330" on="0"/>
        <pt x="128" y="388" on="0"/>
        <pt x="202" y="421" on="0"/>
        <pt x="244" y="423" on="1"/>
        <pt x="250" y="502" on="1"/>
        <pt x="279" y="499" on="1"/>
        <pt x="273" y="422" on="1"/>
        <pt x="308" y="420" on="0"/>
        <pt x="362" y="398" on="0"/>
        <pt x="387" y="382" on="1"/>
        <pt x="370" y="357" on="1"/>
        <pt x="350" y="368" on="0"/>
        <pt x="303" y="390" on="0"/>
        <pt x="270" y="393" on="1"/>
        <pt x="267" y="352" on="0"/>
        <pt x="259" y="256" on="0"/>
        <pt x="251" y="157" on="0"/>
        <pt x="243" y="61" on="0"/>
        <pt x="240" y="21" on="1"/>
        <pt x="252" y="21" on="1"/>
        <pt x="287" y="21" on="0"/>
        <pt x="345" y="42" on="0"/>
        <pt x="370" y="58" on="1"/>
        <pt x="387" y="33" on="1"/>
        <pt x="359" y="15" on="0"/>
        <pt x="289" y="-8" on="0"/>
        <pt x="248" y="-8" on="1"/>
        <pt x="238" y="-8" on="1"/>
        <pt x="236" y="-27" on="0"/>
        <pt x="234" y="-58" on="0"/>
        <pt x="233" y="-69" on="1"/>
        <pt x="232" y="-82" on="0"/>
        <pt x="231" y="-92" on="1"/>
        <pt x="202" y="-89" on="1"/>
      </contour>
      <contour>
        <pt x="74" y="207" on="1"/>
        <pt x="74" y="168" on="0"/>
        <pt x="95" y="106" on="0"/>
        <pt x="132" y="60" on="0"/>
        <pt x="182" y="31" on="0"/>
        <pt x="211" y="25" on="1"/>
        <pt x="241" y="394" on="1"/>
        <pt x="205" y="392" on="0"/>
        <pt x="143" y="362" on="0"/>
        <pt x="99" y="312" on="0"/>
        <pt x="74" y="246" on="0"/>
      </contour>
    </TTGlyph>
    <TTGlyph name="cent.lin" xMin="41" yMin="74" xMax="387" yMax="668">
      <component glyphName="cent" x="0" y="166" flags="0x204"/>
    </TTGlyph>
    <TTGlyph name="circumflex" xMin="95" yMin="485" xMax="345" yMax="622">
      <contour>
        <pt x="308" y="485" on="1"/>
        <pt x="218" y="595" on="1"/>
        <pt x="133" y="485" on="1"/>
        <pt x="95" y="485" on="1"/>
        <pt x="204" y="622" on="1"/>
        <pt x="234" y="622" on="1"/>
        <pt x="345" y="485" on="1"/>
      </contour>
    </TTGlyph>
    <TTGlyph name="colon" xMin="36" yMin="-8" xMax="108" yMax="364">
      <contour>
        <pt x="36" y="27" on="1"/>
        <pt x="36" y="42" on="0"/>
        <pt x="57" y="63" on="0"/>
        <pt x="72" y="63" on="1"/>
        <pt x="87" y="63" on="0"/>
        <pt x="108" y="42" on="0"/>
        <pt x="108" y="27" on="1"/>
        <pt x="108" y="12" on="0"/>
        <pt x="87" y="-8" on="0"/>
        <pt x="72" y="-8" on="1"/>
        <pt x="57" y="-8" on="0"/>
        <pt x="36" y="12" on="0"/>
      </contour>
      <contour>
        <pt x="36" y="328" on="1"/>
        <pt x="36" y="343" on="0"/>
        <pt x="57" y="364" on="0"/>
        <pt x="72" y="364" on="1"/>
        <pt x="87" y="364" on="0"/>
        <pt x="108" y="343" on="0"/>
        <pt x="108" y="328" on="1"/>
        <pt x="108" y="313" on="0"/>
        <pt x="87" y="293" on="0"/>
        <pt x="72" y="293" on="1"/>
        <pt x="57" y="293" on="0"/>
        <pt x="36" y="313" on="0"/>
      </contour>
    </TTGlyph>
    <TTGlyph name="comma" xMin="27" yMin="-108" xMax="111" yMax="63">
      <contour>
        <pt x="111" y="12" on="1"/>
        <pt x="111" y="-7" on="0"/>
        <pt x="97" y="-44" on="0"/>
        <pt x="75" y="-76" on="0"/>
        <pt x="50" y="-101" on="0"/>
        <pt x="38" y="-108" on="1"/>
        <pt x="27" y="-98" on="1"/>
        <pt x="47" y="-78" on="0"/>
        <pt x="74" y="-33" on="0"/>
        <pt x="77" y="-8" on="1"/>
        <pt x="57" y="-5" on="0"/>
        <pt x="35" y="16" on="0"/>
        <pt x="35" y="30" on="1"/>
        <pt x="35" y="44" on="0"/>
        <pt x="55" y="63" on="0"/>
        <pt x="69" y="63" on="1"/>
        <pt x="86" y="63" on="0"/>
        <pt x="111" y="36" on="0"/>
      </contour>
    </TTGlyph>
    <TTGlyph name="commaaccent" xMin="61" yMin="-236" xMax="141" yMax="-73">
      <contour>
        <pt x="141" y="-122" on="1"/>
        <pt x="141" y="-140" on="0"/>
        <pt x="128" y="-175" on="0"/>
        <pt x="107" y="-205" on="0"/>
        <pt x="83" y="-229" on="0"/>
        <pt x="72" y="-236" on="1"/>
        <pt x="61" y="-226" on="1"/>
        <pt x="80" y="-207" on="0"/>
        <pt x="106" y="-164" on="0"/>
        <pt x="109" y="-141" on="1"/>
        <pt x="89" y="-138" on="0"/>
        <pt x="69" y="-118" on="0"/>
        <pt x="69" y="-105" on="1"/>
        <pt x="69" y="-91" on="0"/>
        <pt x="88" y="-73" on="0"/>
        <pt x="101" y="-73" on="1"/>
        <pt x="117" y="-73" on="0"/>
        <pt x="141" y="-99" on="0"/>
      </contour>
    </TTGlyph>
    <TTGlyph name="copyright" xMin="50" yMin="-12" xMax="792" yMax="745">
      <contour>
        <pt x="792" y="366" on="1"/>
        <pt x="792" y="288" on="0"/>
        <pt x="734" y="150" on="0"/>
        <pt x="633" y="47" on="0"/>
        <pt x="498" y="-12" on="0"/>
        <pt x="421" y="-12" on="1"/>
        <pt x="344" y="-12" on="0"/>
        <pt x="209" y="47" on="0"/>
        <pt x="108" y="150" on="0"/>
        <pt x="50" y="288" on="0"/>
        <pt x="50" y="366" on="1"/>
        <pt x="50" y="444" on="0"/>
        <pt x="108" y="582" on="0"/>
        <pt x="209" y="685" on="0"/>
        <pt x="344" y="745" on="0"/>
        <pt x="421" y="745" on="1"/>
        <pt x="498" y="745" on="0"/>
        <pt x="633" y="685" on="0"/>
        <pt x="734" y="582" on="0"/>
        <pt x="792" y="444" on="0"/>
      </contour>
      <contour>
        <pt x="762" y="366" on="1"/>
        <pt x="762" y="440" on="0"/>
        <pt x="709" y="569" on="0"/>
        <pt x="616" y="664" on="0"/>
        <pt x="492" y="719" on="0"/>
        <pt x="421" y="719" on="1"/>
        <pt x="350" y="719" on="0"/>
        <pt x="226" y="664" on="0"/>
        <pt x="133" y="569" on="0"/>
        <pt x="80" y="440" on="0"/>
        <pt x="80" y="366" on="1"/>
        <pt x="80" y="292" on="0"/>
        <pt x="134" y="163" on="0"/>
        <pt x="226" y="68" on="0"/>
        <pt x="350" y="14" on="0"/>
        <pt x="421" y="14" on="1"/>
        <pt x="491" y="14" on="0"/>
        <pt x="616" y="68" on="0"/>
        <pt x="708" y="163" on="0"/>
        <pt x="762" y="292" on="0"/>
      </contour>
      <contour>
        <pt x="561" y="224" on="1"/>
        <pt x="535" y="206" on="0"/>
        <pt x="473" y="182" on="0"/>
        <pt x="432" y="182" on="1"/>
        <pt x="393" y="182" on="0"/>
        <pt x="324" y="208" on="0"/>
        <pt x="271" y="256" on="0"/>
        <pt x="241" y="325" on="0"/>
        <pt x="241" y="369" on="1"/>
        <pt x="241" y="413" on="0"/>
        <pt x="272" y="483" on="0"/>
        <pt x="324" y="533" on="0"/>
        <pt x="393" y="559" on="0"/>
        <pt x="432" y="559" on="1"/>
        <pt x="473" y="559" on="0"/>
        <pt x="535" y="536" on="0"/>
        <pt x="562" y="517" on="1"/>
        <pt x="550" y="492" on="1"/>
        <pt x="524" y="509" on="0"/>
        <pt x="467" y="531" on="0"/>
        <pt x="432" y="531" on="1"/>
        <pt x="400" y="531" on="0"/>
        <pt x="342" y="509" on="0"/>
        <pt x="299" y="468" on="0"/>
        <pt x="273" y="408" on="0"/>
        <pt x="273" y="370" on="1"/>
        <pt x="273" y="332" on="0"/>
        <pt x="299" y="272" on="0"/>
        <pt x="343" y="231" on="0"/>
        <pt x="401" y="210" on="0"/>
        <pt x="433" y="210" on="1"/>
        <pt x="468" y="210" on="0"/>
        <pt x="523" y="232" on="0"/>
        <pt x="549" y="249" on="1"/>
      </contour>
    </TTGlyph>
    <TTGlyph name="d" xMin="45" yMin="-8" xMax="432" yMax="733">
      <contour>
        <pt x="400" y="0" on="1"/>
        <pt x="400" y="58" on="1"/>
        <pt x="374" y="32" on="0"/>
        <pt x="297" y="-8" on="0"/>
        <pt x="247" y="-8" on="1"/>
        <pt x="204" y="-8" on="0"/>
        <pt x="130" y="25" on="0"/>
        <pt x="76" y="82" on="0"/>
        <pt x="45" y="161" on="0"/>
        <pt x="45" y="207" on="1"/>
        <pt x="45" y="253" on="0"/>
        <pt x="76" y="332" on="0"/>
        <pt x="131" y="390" on="0"/>
        <pt x="205" y="423" on="0"/>
        <pt x="249" y="423" on="1"/>
        <pt x="298" y="423" on="0"/>
        <pt x="375" y="387" on="0"/>
        <pt x="400" y="361" on="1"/>
        <pt x="400" y="733" on="1"/>
        <pt x="432" y="733" on="1"/>
        <pt x="432" y="0" on="1"/>
      </contour>
      <contour>
        <pt x="400" y="324" on="1"/>
        <pt x="374" y="354" on="0"/>
        <pt x="296" y="394" on="0"/>
        <pt x="248" y="394" on="1"/>
        <pt x="212" y="394" on="0"/>
        <pt x="149" y="366" on="0"/>
        <pt x="104" y="317" on="0"/>
        <pt x="78" y="248" on="0"/>
        <pt x="78" y="207" on="1"/>
        <pt x="78" y="166" on="0"/>
        <pt x="104" y="98" on="0"/>
        <pt x="149" y="48" on="0"/>
        <pt x="212" y="21" on="0"/>
        <pt x="248" y="21" on="1"/>
        <pt x="296" y="21" on="0"/>
        <pt x="374" y="65" on="0"/>
        <pt x="400" y="97" on="1"/>
      </contour>
    </TTGlyph>
    <TTGlyph name="dagger" xMin="56" yMin="156" xMax="404" yMax="733">
      <contour>
        <pt x="246" y="512" on="1"/>
        <pt x="246" y="156" on="1"/>
        <pt x="214" y="156" on="1"/>
        <pt x="214" y="512" on="1"/>
        <pt x="56" y="512" on="1"/>
        <pt x="56" y="541" on="1"/>
        <pt x="214" y="541" on="1"/>
        <pt x="214" y="733" on="1"/>
        <pt x="246" y="733" on="1"/>
        <pt x="246" y="541" on="1"/>
        <pt x="404" y="541" on="1"/>
        <pt x="404" y="512" on="1"/>
      </contour>
    </TTGlyph>
    <TTGlyph name="daggerdbl" xMin="56" yMin="156" xMax="404" yMax="733">
      <contour>
        <pt x="246" y="322" on="1"/>
        <pt x="246" y="156" on="1"/>
        <pt x="214" y="156" on="1"/>
        <pt x="214" y="322" on="1"/>
        <pt x="56" y="322" on="1"/>
        <pt x="56" y="351" on="1"/>
        <pt x="214" y="351" on="1"/>
        <pt x="214" y="538" on="1"/>
        <pt x="56" y="538" on="1"/>
        <pt x="56" y="567" on="1"/>
        <pt x="214" y="567" on="1"/>
        <pt x="214" y="733" on="1"/>
        <pt x="246" y="733" on="1"/>
        <pt x="246" y="567" on="1"/>
        <pt x="404" y="567" on="1"/>
        <pt x="404" y="538" on="1"/>
        <pt x="246" y="538" on="1"/>
        <pt x="246" y="351" on="1"/>
        <pt x="404" y="351" on="1"/>
        <pt x="404" y="322" on="1"/>
      </contour>
    </TTGlyph>
    <TTGlyph name="dcaron" xMin="45" yMin="-8" xMax="562" yMax="733">
      <component glyphName="d" x="0" y="0" flags="0x204"/>
      <component glyphName="caron.alt" x="400" y="-3" flags="0x4"/>
    </TTGlyph>
    <TTGlyph name="dcroat" xMin="45" yMin="-8" xMax="492" yMax="733">
      <contour>
        <pt x="400" y="0" on="1"/>
        <pt x="400" y="58" on="1"/>
        <pt x="374" y="32" on="0"/>
        <pt x="297" y="-8" on="0"/>
        <pt x="247" y="-8" on="1"/>
        <pt x="204" y="-8" on="0"/>
        <pt x="130" y="25" on="0"/>
        <pt x="76" y="82" on="0"/>
        <pt x="45" y="161" on="0"/>
        <pt x="45" y="207" on="1"/>
        <pt x="45" y="253" on="0"/>
        <pt x="76" y="332" on="0"/>
        <pt x="131" y="390" on="0"/>
        <pt x="205" y="423" on="0"/>
        <pt x="249" y="423" on="1"/>
        <pt x="298" y="423" on="0"/>
        <pt x="375" y="387" on="0"/>
        <pt x="400" y="361" on="1"/>
        <pt x="400" y="579" on="1"/>
        <pt x="253" y="579" on="1"/>
        <pt x="253" y="609" on="1"/>
        <pt x="400" y="609" on="1"/>
        <pt x="400" y="733" on="1"/>
        <pt x="432" y="733" on="1"/>
        <pt x="432" y="609" on="1"/>
        <pt x="492" y="609" on="1"/>
        <pt x="492" y="579" on="1"/>
        <pt x="432" y="579" on="1"/>
        <pt x="432" y="0" on="1"/>
      </contour>
      <contour>
        <pt x="400" y="324" on="1"/>
        <pt x="374" y="354" on="0"/>
        <pt x="296" y="394" on="0"/>
        <pt x="248" y="394" on="1"/>
        <pt x="212" y="394" on="0"/>
        <pt x="149" y="366" on="0"/>
        <pt x="104" y="317" on="0"/>
        <pt x="78" y="248" on="0"/>
        <pt x="78" y="207" on="1"/>
        <pt x="78" y="166" on="0"/>
        <pt x="104" y="98" on="0"/>
        <pt x="149" y="48" on="0"/>
        <pt x="212" y="21" on="0"/>
        <pt x="248" y="21" on="1"/>
        <pt x="296" y="21" on="0"/>
        <pt x="374" y="65" on="0"/>
        <pt x="400" y="97" on="1"/>
      </contour>
    </TTGlyph>
    <TTGlyph name="degree" xMin="48" yMin="479" xMax="256" yMax="686">
      <contour>
        <pt x="256" y="583" on="1"/>
        <pt x="256" y="563" on="0"/>
        <pt x="241" y="526" on="0"/>
        <pt x="214" y="497" on="0"/>
        <pt x="176" y="479" on="0"/>
        <pt x="152" y="479" on="1"/>
        <pt x="128" y="479" on="0"/>
        <pt x="90" y="497" on="0"/>
        <pt x="63" y="526" on="0"/>
        <pt x="48" y="563" on="0"/>
        <pt x="48" y="583" on="1"/>
        <pt x="48" y="603" on="0"/>
        <pt x="63" y="640" on="0"/>
        <pt x="90" y="669" on="0"/>
        <pt x="128" y="686" on="0"/>
        <pt x="152" y="686" on="1"/>
        <pt x="176" y="686" on="0"/>
        <pt x="214" y="669" on="0"/>
        <pt x="241" y="640" on="0"/>
        <pt x="256" y="603" on="0"/>
      </contour>
      <contour>
        <pt x="231" y="583" on="1"/>
        <pt x="231" y="615" on="0"/>
        <pt x="187" y="662" on="0"/>
        <pt x="152" y="662" on="1"/>
        <pt x="117" y="662" on="0"/>
        <pt x="73" y="615" on="0"/>
        <pt x="73" y="583" on="1"/>
        <pt x="73" y="551" on="0"/>
        <pt x="117" y="503" on="0"/>
        <pt x="152" y="503" on="1"/>
        <pt x="187" y="503" on="0"/>
        <pt x="231" y="551" on="0"/>
      </contour>
    </TTGlyph>
    <TTGlyph name="degree.lin" xMin="48" yMin="480" xMax="311" yMax="742">
      <contour>
        <pt x="311" y="611" on="1"/>
        <pt x="311" y="586" on="0"/>
        <pt x="293" y="539" on="0"/>
        <pt x="258" y="502" on="0"/>
        <pt x="210" y="480" on="0"/>
        <pt x="180" y="480" on="1"/>
        <pt x="149" y="480" on="0"/>
        <pt x="100" y="502" on="0"/>
        <pt x="66" y="539" on="0"/>
        <pt x="48" y="586" on="0"/>
        <pt x="48" y="611" on="1"/>
        <pt x="48" y="636" on="0"/>
        <pt x="66" y="683" on="0"/>
        <pt x="101" y="720" on="0"/>
        <pt x="149" y="742" on="0"/>
        <pt x="179" y="742" on="1"/>
        <pt x="210" y="742" on="0"/>
        <pt x="259" y="720" on="0"/>
        <pt x="293" y="683" on="0"/>
        <pt x="311" y="636" on="0"/>
      </contour>
      <contour>
        <pt x="282" y="611" on="1"/>
        <pt x="282" y="632" on="0"/>
        <pt x="268" y="670" on="0"/>
        <pt x="241" y="700" on="0"/>
        <pt x="203" y="717" on="0"/>
        <pt x="179" y="717" on="1"/>
        <pt x="156" y="717" on="0"/>
        <pt x="118" y="700" on="0"/>
        <pt x="91" y="670" on="0"/>
        <pt x="77" y="632" on="0"/>
        <pt x="77" y="611" on="1"/>
        <pt x="77" y="590" on="0"/>
        <pt x="91" y="552" on="0"/>
        <pt x="118" y="522" on="0"/>
        <pt x="156" y="505" on="0"/>
        <pt x="180" y="505" on="1"/>
        <pt x="203" y="505" on="0"/>
        <pt x="241" y="522" on="0"/>
        <pt x="268" y="552" on="0"/>
        <pt x="282" y="590" on="0"/>
      </contour>
    </TTGlyph>
    <TTGlyph name="dieresis" xMin="102" yMin="507" xMax="338" yMax="576">
      <contour>
        <pt x="338" y="541" on="1"/>
        <pt x="338" y="527" on="0"/>
        <pt x="318" y="507" on="0"/>
        <pt x="304" y="507" on="1"/>
        <pt x="290" y="507" on="0"/>
        <pt x="270" y="527" on="0"/>
        <pt x="270" y="541" on="1"/>
        <pt x="270" y="555" on="0"/>
        <pt x="290" y="576" on="0"/>
        <pt x="304" y="576" on="1"/>
        <pt x="318" y="576" on="0"/>
        <pt x="338" y="555" on="0"/>
      </contour>
      <contour>
        <pt x="170" y="541" on="1"/>
        <pt x="170" y="527" on="0"/>
        <pt x="150" y="507" on="0"/>
        <pt x="136" y="507" on="1"/>
        <pt x="122" y="507" on="0"/>
        <pt x="102" y="527" on="0"/>
        <pt x="102" y="541" on="1"/>
        <pt x="102" y="555" on="0"/>
        <pt x="122" y="576" on="0"/>
        <pt x="136" y="576" on="1"/>
        <pt x="150" y="576" on="0"/>
        <pt x="170" y="555" on="0"/>
      </contour>
    </TTGlyph>
    <TTGlyph name="divide" xMin="60" yMin="89" xMax="399" yMax="455">
      <contour>
        <pt x="60" y="287" on="1"/>
        <pt x="399" y="287" on="1"/>
        <pt x="399" y="258" on="1"/>
        <pt x="60" y="258" on="1"/>
      </contour>
      <contour>
        <pt x="200" y="424" on="1"/>
        <pt x="200" y="437" on="0"/>
        <pt x="217" y="455" on="0"/>
        <pt x="230" y="455" on="1"/>
        <pt x="243" y="455" on="0"/>
        <pt x="260" y="437" on="0"/>
        <pt x="260" y="424" on="1"/>
        <pt x="260" y="412" on="0"/>
        <pt x="243" y="394" on="0"/>
        <pt x="230" y="394" on="1"/>
        <pt x="217" y="394" on="0"/>
        <pt x="200" y="412" on="0"/>
      </contour>
      <contour>
        <pt x="200" y="119" on="1"/>
        <pt x="200" y="132" on="0"/>
        <pt x="217" y="150" on="0"/>
        <pt x="230" y="150" on="1"/>
        <pt x="243" y="150" on="0"/>
        <pt x="260" y="132" on="0"/>
        <pt x="260" y="119" on="1"/>
        <pt x="260" y="107" on="0"/>
        <pt x="243" y="89" on="0"/>
        <pt x="230" y="89" on="1"/>
        <pt x="217" y="89" on="0"/>
        <pt x="200" y="107" on="0"/>
      </contour>
    </TTGlyph>
    <TTGlyph name="divide.lin" xMin="60" yMin="188" xMax="399" yMax="554">
      <component glyphName="divide" x="0" y="99" flags="0x204"/>
    </TTGlyph>
    <TTGlyph name="dollar" xMin="25" yMin="-75" xMax="369" yMax="648">
      <contour>
        <pt x="252" y="646" on="1"/>
        <pt x="247" y="584" on="1"/>
        <pt x="274" y="581" on="0"/>
        <pt x="333" y="561" on="0"/>
        <pt x="358" y="544" on="1"/>
        <pt x="343" y="519" on="1"/>
        <pt x="327" y="530" on="0"/>
        <pt x="276" y="552" on="0"/>
        <pt x="244" y="556" on="1"/>
        <pt x="224" y="304" on="1"/>
        <pt x="259" y="289" on="0"/>
        <pt x="313" y="258" on="0"/>
        <pt x="350" y="221" on="0"/>
        <pt x="369" y="175" on="0"/>
        <pt x="369" y="145" on="1"/>
        <pt x="369" y="110" on="0"/>
        <pt x="343" y="55" on="0"/>
        <pt x="298" y="15" on="0"/>
        <pt x="236" y="-7" on="0"/>
        <pt x="199" y="-8" on="1"/>
        <pt x="194" y="-75" on="1"/>
        <pt x="167" y="-73" on="1"/>
        <pt x="172" y="-7" on="1"/>
        <pt x="137" y="-4" on="0"/>
        <pt x="61" y="23" on="0"/>
        <pt x="25" y="46" on="1"/>
        <pt x="40" y="71" on="1"/>
        <pt x="66" y="54" on="0"/>
        <pt x="137" y="25" on="0"/>
        <pt x="175" y="21" on="1"/>
        <pt x="196" y="283" on="1"/>
        <pt x="165" y="296" on="0"/>
        <pt x="113" y="325" on="0"/>
        <pt x="75" y="362" on="0"/>
        <pt x="54" y="409" on="0"/>
        <pt x="54" y="440" on="1"/>
        <pt x="54" y="470" on="0"/>
        <pt x="77" y="522" on="0"/>
        <pt x="121" y="561" on="0"/>
        <pt x="182" y="584" on="0"/>
        <pt x="220" y="585" on="1"/>
        <pt x="225" y="648" on="1"/>
      </contour>
      <contour>
        <pt x="339" y="144" on="1"/>
        <pt x="339" y="169" on="0"/>
        <pt x="321" y="208" on="0"/>
        <pt x="290" y="238" on="0"/>
        <pt x="247" y="262" on="0"/>
        <pt x="222" y="273" on="1"/>
        <pt x="201" y="20" on="1"/>
        <pt x="228" y="20" on="0"/>
        <pt x="277" y="36" on="0"/>
        <pt x="316" y="67" on="0"/>
        <pt x="339" y="113" on="0"/>
      </contour>
      <contour>
        <pt x="85" y="442" on="1"/>
        <pt x="85" y="416" on="0"/>
        <pt x="104" y="377" on="0"/>
        <pt x="135" y="347" on="0"/>
        <pt x="176" y="325" on="0"/>
        <pt x="198" y="315" on="1"/>
        <pt x="218" y="557" on="1"/>
        <pt x="182" y="556" on="0"/>
        <pt x="131" y="535" on="0"/>
        <pt x="100" y="503" on="0"/>
        <pt x="85" y="462" on="0"/>
      </contour>
    </TTGlyph>
    <TTGlyph name="dollar.lin" xMin="30" yMin="-96" xMax="466" yMax="824">
      <contour>
        <pt x="315" y="821" on="1"/>
        <pt x="309" y="744" on="1"/>
        <pt x="351" y="740" on="0"/>
        <pt x="421" y="714" on="0"/>
        <pt x="450" y="695" on="1"/>
        <pt x="433" y="668" on="1"/>
        <pt x="408" y="685" on="0"/>
        <pt x="344" y="710" on="0"/>
        <pt x="306" y="714" on="1"/>
        <pt x="279" y="382" on="1"/>
        <pt x="316" y="365" on="0"/>
        <pt x="384" y="329" on="0"/>
        <pt x="435" y="283" on="0"/>
        <pt x="466" y="221" on="0"/>
        <pt x="466" y="179" on="1"/>
        <pt x="466" y="134" on="0"/>
        <pt x="431" y="64" on="0"/>
        <pt x="371" y="15" on="0"/>
        <pt x="291" y="-11" on="0"/>
        <pt x="246" y="-12" on="1"/>
        <pt x="240" y="-96" on="1"/>
        <pt x="211" y="-93" on="1"/>
        <pt x="217" y="-11" on="1"/>
        <pt x="168" y="-7" on="0"/>
        <pt x="73" y="28" on="0"/>
        <pt x="30" y="56" on="1"/>
        <pt x="46" y="83" on="1"/>
        <pt x="86" y="57" on="0"/>
        <pt x="172" y="23" on="0"/>
        <pt x="220" y="18" on="1"/>
        <pt x="248" y="361" on="1"/>
        <pt x="212" y="377" on="0"/>
        <pt x="146" y="413" on="0"/>
        <pt x="97" y="460" on="0"/>
        <pt x="67" y="521" on="0"/>
        <pt x="67" y="562" on="1"/>
        <pt x="67" y="601" on="0"/>
        <pt x="98" y="668" on="0"/>
        <pt x="154" y="717" on="0"/>
        <pt x="232" y="745" on="0"/>
        <pt x="280" y="745" on="1"/>
        <pt x="286" y="824" on="1"/>
      </contour>
      <contour>
        <pt x="434" y="175" on="1"/>
        <pt x="434" y="212" on="0"/>
        <pt x="407" y="265" on="0"/>
        <pt x="363" y="305" on="0"/>
        <pt x="306" y="335" on="0"/>
        <pt x="275" y="349" on="1"/>
        <pt x="249" y="17" on="1"/>
        <pt x="286" y="17" on="0"/>
        <pt x="353" y="39" on="0"/>
        <pt x="404" y="81" on="0"/>
        <pt x="434" y="139" on="0"/>
      </contour>
      <contour>
        <pt x="99" y="566" on="1"/>
        <pt x="99" y="530" on="0"/>
        <pt x="124" y="477" on="0"/>
        <pt x="166" y="438" on="0"/>
        <pt x="221" y="408" on="0"/>
        <pt x="251" y="395" on="1"/>
        <pt x="277" y="716" on="1"/>
        <pt x="238" y="716" on="0"/>
        <pt x="173" y="693" on="0"/>
        <pt x="125" y="652" on="0"/>
        <pt x="99" y="598" on="0"/>
      </contour>
    </TTGlyph>
    <TTGlyph name="dotaccent" xMin="186" yMin="507" xMax="254" yMax="576">
      <contour>
        <pt x="186" y="541" on="1"/>
        <pt x="186" y="555" on="0"/>
        <pt x="206" y="576" on="0"/>
        <pt x="220" y="576" on="1"/>
        <pt x="234" y="576" on="0"/>
        <pt x="254" y="555" on="0"/>
        <pt x="254" y="541" on="1"/>
        <pt x="254" y="527" on="0"/>
        <pt x="234" y="507" on="0"/>
        <pt x="220" y="507" on="1"/>
        <pt x="206" y="507" on="0"/>
        <pt x="186" y="527" on="0"/>
      </contour>
    </TTGlyph>
    <TTGlyph name="dotlessi" xMin="71" yMin="0" xMax="103" yMax="415">
      <contour>
        <pt x="71" y="0" on="1"/>
        <pt x="71" y="415" on="1"/>
        <pt x="103" y="415" on="1"/>
        <pt x="103" y="0" on="1"/>
      </contour>
    </TTGlyph>
    <TTGlyph name="e" xMin="44" yMin="-8" xMax="415" yMax="423">
      <contour>
        <pt x="415" y="208" on="1"/>
        <pt x="77" y="208" on="1"/>
        <pt x="77" y="168" on="0"/>
        <pt x="101" y="99" on="0"/>
        <pt x="147" y="49" on="0"/>
        <pt x="216" y="21" on="0"/>
        <pt x="262" y="21" on="1"/>
        <pt x="294" y="21" on="0"/>
        <pt x="356" y="36" on="0"/>
        <pt x="383" y="49" on="1"/>
        <pt x="387" y="35" on="1"/>
        <pt x="389" y="30" on="0"/>
        <pt x="392" y="20" on="0"/>
        <pt x="392" y="21" on="1"/>
        <pt x="364" y="7" on="0"/>
        <pt x="294" y="-8" on="0"/>
        <pt x="262" y="-8" on="1"/>
        <pt x="208" y="-8" on="0"/>
        <pt x="126" y="25" on="0"/>
        <pt x="72" y="83" on="0"/>
        <pt x="44" y="162" on="0"/>
        <pt x="44" y="207" on="1"/>
        <pt x="44" y="252" on="0"/>
        <pt x="71" y="331" on="0"/>
        <pt x="122" y="390" on="0"/>
        <pt x="193" y="423" on="0"/>
        <pt x="237" y="423" on="1"/>
        <pt x="281" y="423" on="0"/>
        <pt x="347" y="392" on="0"/>
        <pt x="392" y="338" on="0"/>
        <pt x="415" y="264" on="0"/>
        <pt x="415" y="221" on="1"/>
      </contour>
      <contour>
        <pt x="382" y="236" on="1"/>
        <pt x="380" y="269" on="0"/>
        <pt x="361" y="327" on="0"/>
        <pt x="325" y="369" on="0"/>
        <pt x="271" y="394" on="0"/>
        <pt x="235" y="394" on="1"/>
        <pt x="200" y="394" on="0"/>
        <pt x="145" y="370" on="0"/>
        <pt x="105" y="328" on="0"/>
        <pt x="81" y="270" on="0"/>
        <pt x="78" y="236" on="1"/>
      </contour>
    </TTGlyph>
    <TTGlyph name="eacute" xMin="44" yMin="-8" xMax="415" yMax="615">
      <component glyphName="e" x="0" y="0" flags="0x204"/>
      <component glyphName="acute" x="90" y="0" flags="0x4"/>
    </TTGlyph>
    <TTGlyph name="ebreve" xMin="44" yMin="-8" xMax="415" yMax="615">
      <component glyphName="e" x="0" y="0" flags="0x204"/>
      <component glyphName="breve" x="18" y="0" flags="0x4"/>
    </TTGlyph>
    <TTGlyph name="ecaron" xMin="44" yMin="-8" xMax="415" yMax="623">
      <component glyphName="e" x="0" y="0" flags="0x204"/>
      <component glyphName="caron" x="17" y="0" flags="0x4"/>
    </TTGlyph>
    <TTGlyph name="ecircumflex" xMin="44" yMin="-8" xMax="415" yMax="622">
      <component glyphName="e" x="0" y="0" flags="0x204"/>
      <component glyphName="circumflex" x="17" y="0" flags="0x4"/>
    </TTGlyph>
    <TTGlyph name="edieresis" xMin="44" yMin="-8" xMax="415" yMax="576">
      <component glyphName="e" x="0" y="0" flags="0x204"/>
      <component glyphName="dieresis" x="17" y="0" flags="0x4"/>
    </TTGlyph>
    <TTGlyph name="edotaccent" xMin="44" yMin="-8" xMax="415" yMax="576">
      <component glyphName="e" x="0" y="0" flags="0x204"/>
      <component glyphName="dotaccent" x="17" y="0" flags="0x4"/>
    </TTGlyph>
    <TTGlyph name="egrave" xMin="44" yMin="-8" xMax="415" yMax="615">
      <component glyphName="e" x="0" y="0" flags="0x204"/>
      <component glyphName="grave" x="-61" y="0" flags="0x4"/>
    </TTGlyph>
    <TTGlyph name="eight" xMin="51" yMin="-8" xMax="394" yMax="585">
      <contour>
        <pt x="394" y="151" on="1"/>
        <pt x="394" y="117" on="0"/>
        <pt x="367" y="59" on="0"/>
        <pt x="321" y="16" on="0"/>
        <pt x="258" y="-8" on="0"/>
        <pt x="221" y="-8" on="1"/>
        <pt x="184" y="-8" on="0"/>
        <pt x="122" y="16" on="0"/>
        <pt x="77" y="59" on="0"/>
        <pt x="51" y="117" on="0"/>
        <pt x="51" y="151" on="1"/>
        <pt x="51" y="200" on="0"/>
        <pt x="110" y="277" on="0"/>
        <pt x="159" y="294" on="1"/>
        <pt x="114" y="311" on="0"/>
        <pt x="61" y="387" on="0"/>
        <pt x="61" y="435" on="1"/>
        <pt x="61" y="467" on="0"/>
        <pt x="85" y="522" on="0"/>
        <pt x="128" y="562" on="0"/>
        <pt x="187" y="585" on="0"/>
        <pt x="222" y="585" on="1"/>
        <pt x="257" y="585" on="0"/>
        <pt x="317" y="562" on="0"/>
        <pt x="360" y="522" on="0"/>
        <pt x="384" y="467" on="0"/>
        <pt x="384" y="435" on="1"/>
        <pt x="384" y="387" on="0"/>
        <pt x="331" y="311" on="0"/>
        <pt x="286" y="294" on="1"/>
        <pt x="335" y="277" on="0"/>
        <pt x="394" y="200" on="0"/>
      </contour>
      <contour>
        <pt x="352" y="434" on="1"/>
        <pt x="352" y="487" on="0"/>
        <pt x="282" y="558" on="0"/>
        <pt x="222" y="558" on="1"/>
        <pt x="193" y="558" on="0"/>
        <pt x="146" y="539" on="0"/>
        <pt x="112" y="505" on="0"/>
        <pt x="94" y="460" on="0"/>
        <pt x="94" y="434" on="1"/>
        <pt x="94" y="408" on="0"/>
        <pt x="112" y="361" on="0"/>
        <pt x="146" y="327" on="0"/>
        <pt x="193" y="307" on="0"/>
        <pt x="222" y="307" on="1"/>
        <pt x="252" y="307" on="0"/>
        <pt x="300" y="327" on="0"/>
        <pt x="334" y="361" on="0"/>
        <pt x="352" y="408" on="0"/>
      </contour>
      <contour>
        <pt x="362" y="151" on="1"/>
        <pt x="362" y="179" on="0"/>
        <pt x="340" y="227" on="0"/>
        <pt x="302" y="262" on="0"/>
        <pt x="251" y="282" on="0"/>
        <pt x="222" y="282" on="1"/>
        <pt x="193" y="282" on="0"/>
        <pt x="143" y="262" on="0"/>
        <pt x="105" y="227" on="0"/>
        <pt x="84" y="179" on="0"/>
        <pt x="84" y="151" on="1"/>
        <pt x="84" y="122" on="0"/>
        <pt x="105" y="73" on="0"/>
        <pt x="143" y="38" on="0"/>
        <pt x="193" y="19" on="0"/>
        <pt x="222" y="19" on="1"/>
        <pt x="251" y="19" on="0"/>
        <pt x="302" y="38" on="0"/>
        <pt x="340" y="73" on="0"/>
        <pt x="362" y="122" on="0"/>
      </contour>
    </TTGlyph>
    <TTGlyph name="eight.den" xMin="37" yMin="-8" xMax="313" yMax="380">
      <contour>
        <pt x="175" y="-8" on="1"/>
        <pt x="112" y="-8" on="0"/>
        <pt x="37" y="51" on="0"/>
        <pt x="37" y="96" on="1"/>
        <pt x="37" y="128" on="0"/>
        <pt x="79" y="179" on="0"/>
        <pt x="117" y="190" on="1"/>
        <pt x="83" y="201" on="0"/>
        <pt x="45" y="250" on="0"/>
        <pt x="45" y="280" on="1"/>
        <pt x="45" y="324" on="0"/>
        <pt x="117" y="380" on="0"/>
        <pt x="175" y="380" on="1"/>
        <pt x="233" y="380" on="0"/>
        <pt x="305" y="324" on="0"/>
        <pt x="305" y="280" on="1"/>
        <pt x="305" y="250" on="0"/>
        <pt x="267" y="201" on="0"/>
        <pt x="233" y="190" on="1"/>
        <pt x="271" y="179" on="0"/>
        <pt x="313" y="128" on="0"/>
        <pt x="313" y="96" on="1"/>
        <pt x="313" y="51" on="0"/>
        <pt x="238" y="-8" on="0"/>
      </contour>
      <contour>
        <pt x="175" y="178" on="1"/>
        <pt x="153" y="178" on="0"/>
        <pt x="114" y="166" on="0"/>
        <pt x="85" y="145" on="0"/>
        <pt x="68" y="116" on="0"/>
        <pt x="68" y="98" on="1"/>
        <pt x="68" y="62" on="0"/>
        <pt x="130" y="19" on="0"/>
        <pt x="175" y="19" on="1"/>
        <pt x="220" y="19" on="0"/>
        <pt x="282" y="62" on="0"/>
        <pt x="282" y="98" on="1"/>
        <pt x="282" y="116" on="0"/>
        <pt x="265" y="145" on="0"/>
        <pt x="236" y="166" on="0"/>
        <pt x="197" y="178" on="0"/>
      </contour>
      <contour>
        <pt x="175" y="353" on="1"/>
        <pt x="130" y="353" on="0"/>
        <pt x="76" y="311" on="0"/>
        <pt x="76" y="279" on="1"/>
        <pt x="76" y="246" on="0"/>
        <pt x="131" y="203" on="0"/>
        <pt x="175" y="203" on="1"/>
        <pt x="219" y="203" on="0"/>
        <pt x="274" y="246" on="0"/>
        <pt x="274" y="279" on="1"/>
        <pt x="274" y="311" on="0"/>
        <pt x="220" y="353" on="0"/>
      </contour>
    </TTGlyph>
    <TTGlyph name="eight.lin" xMin="63" yMin="-8" xMax="495" yMax="742">
      <contour>
        <pt x="495" y="191" on="1"/>
        <pt x="495" y="148" on="0"/>
        <pt x="462" y="75" on="0"/>
        <pt x="403" y="22" on="0"/>
        <pt x="324" y="-8" on="0"/>
        <pt x="279" y="-8" on="1"/>
        <pt x="234" y="-8" on="0"/>
        <pt x="155" y="22" on="0"/>
        <pt x="96" y="75" on="0"/>
        <pt x="63" y="148" on="0"/>
        <pt x="63" y="191" on="1"/>
        <pt x="63" y="222" on="0"/>
        <pt x="83" y="279" on="0"/>
        <pt x="120" y="327" on="0"/>
        <pt x="171" y="364" on="0"/>
        <pt x="203" y="374" on="1"/>
        <pt x="145" y="395" on="0"/>
        <pt x="76" y="493" on="0"/>
        <pt x="76" y="553" on="1"/>
        <pt x="76" y="594" on="0"/>
        <pt x="107" y="663" on="0"/>
        <pt x="161" y="714" on="0"/>
        <pt x="235" y="742" on="0"/>
        <pt x="279" y="742" on="1"/>
        <pt x="323" y="742" on="0"/>
        <pt x="397" y="714" on="0"/>
        <pt x="451" y="664" on="0"/>
        <pt x="482" y="594" on="0"/>
        <pt x="482" y="553" on="1"/>
        <pt x="482" y="493" on="0"/>
        <pt x="413" y="395" on="0"/>
        <pt x="355" y="374" on="1"/>
        <pt x="386" y="364" on="0"/>
        <pt x="438" y="327" on="0"/>
        <pt x="475" y="279" on="0"/>
        <pt x="495" y="221" on="0"/>
      </contour>
      <contour>
        <pt x="448" y="553" on="1"/>
        <pt x="448" y="587" on="0"/>
        <pt x="424" y="646" on="0"/>
        <pt x="380" y="690" on="0"/>
        <pt x="317" y="714" on="0"/>
        <pt x="279" y="714" on="1"/>
        <pt x="241" y="714" on="0"/>
        <pt x="178" y="689" on="0"/>
        <pt x="134" y="646" on="0"/>
        <pt x="110" y="587" on="0"/>
        <pt x="110" y="553" on="1"/>
        <pt x="110" y="518" on="0"/>
        <pt x="134" y="458" on="0"/>
        <pt x="178" y="413" on="0"/>
        <pt x="241" y="387" on="0"/>
        <pt x="279" y="387" on="1"/>
        <pt x="317" y="387" on="0"/>
        <pt x="380" y="413" on="0"/>
        <pt x="424" y="458" on="0"/>
        <pt x="448" y="518" on="0"/>
      </contour>
      <contour>
        <pt x="461" y="191" on="1"/>
        <pt x="461" y="228" on="0"/>
        <pt x="433" y="291" on="0"/>
        <pt x="383" y="336" on="0"/>
        <pt x="317" y="362" on="0"/>
        <pt x="279" y="362" on="1"/>
        <pt x="241" y="362" on="0"/>
        <pt x="175" y="336" on="0"/>
        <pt x="125" y="291" on="0"/>
        <pt x="97" y="228" on="0"/>
        <pt x="97" y="191" on="1"/>
        <pt x="97" y="153" on="0"/>
        <pt x="125" y="91" on="0"/>
        <pt x="175" y="46" on="0"/>
        <pt x="241" y="21" on="0"/>
        <pt x="279" y="21" on="1"/>
        <pt x="317" y="21" on="0"/>
        <pt x="383" y="46" on="0"/>
        <pt x="433" y="91" on="0"/>
        <pt x="461" y="153" on="0"/>
      </contour>
    </TTGlyph>
    <TTGlyph name="eight.num" xMin="37" yMin="353" xMax="313" yMax="741">
      <contour>
        <pt x="175" y="353" on="1"/>
        <pt x="112" y="353" on="0"/>
        <pt x="37" y="412" on="0"/>
        <pt x="37" y="457" on="1"/>
        <pt x="37" y="489" on="0"/>
        <pt x="79" y="540" on="0"/>
        <pt x="117" y="551" on="1"/>
        <pt x="83" y="562" on="0"/>
        <pt x="45" y="611" on="0"/>
        <pt x="45" y="641" on="1"/>
        <pt x="45" y="685" on="0"/>
        <pt x="117" y="741" on="0"/>
        <pt x="175" y="741" on="1"/>
        <pt x="233" y="741" on="0"/>
        <pt x="305" y="685" on="0"/>
        <pt x="305" y="641" on="1"/>
        <pt x="305" y="611" on="0"/>
        <pt x="267" y="562" on="0"/>
        <pt x="233" y="551" on="1"/>
        <pt x="271" y="540" on="0"/>
        <pt x="313" y="489" on="0"/>
        <pt x="313" y="457" on="1"/>
        <pt x="313" y="412" on="0"/>
        <pt x="238" y="353" on="0"/>
      </contour>
      <contour>
        <pt x="175" y="539" on="1"/>
        <pt x="153" y="539" on="0"/>
        <pt x="114" y="527" on="0"/>
        <pt x="85" y="506" on="0"/>
        <pt x="68" y="477" on="0"/>
        <pt x="68" y="459" on="1"/>
        <pt x="68" y="423" on="0"/>
        <pt x="130" y="380" on="0"/>
        <pt x="175" y="380" on="1"/>
        <pt x="220" y="380" on="0"/>
        <pt x="282" y="423" on="0"/>
        <pt x="282" y="459" on="1"/>
        <pt x="282" y="477" on="0"/>
        <pt x="265" y="506" on="0"/>
        <pt x="236" y="527" on="0"/>
        <pt x="197" y="539" on="0"/>
      </contour>
      <contour>
        <pt x="175" y="714" on="1"/>
        <pt x="130" y="714" on="0"/>
        <pt x="76" y="672" on="0"/>
        <pt x="76" y="640" on="1"/>
        <pt x="76" y="607" on="0"/>
        <pt x="131" y="564" on="0"/>
        <pt x="175" y="564" on="1"/>
        <pt x="219" y="564" on="0"/>
        <pt x="274" y="607" on="0"/>
        <pt x="274" y="640" on="1"/>
        <pt x="274" y="672" on="0"/>
        <pt x="220" y="714" on="0"/>
      </contour>
    </TTGlyph>
    <TTGlyph name="elevensixteenths" xMin="17" yMin="-16" xMax="1244" yMax="749">
      <component glyphName="one.num" x="-19" y="0" flags="0x4"/>
      <component glyphName="one.num" x="254" y="0" flags="0x4"/>
      <component glyphName="fraction" x="528" y="0" flags="0x4"/>
      <component glyphName="one.den" x="653" y="0" flags="0x4"/>
      <component glyphName="six.den" x="927" y="0" flags="0x4"/>
    </TTGlyph>
    <TTGlyph name="ellipsis" xMin="49" yMin="-8" xMax="461" yMax="63">
      <contour>
        <pt x="49" y="27" on="1"/>
        <pt x="49" y="42" on="0"/>
        <pt x="70" y="63" on="0"/>
        <pt x="85" y="63" on="1"/>
        <pt x="100" y="63" on="0"/>
        <pt x="121" y="42" on="0"/>
        <pt x="121" y="27" on="1"/>
        <pt x="121" y="12" on="0"/>
        <pt x="100" y="-8" on="0"/>
        <pt x="85" y="-8" on="1"/>
        <pt x="70" y="-8" on="0"/>
        <pt x="49" y="12" on="0"/>
      </contour>
      <contour>
        <pt x="219" y="27" on="1"/>
        <pt x="219" y="42" on="0"/>
        <pt x="240" y="63" on="0"/>
        <pt x="255" y="63" on="1"/>
        <pt x="270" y="63" on="0"/>
        <pt x="291" y="42" on="0"/>
        <pt x="291" y="27" on="1"/>
        <pt x="291" y="12" on="0"/>
        <pt x="270" y="-8" on="0"/>
        <pt x="255" y="-8" on="1"/>
        <pt x="240" y="-8" on="0"/>
        <pt x="219" y="12" on="0"/>
      </contour>
      <contour>
        <pt x="389" y="27" on="1"/>
        <pt x="389" y="42" on="0"/>
        <pt x="410" y="63" on="0"/>
        <pt x="425" y="63" on="1"/>
        <pt x="440" y="63" on="0"/>
        <pt x="461" y="42" on="0"/>
        <pt x="461" y="27" on="1"/>
        <pt x="461" y="12" on="0"/>
        <pt x="440" y="-8" on="0"/>
        <pt x="425" y="-8" on="1"/>
        <pt x="410" y="-8" on="0"/>
        <pt x="389" y="12" on="0"/>
      </contour>
    </TTGlyph>
    <TTGlyph name="emacron" xMin="44" yMin="-8" xMax="415" yMax="552">
      <component glyphName="e" x="0" y="0" flags="0x204"/>
      <component glyphName="macron" x="18" y="0" flags="0x4"/>
    </TTGlyph>
    <TTGlyph name="emdash" xMin="50" yMin="228" xMax="700" yMax="257">
      <contour>
        <pt x="50" y="228" on="1"/>
        <pt x="50" y="257" on="1"/>
        <pt x="700" y="257" on="1"/>
        <pt x="700" y="228" on="1"/>
      </contour>
    </TTGlyph>
    <TTGlyph name="emdash.cap" xMin="50" yMin="357" xMax="700" yMax="386">
      <component glyphName="emdash" x="0" y="129" flags="0x204"/>
    </TTGlyph>
    <TTGlyph name="endash" xMin="50" yMin="228" xMax="450" yMax="257">
      <contour>
        <pt x="50" y="228" on="1"/>
        <pt x="50" y="257" on="1"/>
        <pt x="450" y="257" on="1"/>
        <pt x="450" y="228" on="1"/>
      </contour>
    </TTGlyph>
    <TTGlyph name="endash.cap" xMin="50" yMin="357" xMax="450" yMax="386">
      <component glyphName="endash" x="0" y="129" flags="0x204"/>
    </TTGlyph>
    <TTGlyph name="eogonek" xMin="44" yMin="-219" xMax="415" yMax="423">
      <contour>
        <pt x="415" y="208" on="1"/>
        <pt x="77" y="208" on="1"/>
        <pt x="77" y="168" on="0"/>
        <pt x="101" y="99" on="0"/>
        <pt x="147" y="49" on="0"/>
        <pt x="216" y="21" on="0"/>
        <pt x="262" y="21" on="1"/>
        <pt x="294" y="21" on="0"/>
        <pt x="356" y="36" on="0"/>
        <pt x="383" y="49" on="1"/>
        <pt x="387" y="35" on="1"/>
        <pt x="389" y="30" on="0"/>
        <pt x="392" y="20" on="0"/>
        <pt x="392" y="21" on="1"/>
        <pt x="368" y="4" on="0"/>
        <pt x="323" y="-37" on="0"/>
        <pt x="289" y="-80" on="0"/>
        <pt x="268" y="-124" on="0"/>
        <pt x="268" y="-143" on="1"/>
        <pt x="268" y="-167" on="0"/>
        <pt x="294" y="-192" on="0"/>
        <pt x="313" y="-192" on="1"/>
        <pt x="334" y="-192" on="0"/>
        <pt x="365" y="-169" on="0"/>
        <pt x="377" y="-152" on="1"/>
        <pt x="396" y="-169" on="1"/>
        <pt x="381" y="-191" on="0"/>
        <pt x="341" y="-219" on="0"/>
        <pt x="311" y="-219" on="1"/>
        <pt x="279" y="-219" on="0"/>
        <pt x="238" y="-182" on="0"/>
        <pt x="238" y="-147" on="1"/>
        <pt x="238" y="-109" on="0"/>
        <pt x="285" y="-37" on="0"/>
        <pt x="324" y="-1" on="1"/>
        <pt x="308" y="-5" on="0"/>
        <pt x="277" y="-8" on="0"/>
        <pt x="262" y="-8" on="1"/>
        <pt x="208" y="-8" on="0"/>
        <pt x="126" y="25" on="0"/>
        <pt x="72" y="83" on="0"/>
        <pt x="44" y="162" on="0"/>
        <pt x="44" y="207" on="1"/>
        <pt x="44" y="252" on="0"/>
        <pt x="71" y="331" on="0"/>
        <pt x="122" y="390" on="0"/>
        <pt x="193" y="423" on="0"/>
        <pt x="237" y="423" on="1"/>
        <pt x="281" y="423" on="0"/>
        <pt x="347" y="392" on="0"/>
        <pt x="392" y="338" on="0"/>
        <pt x="415" y="264" on="0"/>
        <pt x="415" y="221" on="1"/>
      </contour>
      <contour>
        <pt x="382" y="236" on="1"/>
        <pt x="380" y="269" on="0"/>
        <pt x="361" y="327" on="0"/>
        <pt x="325" y="369" on="0"/>
        <pt x="271" y="394" on="0"/>
        <pt x="235" y="394" on="1"/>
        <pt x="200" y="394" on="0"/>
        <pt x="145" y="370" on="0"/>
        <pt x="105" y="328" on="0"/>
        <pt x="81" y="270" on="0"/>
        <pt x="78" y="236" on="1"/>
      </contour>
    </TTGlyph>
    <TTGlyph name="equal" xMin="60" yMin="187" xMax="333" yMax="357">
      <contour>
        <pt x="60" y="326" on="1"/>
        <pt x="60" y="357" on="1"/>
        <pt x="333" y="357" on="1"/>
        <pt x="333" y="326" on="1"/>
      </contour>
      <contour>
        <pt x="60" y="187" on="1"/>
        <pt x="60" y="218" on="1"/>
        <pt x="333" y="218" on="1"/>
        <pt x="333" y="187" on="1"/>
      </contour>
    </TTGlyph>
    <TTGlyph name="equal.lin" xMin="60" yMin="286" xMax="333" yMax="456">
      <component glyphName="equal" x="0" y="99" flags="0x204"/>
    </TTGlyph>
    <TTGlyph name="eth" xMin="45" yMin="-8" xMax="447" yMax="736">
      <contour>
        <pt x="116" y="547" on="1"/>
        <pt x="210" y="629" on="1"/>
        <pt x="181" y="652" on="0"/>
        <pt x="115" y="693" on="0"/>
        <pt x="80" y="710" on="1"/>
        <pt x="93" y="736" on="1"/>
        <pt x="129" y="719" on="0"/>
        <pt x="200" y="675" on="0"/>
        <pt x="233" y="649" on="1"/>
        <pt x="307" y="714" on="1"/>
        <pt x="326" y="692" on="1"/>
        <pt x="255" y="630" on="1"/>
        <pt x="296" y="594" on="0"/>
        <pt x="367" y="507" on="0"/>
        <pt x="418" y="404" on="0"/>
        <pt x="447" y="285" on="0"/>
        <pt x="447" y="217" on="1"/>
        <pt x="447" y="167" on="0"/>
        <pt x="417" y="84" on="0"/>
        <pt x="363" y="25" on="0"/>
        <pt x="289" y="-8" on="0"/>
        <pt x="244" y="-8" on="1"/>
        <pt x="199" y="-8" on="0"/>
        <pt x="125" y="27" on="0"/>
        <pt x="73" y="87" on="0"/>
        <pt x="45" y="168" on="0"/>
        <pt x="45" y="213" on="1"/>
        <pt x="45" y="255" on="0"/>
        <pt x="74" y="331" on="0"/>
        <pt x="125" y="389" on="0"/>
        <pt x="197" y="424" on="0"/>
        <pt x="240" y="424" on="1"/>
        <pt x="295" y="424" on="0"/>
        <pt x="375" y="379" on="0"/>
        <pt x="401" y="339" on="1"/>
        <pt x="386" y="413" on="0"/>
        <pt x="298" y="552" on="0"/>
        <pt x="232" y="610" on="1"/>
        <pt x="134" y="525" on="1"/>
      </contour>
      <contour>
        <pt x="415" y="209" on="1"/>
        <pt x="415" y="249" on="0"/>
        <pt x="392" y="316" on="0"/>
        <pt x="348" y="366" on="0"/>
        <pt x="282" y="394" on="0"/>
        <pt x="240" y="394" on="1"/>
        <pt x="203" y="394" on="0"/>
        <pt x="143" y="365" on="0"/>
        <pt x="101" y="315" on="0"/>
        <pt x="78" y="248" on="0"/>
        <pt x="78" y="211" on="1"/>
        <pt x="78" y="173" on="0"/>
        <pt x="101" y="104" on="0"/>
        <pt x="145" y="52" on="0"/>
        <pt x="207" y="21" on="0"/>
        <pt x="245" y="21" on="1"/>
        <pt x="283" y="21" on="0"/>
        <pt x="346" y="51" on="0"/>
        <pt x="391" y="103" on="0"/>
        <pt x="415" y="171" on="0"/>
      </contour>
    </TTGlyph>
    <TTGlyph name="exclam" xMin="57" yMin="-8" xMax="129" yMax="733">
      <contour>
        <pt x="106" y="182" on="1"/>
        <pt x="80" y="182" on="1"/>
        <pt x="77" y="733" on="1"/>
        <pt x="109" y="733" on="1"/>
      </contour>
      <contour>
        <pt x="129" y="27" on="1"/>
        <pt x="129" y="12" on="0"/>
        <pt x="108" y="-8" on="0"/>
        <pt x="93" y="-8" on="1"/>
        <pt x="78" y="-8" on="0"/>
        <pt x="57" y="12" on="0"/>
        <pt x="57" y="27" on="1"/>
        <pt x="57" y="42" on="0"/>
        <pt x="78" y="63" on="0"/>
        <pt x="93" y="63" on="1"/>
        <pt x="108" y="63" on="0"/>
        <pt x="129" y="42" on="0"/>
      </contour>
    </TTGlyph>
    <TTGlyph name="exclamdown" xMin="57" yMin="1" xMax="129" yMax="742">
      <contour>
        <pt x="57" y="707" on="1"/>
        <pt x="57" y="722" on="0"/>
        <pt x="78" y="742" on="0"/>
        <pt x="93" y="742" on="1"/>
        <pt x="108" y="742" on="0"/>
        <pt x="129" y="722" on="0"/>
        <pt x="129" y="707" on="1"/>
        <pt x="129" y="692" on="0"/>
        <pt x="108" y="671" on="0"/>
        <pt x="93" y="671" on="1"/>
        <pt x="78" y="671" on="0"/>
        <pt x="57" y="692" on="0"/>
      </contour>
      <contour>
        <pt x="80" y="552" on="1"/>
        <pt x="106" y="552" on="1"/>
        <pt x="109" y="1" on="1"/>
        <pt x="77" y="1" on="1"/>
      </contour>
    </TTGlyph>
    <TTGlyph name="f" xMin="22" yMin="0" xMax="292" yMax="740">
      <contour>
        <pt x="285" y="701" on="1"/>
        <pt x="273" y="706" on="0"/>
        <pt x="239" y="711" on="0"/>
        <pt x="225" y="711" on="1"/>
        <pt x="180" y="711" on="0"/>
        <pt x="128" y="646" on="0"/>
        <pt x="128" y="574" on="1"/>
        <pt x="128" y="415" on="1"/>
        <pt x="252" y="415" on="1"/>
        <pt x="252" y="386" on="1"/>
        <pt x="128" y="386" on="1"/>
        <pt x="128" y="0" on="1"/>
        <pt x="96" y="0" on="1"/>
        <pt x="96" y="385" on="1"/>
        <pt x="22" y="385" on="1"/>
        <pt x="22" y="401" on="1"/>
        <pt x="96" y="415" on="1"/>
        <pt x="96" y="572" on="1"/>
        <pt x="96" y="659" on="0"/>
        <pt x="169" y="740" on="0"/>
        <pt x="228" y="740" on="1"/>
        <pt x="242" y="740" on="0"/>
        <pt x="279" y="735" on="0"/>
        <pt x="292" y="729" on="1"/>
      </contour>
    </TTGlyph>
    <TTGlyph name="f_f" xMin="22" yMin="0" xMax="550" yMax="740">
      <contour>
        <pt x="285" y="701" on="1"/>
        <pt x="273" y="706" on="0"/>
        <pt x="239" y="711" on="0"/>
        <pt x="225" y="711" on="1"/>
        <pt x="180" y="711" on="0"/>
        <pt x="128" y="646" on="0"/>
        <pt x="128" y="574" on="1"/>
        <pt x="128" y="415" on="1"/>
        <pt x="252" y="415" on="1"/>
        <pt x="252" y="386" on="1"/>
        <pt x="128" y="386" on="1"/>
        <pt x="128" y="0" on="1"/>
        <pt x="96" y="0" on="1"/>
        <pt x="96" y="385" on="1"/>
        <pt x="22" y="385" on="1"/>
        <pt x="22" y="401" on="1"/>
        <pt x="96" y="415" on="1"/>
        <pt x="96" y="572" on="1"/>
        <pt x="96" y="659" on="0"/>
        <pt x="169" y="740" on="0"/>
        <pt x="228" y="740" on="1"/>
        <pt x="242" y="740" on="0"/>
        <pt x="279" y="735" on="0"/>
        <pt x="292" y="729" on="1"/>
      </contour>
      <contour>
        <pt x="543" y="701" on="1"/>
        <pt x="531" y="706" on="0"/>
        <pt x="497" y="711" on="0"/>
        <pt x="483" y="711" on="1"/>
        <pt x="438" y="711" on="0"/>
        <pt x="386" y="646" on="0"/>
        <pt x="386" y="574" on="1"/>
        <pt x="386" y="415" on="1"/>
        <pt x="510" y="415" on="1"/>
        <pt x="510" y="386" on="1"/>
        <pt x="386" y="386" on="1"/>
        <pt x="386" y="0" on="1"/>
        <pt x="354" y="0" on="1"/>
        <pt x="354" y="385" on="1"/>
        <pt x="280" y="385" on="1"/>
        <pt x="280" y="401" on="1"/>
        <pt x="354" y="415" on="1"/>
        <pt x="354" y="572" on="1"/>
        <pt x="354" y="659" on="0"/>
        <pt x="427" y="740" on="0"/>
        <pt x="486" y="740" on="1"/>
        <pt x="500" y="740" on="0"/>
        <pt x="537" y="735" on="0"/>
        <pt x="550" y="729" on="1"/>
      </contour>
    </TTGlyph>
    <TTGlyph name="f_f_i" xMin="22" yMin="0" xMax="632" yMax="740">
      <contour>
        <pt x="285" y="701" on="1"/>
        <pt x="273" y="706" on="0"/>
        <pt x="239" y="711" on="0"/>
        <pt x="225" y="711" on="1"/>
        <pt x="180" y="711" on="0"/>
        <pt x="128" y="646" on="0"/>
        <pt x="128" y="574" on="1"/>
        <pt x="128" y="415" on="1"/>
        <pt x="252" y="415" on="1"/>
        <pt x="252" y="386" on="1"/>
        <pt x="128" y="386" on="1"/>
        <pt x="128" y="0" on="1"/>
        <pt x="96" y="0" on="1"/>
        <pt x="96" y="385" on="1"/>
        <pt x="22" y="385" on="1"/>
        <pt x="22" y="401" on="1"/>
        <pt x="96" y="415" on="1"/>
        <pt x="96" y="572" on="1"/>
        <pt x="96" y="659" on="0"/>
        <pt x="169" y="740" on="0"/>
        <pt x="228" y="740" on="1"/>
        <pt x="242" y="740" on="0"/>
        <pt x="279" y="735" on="0"/>
        <pt x="292" y="729" on="1"/>
      </contour>
      <contour>
        <pt x="543" y="701" on="1"/>
        <pt x="531" y="706" on="0"/>
        <pt x="497" y="711" on="0"/>
        <pt x="483" y="711" on="1"/>
        <pt x="438" y="711" on="0"/>
        <pt x="386" y="646" on="0"/>
        <pt x="386" y="574" on="1"/>
        <pt x="386" y="415" on="1"/>
        <pt x="510" y="415" on="1"/>
        <pt x="510" y="386" on="1"/>
        <pt x="386" y="386" on="1"/>
        <pt x="386" y="0" on="1"/>
        <pt x="354" y="0" on="1"/>
        <pt x="354" y="385" on="1"/>
        <pt x="280" y="385" on="1"/>
        <pt x="280" y="401" on="1"/>
        <pt x="354" y="415" on="1"/>
        <pt x="354" y="572" on="1"/>
        <pt x="354" y="659" on="0"/>
        <pt x="427" y="740" on="0"/>
        <pt x="486" y="740" on="1"/>
        <pt x="500" y="740" on="0"/>
        <pt x="537" y="735" on="0"/>
        <pt x="550" y="729" on="1"/>
      </contour>
      <contour>
        <pt x="632" y="580" on="1"/>
        <pt x="632" y="568" on="0"/>
        <pt x="615" y="550" on="0"/>
        <pt x="602" y="550" on="1"/>
        <pt x="589" y="550" on="0"/>
        <pt x="572" y="568" on="0"/>
        <pt x="572" y="580" on="1"/>
        <pt x="572" y="593" on="0"/>
        <pt x="589" y="611" on="0"/>
        <pt x="602" y="611" on="1"/>
        <pt x="615" y="611" on="0"/>
        <pt x="632" y="593" on="0"/>
      </contour>
      <contour>
        <pt x="587" y="0" on="1"/>
        <pt x="587" y="415" on="1"/>
        <pt x="619" y="415" on="1"/>
        <pt x="619" y="0" on="1"/>
      </contour>
    </TTGlyph>
    <TTGlyph name="f_f_l" xMin="22" yMin="0" xMax="619" yMax="740">
      <contour>
        <pt x="285" y="701" on="1"/>
        <pt x="273" y="706" on="0"/>
        <pt x="239" y="711" on="0"/>
        <pt x="225" y="711" on="1"/>
        <pt x="180" y="711" on="0"/>
        <pt x="128" y="646" on="0"/>
        <pt x="128" y="574" on="1"/>
        <pt x="128" y="415" on="1"/>
        <pt x="252" y="415" on="1"/>
        <pt x="252" y="386" on="1"/>
        <pt x="128" y="386" on="1"/>
        <pt x="128" y="0" on="1"/>
        <pt x="96" y="0" on="1"/>
        <pt x="96" y="385" on="1"/>
        <pt x="22" y="385" on="1"/>
        <pt x="22" y="401" on="1"/>
        <pt x="96" y="415" on="1"/>
        <pt x="96" y="572" on="1"/>
        <pt x="96" y="659" on="0"/>
        <pt x="169" y="740" on="0"/>
        <pt x="228" y="740" on="1"/>
        <pt x="242" y="740" on="0"/>
        <pt x="279" y="735" on="0"/>
        <pt x="292" y="729" on="1"/>
      </contour>
      <contour>
        <pt x="543" y="701" on="1"/>
        <pt x="531" y="706" on="0"/>
        <pt x="497" y="711" on="0"/>
        <pt x="483" y="711" on="1"/>
        <pt x="438" y="711" on="0"/>
        <pt x="386" y="646" on="0"/>
        <pt x="386" y="574" on="1"/>
        <pt x="386" y="415" on="1"/>
        <pt x="510" y="415" on="1"/>
        <pt x="510" y="386" on="1"/>
        <pt x="386" y="386" on="1"/>
        <pt x="386" y="0" on="1"/>
        <pt x="354" y="0" on="1"/>
        <pt x="354" y="385" on="1"/>
        <pt x="280" y="385" on="1"/>
        <pt x="280" y="401" on="1"/>
        <pt x="354" y="415" on="1"/>
        <pt x="354" y="572" on="1"/>
        <pt x="354" y="659" on="0"/>
        <pt x="427" y="740" on="0"/>
        <pt x="486" y="740" on="1"/>
        <pt x="500" y="740" on="0"/>
        <pt x="537" y="735" on="0"/>
        <pt x="550" y="729" on="1"/>
      </contour>
      <contour>
        <pt x="587" y="0" on="1"/>
        <pt x="587" y="733" on="1"/>
        <pt x="619" y="733" on="1"/>
        <pt x="619" y="0" on="1"/>
      </contour>
    </TTGlyph>
    <TTGlyph name="fi" xMin="22" yMin="0" xMax="374" yMax="740">
      <contour>
        <pt x="374" y="580" on="1"/>
        <pt x="374" y="568" on="0"/>
        <pt x="357" y="550" on="0"/>
        <pt x="344" y="550" on="1"/>
        <pt x="331" y="550" on="0"/>
        <pt x="314" y="568" on="0"/>
        <pt x="314" y="580" on="1"/>
        <pt x="314" y="593" on="0"/>
        <pt x="331" y="611" on="0"/>
        <pt x="344" y="611" on="1"/>
        <pt x="357" y="611" on="0"/>
        <pt x="374" y="593" on="0"/>
      </contour>
      <contour>
        <pt x="285" y="701" on="1"/>
        <pt x="273" y="706" on="0"/>
        <pt x="239" y="711" on="0"/>
        <pt x="225" y="711" on="1"/>
        <pt x="180" y="711" on="0"/>
        <pt x="128" y="646" on="0"/>
        <pt x="128" y="574" on="1"/>
        <pt x="128" y="415" on="1"/>
        <pt x="252" y="415" on="1"/>
        <pt x="252" y="386" on="1"/>
        <pt x="128" y="386" on="1"/>
        <pt x="128" y="0" on="1"/>
        <pt x="96" y="0" on="1"/>
        <pt x="96" y="385" on="1"/>
        <pt x="22" y="385" on="1"/>
        <pt x="22" y="401" on="1"/>
        <pt x="96" y="415" on="1"/>
        <pt x="96" y="572" on="1"/>
        <pt x="96" y="659" on="0"/>
        <pt x="169" y="740" on="0"/>
        <pt x="228" y="740" on="1"/>
        <pt x="242" y="740" on="0"/>
        <pt x="279" y="735" on="0"/>
        <pt x="292" y="729" on="1"/>
      </contour>
      <contour>
        <pt x="329" y="0" on="1"/>
        <pt x="329" y="415" on="1"/>
        <pt x="361" y="415" on="1"/>
        <pt x="361" y="0" on="1"/>
      </contour>
    </TTGlyph>
    <TTGlyph name="fifteensixteenths" xMin="17" yMin="-16" xMax="1320" yMax="749">
      <component glyphName="one.num" x="-19" y="0" flags="0x4"/>
      <component glyphName="five.num" x="254" y="0" flags="0x4"/>
      <component glyphName="fraction" x="604" y="0" flags="0x4"/>
      <component glyphName="one.den" x="729" y="0" flags="0x4"/>
      <component glyphName="six.den" x="1003" y="0" flags="0x4"/>
    </TTGlyph>
    <TTGlyph name="five" xMin="59" yMin="-7" xMax="402" yMax="577">
      <contour>
        <pt x="402" y="174" on="1"/>
        <pt x="402" y="135" on="0"/>
        <pt x="374" y="69" on="0"/>
        <pt x="322" y="20" on="0"/>
        <pt x="249" y="-7" on="0"/>
        <pt x="204" y="-7" on="1"/>
        <pt x="165" y="-7" on="0"/>
        <pt x="93" y="9" on="0"/>
        <pt x="59" y="22" on="1"/>
        <pt x="70" y="48" on="1"/>
        <pt x="99" y="37" on="0"/>
        <pt x="166" y="20" on="0"/>
        <pt x="204" y="20" on="1"/>
        <pt x="279" y="20" on="0"/>
        <pt x="369" y="103" on="0"/>
        <pt x="369" y="172" on="1"/>
        <pt x="369" y="235" on="0"/>
        <pt x="285" y="316" on="0"/>
        <pt x="204" y="316" on="1"/>
        <pt x="165" y="316" on="0"/>
        <pt x="109" y="307" on="0"/>
        <pt x="89" y="301" on="1"/>
        <pt x="83" y="306" on="1"/>
        <pt x="83" y="577" on="1"/>
        <pt x="380" y="577" on="1"/>
        <pt x="380" y="550" on="1"/>
        <pt x="115" y="550" on="1"/>
        <pt x="115" y="335" on="1"/>
        <pt x="152" y="343" on="0"/>
        <pt x="204" y="343" on="1"/>
        <pt x="251" y="343" on="0"/>
        <pt x="325" y="318" on="0"/>
        <pt x="376" y="273" on="0"/>
        <pt x="402" y="211" on="0"/>
      </contour>
    </TTGlyph>
    <TTGlyph name="five.den" xMin="39" yMin="-8" xMax="303" yMax="372">
      <contour>
        <pt x="153" y="-8" on="1"/>
        <pt x="96" y="-8" on="0"/>
        <pt x="39" y="16" on="1"/>
        <pt x="48" y="43" on="1"/>
        <pt x="72" y="33" on="0"/>
        <pt x="124" y="19" on="0"/>
        <pt x="150" y="19" on="1"/>
        <pt x="206" y="19" on="0"/>
        <pt x="270" y="67" on="0"/>
        <pt x="270" y="112" on="1"/>
        <pt x="270" y="154" on="0"/>
        <pt x="211" y="201" on="0"/>
        <pt x="151" y="201" on="1"/>
        <pt x="129" y="201" on="0"/>
        <pt x="82" y="193" on="0"/>
        <pt x="64" y="188" on="1"/>
        <pt x="58" y="193" on="1"/>
        <pt x="58" y="372" on="1"/>
        <pt x="285" y="372" on="1"/>
        <pt x="285" y="345" on="1"/>
        <pt x="88" y="345" on="1"/>
        <pt x="88" y="221" on="1"/>
        <pt x="102" y="223" on="0"/>
        <pt x="138" y="228" on="0"/>
        <pt x="155" y="228" on="1"/>
        <pt x="227" y="228" on="0"/>
        <pt x="303" y="163" on="0"/>
        <pt x="303" y="112" on="1"/>
        <pt x="303" y="59" on="0"/>
        <pt x="223" y="-8" on="0"/>
      </contour>
    </TTGlyph>
    <TTGlyph name="five.lin" xMin="59" yMin="-8" xMax="481" yMax="733">
      <contour>
        <pt x="481" y="216" on="1"/>
        <pt x="481" y="168" on="0"/>
        <pt x="444" y="86" on="0"/>
        <pt x="379" y="26" on="0"/>
        <pt x="289" y="-8" on="0"/>
        <pt x="236" y="-8" on="1"/>
        <pt x="190" y="-8" on="0"/>
        <pt x="99" y="11" on="0"/>
        <pt x="59" y="26" on="1"/>
        <pt x="70" y="54" on="1"/>
        <pt x="105" y="40" on="0"/>
        <pt x="189" y="21" on="0"/>
        <pt x="236" y="21" on="1"/>
        <pt x="281" y="21" on="0"/>
        <pt x="359" y="50" on="0"/>
        <pt x="415" y="101" on="0"/>
        <pt x="447" y="172" on="0"/>
        <pt x="447" y="214" on="1"/>
        <pt x="447" y="254" on="0"/>
        <pt x="417" y="321" on="0"/>
        <pt x="361" y="369" on="0"/>
        <pt x="283" y="396" on="0"/>
        <pt x="234" y="396" on="1"/>
        <pt x="186" y="396" on="0"/>
        <pt x="120" y="385" on="0"/>
        <pt x="95" y="380" on="1"/>
        <pt x="92" y="385" on="1"/>
        <pt x="92" y="733" on="1"/>
        <pt x="456" y="733" on="1"/>
        <pt x="456" y="704" on="1"/>
        <pt x="124" y="704" on="1"/>
        <pt x="124" y="415" on="1"/>
        <pt x="147" y="420" on="0"/>
        <pt x="201" y="425" on="0"/>
        <pt x="234" y="425" on="1"/>
        <pt x="290" y="425" on="0"/>
        <pt x="381" y="395" on="0"/>
        <pt x="446" y="340" on="0"/>
        <pt x="481" y="263" on="0"/>
      </contour>
    </TTGlyph>
    <TTGlyph name="five.num" xMin="39" yMin="353" xMax="303" yMax="733">
      <contour>
        <pt x="153" y="353" on="1"/>
        <pt x="96" y="353" on="0"/>
        <pt x="39" y="377" on="1"/>
        <pt x="48" y="404" on="1"/>
        <pt x="72" y="394" on="0"/>
        <pt x="124" y="380" on="0"/>
        <pt x="150" y="380" on="1"/>
        <pt x="206" y="380" on="0"/>
        <pt x="270" y="428" on="0"/>
        <pt x="270" y="473" on="1"/>
        <pt x="270" y="515" on="0"/>
        <pt x="211" y="562" on="0"/>
        <pt x="151" y="562" on="1"/>
        <pt x="129" y="562" on="0"/>
        <pt x="82" y="554" on="0"/>
        <pt x="64" y="549" on="1"/>
        <pt x="58" y="554" on="1"/>
        <pt x="58" y="733" on="1"/>
        <pt x="285" y="733" on="1"/>
        <pt x="285" y="706" on="1"/>
        <pt x="88" y="706" on="1"/>
        <pt x="88" y="582" on="1"/>
        <pt x="102" y="584" on="0"/>
        <pt x="138" y="589" on="0"/>
        <pt x="155" y="589" on="1"/>
        <pt x="227" y="589" on="0"/>
        <pt x="303" y="524" on="0"/>
        <pt x="303" y="473" on="1"/>
        <pt x="303" y="420" on="0"/>
        <pt x="223" y="353" on="0"/>
      </contour>
    </TTGlyph>
    <TTGlyph name="fiveeighths" xMin="39" yMin="-16" xMax="788" yMax="749">
      <component glyphName="five.num" x="0" y="0" flags="0x4"/>
      <component glyphName="fraction" x="350" y="0" flags="0x4"/>
      <component glyphName="eight.den" x="475" y="0" flags="0x4"/>
    </TTGlyph>
    <TTGlyph name="fivesixteenths" xMin="39" yMin="-16" xMax="1066" yMax="749">
      <component glyphName="five.num" x="0" y="0" flags="0x4"/>
      <component glyphName="fraction" x="350" y="0" flags="0x4"/>
      <component glyphName="one.den" x="475" y="0" flags="0x4"/>
      <component glyphName="six.den" x="749" y="0" flags="0x4"/>
    </TTGlyph>
    <TTGlyph name="fivesixths" xMin="54" yMin="-16" xMax="777" yMax="749">
      <component glyphName="five.num" x="15" y="0" flags="0x4"/>
      <component glyphName="fraction" x="365" y="0" flags="0x4"/>
      <component glyphName="six.den" x="460" y="0" flags="0x4"/>
    </TTGlyph>
    <TTGlyph name="fl" xMin="22" yMin="0" xMax="361" yMax="740">
      <contour>
        <pt x="285" y="701" on="1"/>
        <pt x="273" y="706" on="0"/>
        <pt x="239" y="711" on="0"/>
        <pt x="225" y="711" on="1"/>
        <pt x="180" y="711" on="0"/>
        <pt x="128" y="646" on="0"/>
        <pt x="128" y="574" on="1"/>
        <pt x="128" y="415" on="1"/>
        <pt x="252" y="415" on="1"/>
        <pt x="252" y="386" on="1"/>
        <pt x="128" y="386" on="1"/>
        <pt x="128" y="0" on="1"/>
        <pt x="96" y="0" on="1"/>
        <pt x="96" y="385" on="1"/>
        <pt x="22" y="385" on="1"/>
        <pt x="22" y="401" on="1"/>
        <pt x="96" y="415" on="1"/>
        <pt x="96" y="572" on="1"/>
        <pt x="96" y="659" on="0"/>
        <pt x="169" y="740" on="0"/>
        <pt x="228" y="740" on="1"/>
        <pt x="242" y="740" on="0"/>
        <pt x="279" y="735" on="0"/>
        <pt x="292" y="729" on="1"/>
      </contour>
      <contour>
        <pt x="329" y="0" on="1"/>
        <pt x="329" y="733" on="1"/>
        <pt x="361" y="733" on="1"/>
        <pt x="361" y="0" on="1"/>
      </contour>
    </TTGlyph>
    <TTGlyph name="florin" xMin="65" yMin="0" xMax="352" yMax="585">
      <contour>
        <pt x="343" y="546" on="1"/>
        <pt x="332" y="550" on="0"/>
        <pt x="304" y="555" on="0"/>
        <pt x="288" y="555" on="1"/>
        <pt x="235" y="555" on="0"/>
        <pt x="178" y="480" on="0"/>
        <pt x="168" y="396" on="1"/>
        <pt x="160" y="328" on="1"/>
        <pt x="259" y="328" on="1"/>
        <pt x="255" y="300" on="1"/>
        <pt x="157" y="300" on="1"/>
        <pt x="122" y="0" on="1"/>
        <pt x="90" y="0" on="1"/>
        <pt x="124" y="300" on="1"/>
        <pt x="65" y="300" on="1"/>
        <pt x="70" y="316" on="1"/>
        <pt x="127" y="328" on="1"/>
        <pt x="135" y="399" on="1"/>
        <pt x="145" y="493" on="0"/>
        <pt x="223" y="585" on="0"/>
        <pt x="289" y="585" on="1"/>
        <pt x="324" y="585" on="0"/>
        <pt x="352" y="574" on="1"/>
      </contour>
    </TTGlyph>
    <TTGlyph name="florin.lin" xMin="84" yMin="0" xMax="443" yMax="742">
      <contour>
        <pt x="433" y="699" on="1"/>
        <pt x="419" y="704" on="0"/>
        <pt x="381" y="712" on="0"/>
        <pt x="360" y="712" on="1"/>
        <pt x="293" y="712" on="0"/>
        <pt x="218" y="611" on="0"/>
        <pt x="206" y="504" on="1"/>
        <pt x="196" y="415" on="1"/>
        <pt x="322" y="415" on="1"/>
        <pt x="316" y="386" on="1"/>
        <pt x="192" y="386" on="1"/>
        <pt x="148" y="0" on="1"/>
        <pt x="114" y="0" on="1"/>
        <pt x="158" y="385" on="1"/>
        <pt x="84" y="385" on="1"/>
        <pt x="87" y="401" on="1"/>
        <pt x="161" y="414" on="1"/>
        <pt x="172" y="508" on="1"/>
        <pt x="199" y="742" on="0"/>
        <pt x="363" y="742" on="1"/>
        <pt x="386" y="742" on="0"/>
        <pt x="426" y="735" on="0"/>
        <pt x="443" y="729" on="1"/>
      </contour>
    </TTGlyph>
    <TTGlyph name="four" xMin="13" yMin="0" xMax="446" yMax="587">
      <contour>
        <pt x="350" y="173" on="1"/>
        <pt x="350" y="0" on="1"/>
        <pt x="321" y="0" on="1"/>
        <pt x="321" y="173" on="1"/>
        <pt x="13" y="173" on="1"/>
        <pt x="13" y="181" on="1"/>
        <pt x="341" y="587" on="1"/>
        <pt x="350" y="587" on="1"/>
        <pt x="350" y="199" on="1"/>
        <pt x="446" y="199" on="1"/>
        <pt x="446" y="173" on="1"/>
      </contour>
      <contour>
        <pt x="321" y="519" on="1"/>
        <pt x="63" y="199" on="1"/>
        <pt x="321" y="199" on="1"/>
      </contour>
    </TTGlyph>
    <TTGlyph name="four.den" xMin="18" yMin="0" xMax="328" yMax="390">
      <contour>
        <pt x="231" y="94" on="1"/>
        <pt x="18" y="94" on="1"/>
        <pt x="18" y="102" on="1"/>
        <pt x="249" y="390" on="1"/>
        <pt x="258" y="390" on="1"/>
        <pt x="258" y="120" on="1"/>
        <pt x="328" y="120" on="1"/>
        <pt x="328" y="94" on="1"/>
        <pt x="258" y="94" on="1"/>
        <pt x="258" y="0" on="1"/>
        <pt x="231" y="0" on="1"/>
      </contour>
      <contour>
        <pt x="231" y="120" on="1"/>
        <pt x="231" y="327" on="1"/>
        <pt x="64" y="120" on="1"/>
      </contour>
    </TTGlyph>
    <TTGlyph name="four.lin" xMin="21" yMin="0" xMax="563" yMax="746">
      <contour>
        <pt x="441" y="223" on="1"/>
        <pt x="441" y="0" on="1"/>
        <pt x="410" y="0" on="1"/>
        <pt x="410" y="223" on="1"/>
        <pt x="21" y="223" on="1"/>
        <pt x="21" y="233" on="1"/>
        <pt x="432" y="746" on="1"/>
        <pt x="441" y="746" on="1"/>
        <pt x="441" y="250" on="1"/>
        <pt x="563" y="250" on="1"/>
        <pt x="563" y="223" on="1"/>
      </contour>
      <contour>
        <pt x="410" y="675" on="1"/>
        <pt x="69" y="250" on="1"/>
        <pt x="410" y="250" on="1"/>
      </contour>
    </TTGlyph>
    <TTGlyph name="four.num" xMin="18" yMin="361" xMax="328" yMax="751">
      <contour>
        <pt x="231" y="455" on="1"/>
        <pt x="18" y="455" on="1"/>
        <pt x="18" y="463" on="1"/>
        <pt x="249" y="751" on="1"/>
        <pt x="258" y="751" on="1"/>
        <pt x="258" y="481" on="1"/>
        <pt x="328" y="481" on="1"/>
        <pt x="328" y="455" on="1"/>
        <pt x="258" y="455" on="1"/>
        <pt x="258" y="361" on="1"/>
        <pt x="231" y="361" on="1"/>
      </contour>
      <contour>
        <pt x="231" y="481" on="1"/>
        <pt x="231" y="688" on="1"/>
        <pt x="64" y="481" on="1"/>
      </contour>
    </TTGlyph>
    <TTGlyph name="fourfifths" xMin="18" yMin="-16" xMax="778" yMax="751">
      <component glyphName="four.num" x="0" y="0" flags="0x4"/>
      <component glyphName="fraction" x="350" y="0" flags="0x4"/>
      <component glyphName="five.den" x="475" y="0" flags="0x4"/>
    </TTGlyph>
    <TTGlyph name="fraction" xMin="-232" yMin="-16" xMax="357" yMax="749">
      <contour>
        <pt x="-232" y="1" on="1"/>
        <pt x="52" y="376" on="1"/>
        <pt x="335" y="749" on="1"/>
        <pt x="357" y="732" on="1"/>
        <pt x="73" y="357" on="1"/>
        <pt x="-210" y="-16" on="1"/>
      </contour>
    </TTGlyph>
    <TTGlyph name="g" xMin="45" yMin="-228" xMax="432" yMax="423">
      <contour>
        <pt x="432" y="-43" on="1"/>
        <pt x="432" y="-228" on="0"/>
        <pt x="260" y="-228" on="1"/>
        <pt x="218" y="-228" on="0"/>
        <pt x="154" y="-214" on="0"/>
        <pt x="123" y="-202" on="1"/>
        <pt x="123" y="-203" on="0"/>
        <pt x="125" y="-193" on="0"/>
        <pt x="127" y="-188" on="1"/>
        <pt x="129" y="-182" on="0"/>
        <pt x="131" y="-173" on="1"/>
        <pt x="196" y="-199" on="0"/>
        <pt x="260" y="-199" on="1"/>
        <pt x="333" y="-199" on="0"/>
        <pt x="400" y="-124" on="0"/>
        <pt x="400" y="-44" on="1"/>
        <pt x="400" y="58" on="1"/>
        <pt x="374" y="32" on="0"/>
        <pt x="297" y="-8" on="0"/>
        <pt x="247" y="-8" on="1"/>
        <pt x="204" y="-8" on="0"/>
        <pt x="130" y="25" on="0"/>
        <pt x="76" y="82" on="0"/>
        <pt x="45" y="161" on="0"/>
        <pt x="45" y="207" on="1"/>
        <pt x="45" y="253" on="0"/>
        <pt x="76" y="332" on="0"/>
        <pt x="131" y="390" on="0"/>
        <pt x="205" y="423" on="0"/>
        <pt x="249" y="423" on="1"/>
        <pt x="299" y="423" on="0"/>
        <pt x="376" y="383" on="0"/>
        <pt x="401" y="357" on="1"/>
        <pt x="401" y="415" on="1"/>
        <pt x="432" y="415" on="1"/>
      </contour>
      <contour>
        <pt x="400" y="320" on="1"/>
        <pt x="374" y="352" on="0"/>
        <pt x="296" y="394" on="0"/>
        <pt x="248" y="394" on="1"/>
        <pt x="212" y="394" on="0"/>
        <pt x="149" y="366" on="0"/>
        <pt x="104" y="317" on="0"/>
        <pt x="78" y="248" on="0"/>
        <pt x="78" y="207" on="1"/>
        <pt x="78" y="166" on="0"/>
        <pt x="104" y="98" on="0"/>
        <pt x="149" y="48" on="0"/>
        <pt x="212" y="21" on="0"/>
        <pt x="248" y="21" on="1"/>
        <pt x="296" y="21" on="0"/>
        <pt x="374" y="65" on="0"/>
        <pt x="400" y="97" on="1"/>
      </contour>
    </TTGlyph>
    <TTGlyph name="gbreve" xMin="45" yMin="-228" xMax="432" yMax="615">
      <component glyphName="g" x="0" y="0" flags="0x204"/>
      <component glyphName="breve" x="46" y="0" flags="0x4"/>
    </TTGlyph>
    <TTGlyph name="gcommaaccent" xMin="45" yMin="-228" xMax="432" yMax="670">
      <contour>
        <pt x="226" y="556" on="1"/>
        <pt x="226" y="574" on="0"/>
        <pt x="239" y="609" on="0"/>
        <pt x="260" y="639" on="0"/>
        <pt x="284" y="663" on="0"/>
        <pt x="295" y="670" on="1"/>
        <pt x="306" y="660" on="1"/>
        <pt x="287" y="641" on="0"/>
        <pt x="261" y="598" on="0"/>
        <pt x="258" y="575" on="1"/>
        <pt x="278" y="572" on="0"/>
        <pt x="298" y="552" on="0"/>
        <pt x="298" y="539" on="1"/>
        <pt x="298" y="525" on="0"/>
        <pt x="279" y="507" on="0"/>
        <pt x="266" y="507" on="1"/>
        <pt x="250" y="507" on="0"/>
        <pt x="226" y="533" on="0"/>
      </contour>
      <contour>
        <pt x="432" y="-43" on="1"/>
        <pt x="432" y="-228" on="0"/>
        <pt x="260" y="-228" on="1"/>
        <pt x="218" y="-228" on="0"/>
        <pt x="154" y="-214" on="0"/>
        <pt x="123" y="-202" on="1"/>
        <pt x="123" y="-203" on="0"/>
        <pt x="125" y="-193" on="0"/>
        <pt x="127" y="-188" on="1"/>
        <pt x="129" y="-182" on="0"/>
        <pt x="131" y="-173" on="1"/>
        <pt x="196" y="-199" on="0"/>
        <pt x="260" y="-199" on="1"/>
        <pt x="333" y="-199" on="0"/>
        <pt x="400" y="-124" on="0"/>
        <pt x="400" y="-44" on="1"/>
        <pt x="400" y="58" on="1"/>
        <pt x="374" y="32" on="0"/>
        <pt x="297" y="-8" on="0"/>
        <pt x="247" y="-8" on="1"/>
        <pt x="204" y="-8" on="0"/>
        <pt x="130" y="25" on="0"/>
        <pt x="76" y="82" on="0"/>
        <pt x="45" y="161" on="0"/>
        <pt x="45" y="207" on="1"/>
        <pt x="45" y="253" on="0"/>
        <pt x="76" y="332" on="0"/>
        <pt x="131" y="390" on="0"/>
        <pt x="205" y="423" on="0"/>
        <pt x="249" y="423" on="1"/>
        <pt x="299" y="423" on="0"/>
        <pt x="376" y="383" on="0"/>
        <pt x="401" y="357" on="1"/>
        <pt x="401" y="415" on="1"/>
        <pt x="432" y="415" on="1"/>
      </contour>
      <contour>
        <pt x="400" y="320" on="1"/>
        <pt x="374" y="352" on="0"/>
        <pt x="296" y="394" on="0"/>
        <pt x="248" y="394" on="1"/>
        <pt x="212" y="394" on="0"/>
        <pt x="149" y="366" on="0"/>
        <pt x="104" y="317" on="0"/>
        <pt x="78" y="248" on="0"/>
        <pt x="78" y="207" on="1"/>
        <pt x="78" y="166" on="0"/>
        <pt x="104" y="98" on="0"/>
        <pt x="149" y="48" on="0"/>
        <pt x="212" y="21" on="0"/>
        <pt x="248" y="21" on="1"/>
        <pt x="296" y="21" on="0"/>
        <pt x="374" y="65" on="0"/>
        <pt x="400" y="97" on="1"/>
      </contour>
    </TTGlyph>
    <TTGlyph name="gdotaccent" xMin="45" yMin="-228" xMax="432" yMax="576">
      <component glyphName="g" x="0" y="0" flags="0x204"/>
      <component glyphName="dotaccent" x="45" y="0" flags="0x4"/>
    </TTGlyph>
    <TTGlyph name="germandbls" xMin="69" yMin="-94" xMax="416" yMax="740">
      <contour>
        <pt x="233" y="217" on="1"/>
        <pt x="273" y="219" on="0"/>
        <pt x="341" y="199" on="0"/>
        <pt x="389" y="160" on="0"/>
        <pt x="416" y="105" on="0"/>
        <pt x="416" y="71" on="1"/>
        <pt x="416" y="35" on="0"/>
        <pt x="390" y="-25" on="0"/>
        <pt x="341" y="-69" on="0"/>
        <pt x="273" y="-94" on="0"/>
        <pt x="231" y="-94" on="1"/>
        <pt x="192" y="-94" on="0"/>
        <pt x="158" y="-85" on="1"/>
        <pt x="162" y="-57" on="1"/>
        <pt x="178" y="-61" on="0"/>
        <pt x="211" y="-65" on="0"/>
        <pt x="230" y="-65" on="1"/>
        <pt x="302" y="-65" on="0"/>
        <pt x="385" y="8" on="0"/>
        <pt x="385" y="71" on="1"/>
        <pt x="385" y="125" on="0"/>
        <pt x="303" y="192" on="0"/>
        <pt x="237" y="192" on="1"/>
        <pt x="212" y="192" on="0"/>
        <pt x="184" y="187" on="1"/>
        <pt x="180" y="197" on="1"/>
        <pt x="343" y="386" on="1"/>
        <pt x="101" y="386" on="1"/>
        <pt x="101" y="0" on="1"/>
        <pt x="69" y="0" on="1"/>
        <pt x="69" y="572" on="1"/>
        <pt x="69" y="659" on="0"/>
        <pt x="142" y="740" on="0"/>
        <pt x="201" y="740" on="1"/>
        <pt x="215" y="740" on="0"/>
        <pt x="252" y="735" on="0"/>
        <pt x="265" y="729" on="1"/>
        <pt x="258" y="701" on="1"/>
        <pt x="246" y="706" on="0"/>
        <pt x="212" y="711" on="0"/>
        <pt x="198" y="711" on="1"/>
        <pt x="153" y="711" on="0"/>
        <pt x="101" y="646" on="0"/>
        <pt x="101" y="574" on="1"/>
        <pt x="101" y="415" on="1"/>
        <pt x="394" y="415" on="1"/>
        <pt x="397" y="407" on="1"/>
      </contour>
    </TTGlyph>
    <TTGlyph name="grave" xMin="120" yMin="475" xMax="326" yMax="615">
      <contour>
        <pt x="314" y="475" on="1"/>
        <pt x="120" y="584" on="1"/>
        <pt x="140" y="615" on="1"/>
        <pt x="326" y="494" on="1"/>
      </contour>
    </TTGlyph>
    <TTGlyph name="greater" xMin="44" yMin="31" xMax="339" yMax="518">
      <contour>
        <pt x="64" y="31" on="1"/>
        <pt x="44" y="52" on="1"/>
        <pt x="294" y="274" on="1"/>
        <pt x="44" y="496" on="1"/>
        <pt x="64" y="518" on="1"/>
        <pt x="339" y="274" on="1"/>
      </contour>
    </TTGlyph>
    <TTGlyph name="greater.lin" xMin="44" yMin="128" xMax="339" yMax="615">
      <component glyphName="greater" x="0" y="97" flags="0x204"/>
    </TTGlyph>
    <TTGlyph name="guillemotleft" xMin="49" yMin="9" xMax="335" yMax="336">
      <contour>
        <pt x="299" y="9" on="1"/>
        <pt x="194" y="173" on="1"/>
        <pt x="299" y="336" on="1"/>
        <pt x="335" y="336" on="1"/>
        <pt x="230" y="173" on="1"/>
        <pt x="335" y="9" on="1"/>
      </contour>
      <contour>
        <pt x="154" y="9" on="1"/>
        <pt x="49" y="173" on="1"/>
        <pt x="154" y="336" on="1"/>
        <pt x="190" y="336" on="1"/>
        <pt x="85" y="173" on="1"/>
        <pt x="190" y="9" on="1"/>
      </contour>
    </TTGlyph>
    <TTGlyph name="guillemotleft.cap" xMin="49" yMin="208" xMax="335" yMax="535">
      <component glyphName="guillemotleft" x="0" y="199" flags="0x204"/>
    </TTGlyph>
    <TTGlyph name="guillemotright" xMin="45" yMin="9" xMax="331" yMax="336">
      <contour>
        <pt x="226" y="9" on="1"/>
        <pt x="190" y="9" on="1"/>
        <pt x="295" y="173" on="1"/>
        <pt x="190" y="336" on="1"/>
        <pt x="226" y="336" on="1"/>
        <pt x="331" y="173" on="1"/>
      </contour>
      <contour>
        <pt x="81" y="9" on="1"/>
        <pt x="45" y="9" on="1"/>
        <pt x="150" y="173" on="1"/>
        <pt x="45" y="336" on="1"/>
        <pt x="81" y="336" on="1"/>
        <pt x="186" y="173" on="1"/>
      </contour>
    </TTGlyph>
    <TTGlyph name="guillemotright.cap" xMin="45" yMin="208" xMax="331" yMax="535">
      <component glyphName="guillemotright" x="0" y="199" flags="0x204"/>
    </TTGlyph>
    <TTGlyph name="guilsinglleft" xMin="49" yMin="9" xMax="190" yMax="336">
      <contour>
        <pt x="154" y="9" on="1"/>
        <pt x="49" y="173" on="1"/>
        <pt x="154" y="336" on="1"/>
        <pt x="190" y="336" on="1"/>
        <pt x="85" y="173" on="1"/>
        <pt x="190" y="9" on="1"/>
      </contour>
    </TTGlyph>
    <TTGlyph name="guilsinglleft.cap" xMin="49" yMin="208" xMax="190" yMax="535">
      <component glyphName="guilsinglleft" x="0" y="199" flags="0x204"/>
    </TTGlyph>
    <TTGlyph name="guilsinglright" xMin="45" yMin="9" xMax="186" yMax="336">
      <contour>
        <pt x="81" y="9" on="1"/>
        <pt x="45" y="9" on="1"/>
        <pt x="150" y="173" on="1"/>
        <pt x="45" y="336" on="1"/>
        <pt x="81" y="336" on="1"/>
        <pt x="186" y="173" on="1"/>
      </contour>
    </TTGlyph>
    <TTGlyph name="guilsinglright.cap" xMin="45" yMin="208" xMax="186" yMax="535">
      <component glyphName="guilsinglright" x="0" y="199" flags="0x204"/>
    </TTGlyph>
    <TTGlyph name="h" xMin="69" yMin="0" xMax="402" yMax="733">
      <contour>
        <pt x="370" y="0" on="1"/>
        <pt x="370" y="273" on="1"/>
        <pt x="370" y="330" on="0"/>
        <pt x="320" y="394" on="0"/>
        <pt x="263" y="394" on="1"/>
        <pt x="218" y="394" on="0"/>
        <pt x="135" y="340" on="0"/>
        <pt x="101" y="302" on="1"/>
        <pt x="101" y="0" on="1"/>
        <pt x="69" y="0" on="1"/>
        <pt x="69" y="733" on="1"/>
        <pt x="101" y="733" on="1"/>
        <pt x="101" y="337" on="1"/>
        <pt x="115" y="353" on="0"/>
        <pt x="152" y="384" on="0"/>
        <pt x="194" y="408" on="0"/>
        <pt x="241" y="423" on="0"/>
        <pt x="265" y="423" on="1"/>
        <pt x="337" y="423" on="0"/>
        <pt x="402" y="340" on="0"/>
        <pt x="402" y="276" on="1"/>
        <pt x="402" y="0" on="1"/>
      </contour>
    </TTGlyph>
    <TTGlyph name="hbar" xMin="9" yMin="0" xMax="402" yMax="733">
      <contour>
        <pt x="370" y="0" on="1"/>
        <pt x="370" y="273" on="1"/>
        <pt x="370" y="330" on="0"/>
        <pt x="320" y="394" on="0"/>
        <pt x="263" y="394" on="1"/>
        <pt x="218" y="394" on="0"/>
        <pt x="135" y="340" on="0"/>
        <pt x="101" y="302" on="1"/>
        <pt x="101" y="0" on="1"/>
        <pt x="69" y="0" on="1"/>
        <pt x="69" y="579" on="1"/>
        <pt x="9" y="579" on="1"/>
        <pt x="9" y="609" on="1"/>
        <pt x="69" y="609" on="1"/>
        <pt x="69" y="733" on="1"/>
        <pt x="101" y="733" on="1"/>
        <pt x="101" y="609" on="1"/>
        <pt x="248" y="609" on="1"/>
        <pt x="248" y="579" on="1"/>
        <pt x="101" y="579" on="1"/>
        <pt x="101" y="337" on="1"/>
        <pt x="115" y="353" on="0"/>
        <pt x="152" y="384" on="0"/>
        <pt x="194" y="408" on="0"/>
        <pt x="241" y="423" on="0"/>
        <pt x="265" y="423" on="1"/>
        <pt x="337" y="423" on="0"/>
        <pt x="402" y="340" on="0"/>
        <pt x="402" y="276" on="1"/>
        <pt x="402" y="0" on="1"/>
      </contour>
    </TTGlyph>
</ttFont>
